<?xml version="1.0" standalone="no"?>
<!DOCTYPE svg PUBLIC "-//W3C//DTD SVG 1.1//EN" "http://www.w3.org/Graphics/SVG/1.1/DTD/svg11.dtd" >
<svg xmlns="http://www.w3.org/2000/svg" xmlns:xlink="http://www.w3.org/1999/xlink" version="1.1">
<metadata>
Created by FontForge 20170731 at Thu Apr 28 12:06:22 2016
 By Aleksey,,,
Copyright (c) 2015 by Studio Kmzero. All rights reserved.
</metadata>
<defs>
<font id="aliensandcows" horiz-adv-x="884" >
  <font-face 
    font-family="aliens and cows"
    font-weight="400"
    font-stretch="normal"
    units-per-em="2000"
    panose-1="2 0 5 6 4 0 0 2 0 4"
    ascent="1600"
    descent="-400"
    x-height="1180"
    cap-height="1400"
    bbox="-149.961 -364 3669 1746"
    underline-thickness="100"
    underline-position="-200"
    unicode-range="U+0020-F726"
  />
<missing-glyph horiz-adv-x="0" 
 />
    <glyph glyph-name="ampersand" unicode="AND_" horiz-adv-x="2314" 
d="M1797 993q31 3 63 -2.5t58 -22.5t42.5 -47.5t16.5 -76.5v-367q0 -78 -48.5 -124.5t-135.5 -53.5l-145 -13q-11 -1 -14.5 4t-3.5 14v657q0 6 3.5 12.5t14.5 7.5zM1278 950q21 3 21 -17v-656q0 -19 -21 -22l-53 -3q-22 -2 -34.5 8.5t-20.5 30.5l-101 319l8 -315
q1 -24 -12 -41t-42 -19l-53 -5q-8 -1 -14 2t-6 17v656q0 11 5.5 15t14.5 5l53 5q23 2 33.5 -7t20.5 -35l104 -317l-12 322q-1 25 16 38.5t40 15.5zM319 -28q-8 -1 -14 4.5t-6 12.5v34q0 25 14.5 41t34.5 18l1619 133q9 1 15.5 -4t6.5 -14v-31q0 -26 -14 -42.5t-35 -18.5z
M319 970q-5 -1 -12.5 3t-7.5 15v33q0 23 13 40.5t36 19.5l1619 133q8 1 15 -2.5t7 -14.5v-33q0 -26 -15 -42t-34 -18zM528 888q8 1 13.5 -4.5t5.5 -10.5l95 -645q3 -24 -23 -27l-48 -4q-24 -2 -39.5 9t-17.5 34l-11 95l-60 -5l-9 -96q-2 -23 -17.5 -37t-38.5 -16l-48 -3
q-15 -2 -20.5 4.5t-3.5 17.5l95 661q0 6 4.5 12t15.5 7zM1793 405q29 2 42.5 18.5t13.5 42.5v368q0 23 -11 38.5t-45 13.5l-36 -3v-480zM449 420l50 3l-26 324z" />
    <glyph glyph-name="afii61352" unicode="NO_" horiz-adv-x="1341" 
d="M614 1400q10 0 15 -6t5 -15v-1358q0 -9 -5 -15t-15 -6h-56q-26 0 -40 12.5t-17 33.5q0 12 -7.5 56t-19 106.5t-25.5 137.5t-28 150.5t-26.5 144.5t-20.5 119l10 -701q1 -26 -14 -42.5t-44 -16.5h-56q-10 0 -15 6t-5 15v1358q0 9 5 15t15 6h56q25 0 40.5 -13.5t17.5 -35.5
q2 -16 9 -65.5t18 -118t24 -149t26.5 -158t26 -144.5t22.5 -110l-10 743q0 23 16 37t42 14h56zM715 1250q0 77 49 121.5t137 44.5q42 0 76.5 -11.5t58.5 -33t37.5 -52.5t13.5 -69v-610q0 -77 -49 -121.5t-137 -44.5q-42 0 -76.5 11.5t-58.5 33t-37.5 52.5t-13.5 69v610z
M957 1250q0 26 -13.5 42t-42.5 16q-28 0 -42 -16t-14 -42v-610q0 -26 13.5 -42t42.5 -16q28 0 42 16t14 42v610zM728.39 308.593q-8.71875 0 -14.5322 4.86621q-5.8125 4.86621 -5.8125 14.5986v33.0889q0 25.3027 13.5635 40.874t35.8457 15.5713h303.238
q8.71875 0 14.5322 -4.86523q5.8125 -4.86621 5.8125 -14.5986v-33.0889q0 -25.3037 -13.5635 -40.875t-35.8457 -15.5713h-303.238z" />
    <glyph glyph-name=".notdef" horiz-adv-x="0" 
 />
    <glyph glyph-name=".null" horiz-adv-x="0" 
 />
    <glyph glyph-name="nonmarkingreturn" horiz-adv-x="666" 
 />
    <glyph glyph-name="space" unicode=" " horiz-adv-x="732" 
 />
    <glyph glyph-name="exclam" unicode="!" horiz-adv-x="619" 
d="M309 133q40 0 62 -19.5t22 -54.5t-22 -55t-62 -20q-39 0 -61 20t-22 55t22 54.5t61 19.5zM259 1381q0 9 5 15t15 6h56q26 0 42.5 -14t15.5 -37l-32 -1132q-1 -23 -16.5 -37t-41.5 -14h-24q-10 0 -15 6t-5 15v1192z" />
    <glyph glyph-name="quotedbl" unicode="&#x22;" horiz-adv-x="757" 
d="M250 1488q0 9 5 15t15 6h34q26 0 42 -14t16 -37v-188q0 -23 -16 -37t-42 -14h-34q-10 0 -15 6t-5 15v248zM409 1488q0 9 5 15t15 6h34q26 0 42 -14t16 -37v-188q0 -23 -16 -37t-42 -14h-34q-10 0 -15 6t-5 15v248z" />
    <glyph glyph-name="numbersign" unicode="#" horiz-adv-x="950" 
d="M307 912l30 433q2 24 17.5 39.5t37.5 15.5h55q10 0 16 -6t4 -15l-32 -467h92l30 433q2 24 17.5 39.5t37.5 15.5h55q10 0 16 -6t4 -15l-32 -467h75q9 0 15 -5t6 -15v-34q0 -26 -14 -42t-37 -16h-52l-15 -218h74q9 0 15 -5t6 -15v-34q0 -26 -14 -42t-37 -16h-52l-28 -416
q-2 -24 -17.5 -39.5t-37.5 -15.5h-55q-10 0 -16 6t-4 15l30 450h-92l-28 -416q-2 -24 -17.5 -39.5t-37.5 -15.5h-55q-10 0 -16 6t-4 15l30 450h-26q-23 0 -37 16t-14 42v34q0 10 6 15t15 5h64l15 218h-26q-23 0 -37 16t-14 42v34q0 10 6 15t15 5h63zM413 582h92l15 218h-92z
" />
    <glyph glyph-name="dollar" unicode="$" 
d="M558 917q-29 0 -43.5 16.5t-14.5 42.5v268q0 27 -14.5 43.5t-43.5 16.5q-30 0 -44 -16.5t-14 -43.5q0 -91 10.5 -164t28.5 -135t40.5 -117t45.5 -109.5t45.5 -111.5t40.5 -124t28.5 -147t10.5 -180q0 -66 -36.5 -109t-99.5 -57v-95q0 -9 -5 -15t-15 -6h-34q-26 0 -42 14
t-16 37v65q-65 13 -100.5 56t-35.5 110v306q0 9 5 15t15 6h56q29 0 43.5 -16.5t14.5 -42.5v-268q0 -27 14.5 -43.5t43.5 -16.5q30 0 44 16.5t14 43.5q0 128 -18.5 224t-46.5 174.5t-60 149t-60 148.5t-46.5 172t-18.5 220q0 66 36.5 109t99.5 57v95q0 9 5 15t15 6h34
q26 0 42 -14t16 -37v-65q65 -14 100.5 -57t35.5 -109v-306q0 -9 -5 -15t-15 -6h-56z" />
    <glyph glyph-name="percent" unicode="%" horiz-adv-x="1473" 
d="M298 1244q0 80 50.5 126t141.5 46q43 0 78.5 -12t61 -34.5t39 -54t13.5 -71.5v-405q0 -80 -50.5 -126t-141.5 -46q-44 0 -79 12t-60.5 34.5t-39 54t-13.5 71.5v405zM548 1244q0 27 -14 43.5t-44 16.5q-29 0 -43.5 -16.5t-14.5 -43.5v-405q0 -27 14 -43.5t44 -16.5
q29 0 43.5 16.5t14.5 43.5v405zM837 578q0 80 50.5 126t141.5 46q43 0 78.5 -12t61 -34.5t39 -54t13.5 -71.5v-405q0 -80 -50.5 -126t-141.5 -46q-44 0 -79 12t-60.5 34.5t-39 54t-13.5 71.5v405zM1087 578q0 27 -14 43.5t-44 16.5q-29 0 -43.5 -16.5t-14.5 -43.5v-405
q0 -27 14 -43.5t44 -16.5q29 0 43.5 16.5t14.5 43.5v405zM704 54q-3 -24 -18 -39.5t-37 -15.5h-54q-10 0 -16 6t-4 15l237 1325q3 24 18 39.5t37 15.5h54q10 0 16 -6t4 -15z" />
    <glyph glyph-name="quotesingle" unicode="'" horiz-adv-x="619" 
d="M250 1488q0 9 5 15t15 6h34q26 0 42 -14t16 -37v-188q0 -23 -16 -37t-42 -14h-34q-10 0 -15 6t-5 15v248z" />
    <glyph glyph-name="parenleft" unicode="(" horiz-adv-x="770" 
d="M384 506q0 -83 4.5 -161t16 -143.5t29.5 -115.5t45 -77q16 -17 32.5 -22.5t29.5 -11t21 -15t8 -34.5v-15q0 -10 -6 -15t-15 -5q-74 0 -125.5 35t-85 94t-52 137t-27.5 164.5t-10.5 176t-1.5 171.5v62q0 82 1.5 171.5t10.5 176t27.5 164.5t52 137t84.5 94t126 35
q9 0 15 -5t6 -15v-15q0 -25 -8 -35t-21 -15t-29.5 -11t-32.5 -22q-27 -27 -45 -77t-29.5 -115.5t-16 -143.5t-4.5 -161v-388z" />
    <glyph glyph-name="parenright" unicode=")" horiz-adv-x="770" 
d="M386 894q0 83 -4.5 161t-16 143.5t-29.5 115.5t-45 77q-17 16 -33 22t-29 11t-21 15t-8 35v15q0 10 6 15t15 5q74 0 125.5 -35t85 -94t52 -137t27.5 -164.5t10.5 -176t1.5 -171.5v-62q0 -82 -1.5 -171.5t-10.5 -176t-27.5 -164.5t-52 -137t-85 -94t-125.5 -35q-9 0 -15 5
t-6 15v15q0 25 8 34.5t21 15t29 11t33 22.5q27 27 45 77t29.5 115.5t16 143.5t4.5 161v388z" />
    <glyph glyph-name="asterisk" unicode="*" horiz-adv-x="829" 
d="M350 593l-106 -18h-3q-18 0 -18 20v34q0 9 2.5 19.5t7.5 19t13 14.5t19 6q6 0 9 -1l75 -18l-68 82q0 1 -0.5 1.5t-0.5 1.5q-9 16 8 26l30 16q7 4 17.5 7.5t20.5 3.5t19 -4t15 -14l2 -4t1 -4l22 -75l36 101l2 3q5 8 12 9t15 -3l29 -18q7 -4 15 -11t13 -16t6.5 -19
t-4.5 -20q-2 -5 -5 -6l-55 -58l108 19h3q8 0 13 -5.5t5 -14.5v-34q0 -22 -11 -40.5t-31 -18.5q-6 0 -9 1l-77 18l69 -83l2 -3q9 -15 -9 -25l-29 -17q-19 -11 -40.5 -11t-31.5 18q-2 2 -4 8l-22 74l-37 -100q0 -1 -2 -3q-8 -15 -26 -5l-29 17q-20 10 -30.5 29t0.5 36
q0 2 1.5 4t3.5 4z" />
    <glyph glyph-name="plus" unicode="+" horiz-adv-x="829" 
d="M359 575h-115q-9 0 -15 5t-6 15v34q0 26 14 42t37 16h85v115q0 9 5 15t15 6h34q26 0 42 -14t16 -37v-85h116q9 0 15 -5t6 -15v-34q0 -26 -14 -42t-37 -16h-86v-116q0 -9 -5 -15t-15 -6h-34q-26 0 -42 14t-16 37v86z" />
    <glyph glyph-name="comma" unicode="," horiz-adv-x="619" 
d="M308 -16q-39 1 -60.5 20.5t-21.5 54.5t22 54.5t61 19.5q40 0 62 -19.5t22 -54.5q0 -33 -6 -62.5t-16 -51t-23 -34t-27 -12.5q-5 0 -9 3t-4 11v71z" />
    <glyph glyph-name="hyphen" unicode="-" horiz-adv-x="829" 
d="M244 575q-9 0 -15 5t-6 15v34q0 26 14 42t37 16h313q9 0 15 -5t6 -15v-34q0 -26 -14 -42t-37 -16h-313z" />
    <glyph glyph-name="period" unicode="." horiz-adv-x="619" 
d="M309 133q40 0 62 -19.5t22 -54.5t-22 -55t-62 -20q-39 0 -61 20t-22 55t22 54.5t61 19.5z" />
    <glyph glyph-name="slash" unicode="/" horiz-adv-x="778" 
d="M371 54q-3 -24 -18 -39.5t-37 -15.5h-64q-10 0 -16 6t-4 15l177 1325q3 24 18 39.5t37 15.5h64q10 0 16 -6t4 -15z" />
    <glyph glyph-name="zero" unicode="0" horiz-adv-x="4097" 
d="M2952 600q4 -5 8.5 -11t7.5 -13q3 -6 4 -14t1 -17q0 -14 -5 -28q-3 -6 -7.5 -11t-8.5 -11q-6 -5 -12.5 -9t-11.5 -9q-14 -5 -29 -5q-8 0 -15.5 1t-12.5 4q-8 5 -14 9t-10 9q-5 6 -9.5 11t-6.5 11q-3 8 -5 15t-2 13q0 17 7 31q2 7 6.5 13t9.5 11q4 6 10 9.5t14 6.5
q10 7 28 7q8 0 14.5 -2t14.5 -5q5 -3 11.5 -6.5t12.5 -9.5zM1108 576q-1 -1 -7 -9q-3 -2 -4 -4t-6 -3q-3 -3 -11 -3h-44v63h44q7 0 11 -4q5 0 6 -1.5t4 -3.5q5 -6 7 -10q3 -4 3 -13q0 -8 -3 -12zM1477 600q5 -5 10 -11t8 -13q2 -6 3.5 -14t1.5 -17q0 -6 -1.5 -13t-3.5 -15
q-3 -6 -8 -11t-10 -11q-4 -5 -9.5 -9t-12.5 -9q-6 -3 -14 -4t-16 -1q-15 0 -29 5q-6 5 -12 9t-12 9q-4 6 -8.5 11t-7.5 11q-3 8 -5 15t-2 13q0 17 7 31q3 7 7.5 13t8.5 11q6 6 12 9.5t12 6.5q8 3 15 5t14 2q16 0 30 -7q7 -3 12.5 -6.5t9.5 -9.5zM1853 616q0 -4 1.5 -7
t1.5 -5l37 -84h-77l36 84q0 3 1 4v8zM784 611q2 -3 3 -7t4 -7q2 -4 2 -13v-6.5t-2 -6.5q-3 -3 -4 -6.5t-3 -4.5q-6 -6 -12 -9t-15 -3h-44v72h44q10 0 15 -4q3 0 6 -2t6 -3zM3669 1084v-765h-3144v765h1191q0 40 7 77.5t24 71.5q16 35 35.5 66.5t48.5 56.5q50 51 120 79
q35 16 71 23t75 7q42 0 79.5 -7.5t70.5 -24.5q37 -16 67.5 -37t56.5 -47q47 -48 80 -121q26 -72 26 -144h1192zM1776 1216q-29 -62 -29 -133q0 -73 29 -134q13 -32 31.5 -60t40.5 -53q24 -24 51.5 -43t60.5 -33q62 -29 137 -29q38 0 71 6.5t64 19.5q33 14 60.5 33t51.5 43
q24 23 43.5 51.5t32.5 59.5q29 67 29 139q0 32 -5 62.5t-16 57.5q-19 54 -56 98q-18 23 -38.5 40.5t-42.5 34.5q-26 13 -51 25t-52 19q-19 7 -42 10t-49 3q-39 0 -73.5 -7t-66.5 -23q-63 -25 -110 -76q-23 -23 -40.5 -51.5t-30.5 -59.5zM816 560q7 14 7 24q0 7 -2 13t-5 14
q0 4 -5 8.5t-10 8.5q-3 4 -7.5 8t-10.5 5q-5 5 -11.5 6t-14.5 1h-69v-199h25v74h44q8 0 14.5 1t11.5 3q13 6 18 13q5 4 10 8.5t5 11.5zM965 648h-124v-199h124v24h-94v62h78v26h-78v59h94v28zM1160 449l-63 86q5 1 8.5 2t7.5 6q10 2 12 10q3 3 6 8l6 10v17q0 7 -0.5 12.5
t-3.5 11.5q-5 9 -13 17q-5 11 -19 12q-3 5 -9 6t-12 1h-72v-199h28v82h31l52 -71q2 -7 9 -9q2 -2 6 -2h7h19zM1296 483q1 6 2.5 11t1.5 11q0 17 -5 27t-15 17q-3 2 -4.5 3.5t-6.5 3.5q-1 1 -3.5 1.5t-4.5 2.5q-3 1 -5.5 1.5t-2.5 3.5q-7 0 -10 3q-8 2 -11 3.5t-8 3.5
q-8 2 -11 5q-6 4 -6 8v9v11l4 4t2 4q3 0 6 1.5l5 2.5q5 2 7.5 2.5t7.5 0.5q1 0 3.5 -1.5t4.5 -1.5q8 -1 10 -7q3 -1 5.5 -1.5t6.5 -0.5q10 0 15 5l9 4q-2 3 -4.5 4.5t-5.5 4.5l-6 6t-9 5q-3 1 -6.5 3t-8.5 4q-5 1 -8 2.5t-6 1.5q-6 0 -12.5 -1.5t-10.5 -2.5q-7 -2 -11 -5
t-9 -5q-4 -5 -8.5 -9t-6.5 -8q-1 -5 -2.5 -10t-1.5 -13q0 -7 0.5 -11.5t3.5 -9.5q2 -4 6 -8t6 -8l10 -6t10 -5q5 -3 9 -4.5t10 -4.5q3 -2 7.5 -2.5t7.5 -1.5q5 -1 7.5 -2.5t5.5 -2.5q3 -3 4 -5t5 -6q2 -4 2.5 -7t0.5 -8q0 -2 -0.5 -6t-3.5 -7t-4 -5.5t-4 -3.5q-3 -5 -7 -6.5
t-6 -3.5q-5 0 -8.5 -0.5t-6.5 -0.5q-6 0 -9 0.5t-6 0.5q-3 2 -6.5 3.5t-3.5 6.5l-4 1q-7 7 -15 7q-3 0 -6 -0.5t-6 -3.5l-7 -3q0 -4 2 -4q0 -4 5 -7q0 -4 4 -5q0 -2 2 -4q1 -1 2 -1q11 -9 22.5 -12.5t25.5 -3.5q6 0 12.5 0.5t12.5 3.5q5 1 12.5 4t10.5 8q5 4 9.5 8t6.5 12z
M1525 520q2 8 2.5 13.5t0.5 11.5q0 18 -3 30q-2 7 -5.5 12.5t-6.5 12.5q-5 9 -16 20q-4 4 -9.5 7.5t-12.5 9.5q-5 2 -10 5t-13 5q-6 1 -12.5 2.5t-14.5 1.5q-7 0 -13.5 -1.5t-12.5 -2.5q-8 -2 -13.5 -5t-10.5 -5q-6 -6 -11.5 -9.5t-10.5 -7.5q-5 -5 -9 -10t-7 -10
q-4 -7 -5.5 -12.5t-4.5 -12.5q-4 -11 -4 -30q0 -8 2.5 -18t6.5 -19q3 -10 8.5 -18.5t12.5 -16.5q8 -6 16.5 -11t17.5 -7q16 -8 38 -8h14.5t12.5 2q15 4 23 11q16 7 22 13q9 9 16 23q3 6 6.5 12t5.5 12zM1733 648h-26v-156q0 4 -1.5 7.5t-2.5 5.5l-96 135q-5 1 -10 7
q-3 0 -6 0.5t-6 0.5h-18v-199h26v167v-4l2 -2l2 -2v-4l116 -155h20v199zM1956 449l-87 199h-28l-88 -199h16q10 0 14 2q1 3 3 4.5t5 4.5l13 32h103l13 -32q2 -7 8 -9q1 -2 12 -2h16zM2089 473h-86v175h-28v-199h114v24zM2363 648h-27v-121q0 -8 -0.5 -12.5t-3.5 -10.5
q-1 -10 -12 -16q-3 -4 -7.5 -6.5t-8.5 -6.5q-5 -2 -9 -2.5t-11 -0.5q-13 0 -20 3q-6 4 -10.5 6.5t-6.5 6.5q-3 3 -6 7t-8 9q-1 6 -1.5 10.5t-0.5 12.5v121h-27v-121q0 -8 0.5 -13.5t2.5 -9.5q0 -10 6 -20q6 -11 15 -16q3 -3 6.5 -6t8.5 -6q3 -3 8.5 -4t9.5 -3
q6 -2 11.5 -3.5t11.5 -1.5q7 0 11 1.5t12 3.5q4 2 8.5 3t8.5 4q9 5 16 12q5 3 7.5 7t5.5 9q2 5 5 9.5t5 10.5v23v121zM2517 483q8 11 8 22q0 17 -5.5 27t-16.5 17q-6 4 -8 7q-3 1 -5.5 1.5t-5.5 2.5q-1 1 -4.5 1.5t-6.5 3.5q-1 0 -3.5 1t-5.5 2q-5 2 -7.5 3.5t-7.5 3.5
q-9 2 -10 5q-5 2 -6.5 3.5t-3.5 4.5q0 1 -0.5 3.5t-0.5 5.5q0 6 4 11q1 4 7 8q3 0 4.5 1.5t5.5 2.5q3 3 14 3q1 0 3.5 -1.5t5.5 -1.5q3 -3 11 -7q8 -2 12 -2q8 0 13 5l7 4q-2 3 -4.5 4.5t-5.5 4.5q-2 3 -5.5 6t-7.5 5q-3 1 -6.5 3t-8.5 4q-4 1 -8 2.5t-6 1.5q-6 0 -12 -1.5
t-12 -2.5q-5 -2 -10 -5t-9 -5q-4 -5 -7 -9l-6 -8q-3 -5 -5 -10t-2 -13q0 -7 2 -11.5t5 -9.5q4 -10 10 -16q5 -3 9 -6t9 -5q6 -3 11.5 -4.5t9.5 -4.5q5 -2 7.5 -2.5t5.5 -1.5l7.5 -2.5l7.5 -2.5l5 -5t3 -6q3 -4 3.5 -7t0.5 -8q0 -2 -0.5 -6t-3.5 -7q-2 -7 -9 -9
q-5 -5 -8 -6.5t-6 -3.5q-4 0 -7 -0.5t-6 -0.5q-4 0 -8.5 0.5t-7.5 0.5q-7 3 -12 10l-3 1q-7 7 -14 7q-2 0 -5.5 -0.5t-5.5 -3.5l-8 -3q1 -1 1.5 -2.5t2.5 -1.5q0 -2 1.5 -3.5t1.5 -3.5l2.5 -2.5t1.5 -2.5q5 -5 8 -5q8 -9 20 -12.5t25 -3.5q6 0 12.5 0.5t14.5 3.5q6 1 10.5 4
t10.5 8q4 4 7 8t6 12zM2681 648h-124v-199h124v24h-96v62h79v26h-79v59h96v28zM2997 520q2 8 2.5 13.5t0.5 11.5q0 8 -0.5 16t-2.5 14q-3 12 -10 25q-5 8 -18 20q-4 4 -8.5 7.5t-9.5 9.5q-6 2 -13 5t-13 5q-6 1 -12 2.5t-14 1.5t-14.5 -1.5t-12.5 -2.5q-15 -5 -25 -10
q-5 -6 -10.5 -9.5t-9.5 -7.5q-5 -5 -9 -10t-9 -10q-2 -7 -5 -12.5t-4 -12.5q-4 -11 -4 -30q0 -8 1.5 -18t6.5 -19q7 -20 23 -35q7 -6 15 -11t17 -7q16 -8 40 -8h14t12 2t13 4.5t13 6.5q5 3 9.5 6t8.5 7q12 10 18 23q7 11 10 24zM3207 648h-27v-156q-2 4 -3 7.5t-4 5.5
l-96 135q-1 1 -2 3t-4 4q-3 0 -7 0.5t-7 0.5h-20v-199h30v167q0 -4 1 -4v-4q0 -1 1 -2l2 -2l113 -155h23v199zM3371 473h-87v175h-28v-199h115v24zM3531 648h-22q-8 0 -13 -4q-8 -6 -9 -11l-48 -62q-1 -1 -1 -2q-1 -1 -3 -1v-3v3l-2 3l-46 62q-5 6 -11 11q-5 4 -13 4h-22
l74 -99q1 0 2 -4q0 -1 1 -1t2 -1v-4q0 -1 1 -2v-5v-83h30v83v5q1 0 1 6q2 0 4 2v3q0 1 1 1zM1983 787q-26 11 -50 26.5t-46 33.5h421q-21 -18 -45 -33.5t-50 -26.5q-28 -8 -57 -15.5t-59 -7.5q-31 0 -59.5 7.5t-54.5 15.5zM1921 880l411 416q39 -51 59.5 -104.5t20.5 -108.5
q0 -29 -4 -56.5t-15 -53.5q-9 -25 -22.5 -47.5t-30.5 -45.5h-419zM1860 871q-37 45 -59 97q-11 26 -14.5 55.5t-3.5 59.5q0 28 3.5 55t13.5 53q9 25 22.5 47.5t29.5 45.5h420zM2213 1377q26 -11 50 -26t44 -32h-423q47 38 99 58q50 22 114 22q62 0 116 -22zM531 116
q-5 5 -7 10t-4 11q-2 8 -3.5 13t-1.5 13q0 9 5 21q2 7 4 13.5t7 11.5q3 5 5.5 9.5t7.5 9.5q3 4 8 8t9 7q8 3 12.5 5t10.5 5q5 0 12 1.5t15 1.5q9 0 17 -2t19 -7q9 -3 16 -8t13 -11q-3 -4 -5 -4q0 -1 -1 -2t-2 -1q0 -1 -4 -1h-4q-7 0 -9 1q-5 2 -10 6t-10 5t-9.5 1h-10.5
q-8 0 -15.5 -0.5t-12.5 -1.5q-8 -5 -14 -9t-12 -9q-5 -5 -8.5 -10t-5.5 -12q-5 -8 -6 -15t-1 -13q0 -10 4 -19q2 -5 3 -9.5t2 -9.5q3 -4 6 -7t6 -7q6 -3 9.5 -6.5t8.5 -4.5q4 -2 7.5 -4.5t8.5 -4.5t10 -2h10h11t11 2t12.5 4.5t10.5 5.5v39h-15h-2q-1 0 -2 1l-4.5 3t-3.5 3
l-2.5 2.5t-1.5 2.5t-0.5 3t-0.5 4v1h52v-71q-4 -4 -6.5 -5.5t-6.5 -6.5q-8 -2 -16 -2q-9 -4 -19 -4h-17h-15t-12 1q-6 2 -10.5 4t-12.5 7q-4 2 -9 5t-8 9q-5 3 -7.5 8zM743 232v-59h73v-20h-73v-62h89v-19h-112v181h112v-21h-89zM912 72v160h-59v21h138v-21h-59v-160h-20z
M1125 232v-63h78v-18h-78v-79h-21v181h112v-21h-91zM1269 253v-112q0 -6 2 -10t5 -8q2 -8 5 -11t6 -8q3 -3 6.5 -5.5t7.5 -5.5q6 -3 11.5 -3.5t10.5 -0.5q6 0 10 0.5t8 3.5q6 3 10 5.5t9 5.5q2 5 5.5 8t5.5 11q5 6 5 18v112h20v-112q0 -8 -2 -14t-5 -14q-2 -7 -5.5 -12.5
t-8.5 -11.5q-5 -4 -11 -8t-12 -6q-15 -4 -29 -4q-15 0 -30 4q-5 2 -10.5 6t-10.5 8q-10 10 -16 24q-2 8 -4.5 14t-2.5 14v112h20zM1455 253v-162h81v-19h-103v181h22zM1577 253v-162h83v-19h-103v181h20zM1827 72l-80 181h10q7 0 11 -4q1 -2 3 -2.5t5 -3.5l57 -136v-7
q3 -3 3 -7v7q0 1 0.5 3t0.5 4q8 16 16 33t16 33q6 20 14 36.5t16 33.5q1 3 2.5 3.5t1.5 2.5q5 3 7 3.5t5 0.5h9q-9 -22 -19 -45t-21 -45q-9 -24 -18.5 -46.5t-18.5 -44.5h-20zM1960 232v-59h75v-20h-75v-62h89v-19h-109v181h109v-21h-89zM2184 156q-3 -3 -15 -5l62 -79h-14
q-3 0 -6.5 0.5t-3.5 2.5l-6 2t-5 6l-49 68h-34v-79h-20v181h66q6 0 9.5 -0.5t8.5 -3.5q10 -3 19 -10q3 -5 6 -9t5 -9q2 -4 2 -9.5v-8.5v-9.5t-2 -9.5q0 -5 -2.5 -9.5t-4.5 -6.5q-3 -3 -6.5 -6t-9.5 -6zM2159 169q8 0 10 2q3 2 6 3.5l5 2.5q3 3 4 5.5t4 5.5q0 3 1.5 6.5
t1.5 8.5q0 3 -1.5 5t-1.5 5q-3 3 -4 5.5t-4 5.5q-2 0 -5 2.5t-6 4.5q-2 1 -10 1h-46v-63h46zM2327 97q4 3 6 11q3 3 3.5 7.5t0.5 7.5q0 10 -1 14q-2 3 -4 5.5t-5 4.5q-3 4 -11 6q-5 0 -8 2t-8 4q-5 1 -9.5 3.5t-7.5 4.5q-12 2 -19 9q-2 1 -5 5t-6 7v19q0 7 0.5 11.5t2.5 9.5
q2 9 12 15q6 3 9.5 5t9.5 5q5 0 8.5 1.5t8.5 1.5q4 0 8.5 -1.5t7.5 -1.5t5.5 -2t6.5 -4q3 -2 5.5 -3.5t3.5 -3.5q5 -3 7 -5t4 -3l-5 -4q-3 -4 -11 -4h-9q-4 5 -4 7q-2 0 -3.5 0.5t-3.5 0.5h-2q-1 0 -2.5 0.5t-2.5 0.5h-5q-8 0 -11 -1q-9 0 -10 -4q-7 -7 -7 -11q-4 -1 -4 -10
q0 -7 4 -8q0 -7 4 -8q2 -2 5 -4.5t6 -2.5q4 -2 7.5 -3.5t9.5 -3.5q1 -1 4.5 -1.5t3.5 -2.5q3 0 5.5 -1t5.5 -3q2 -1 3 -1t1.5 -0.5t1.5 -0.5q2 0 4.5 -1.5t3.5 -2.5l8.5 -8.5t6.5 -7.5q4 -13 4 -24q0 -8 -1 -12.5t-6 -10.5q-1 -9 -12 -16q-4 -5 -9.5 -6.5t-8.5 -2.5
q-5 -3 -11.5 -3.5t-14.5 -0.5q-11 0 -21.5 3t-18.5 10q-3 1 -4 3.5t-6 5.5q0 3 -1.5 5t-1.5 3l3 3q2 0 2.5 1.5t3.5 1.5h3q4 0 6.5 -2t6.5 -4q5 -3 8 -5.5t7 -4.5q2 -2 6 -2h7q11 0 15 2q9 0 15 6zM2420 253v-181h-20v181h20zM2491 97q-14 12 -22 28q-6 18 -6 38
q0 5 0.5 10.5t1.5 10.5q5 15 10 25q7 10 16 19t18 15q5 3 11.5 5t11.5 5q6 0 12 1.5t12 1.5q7 0 14 -1.5t13 -1.5q5 -3 10.5 -5t10.5 -5t9.5 -7t9.5 -8q4 -5 6.5 -9.5t7.5 -9.5q5 -10 10 -25q1 -5 2.5 -10.5t1.5 -10.5q0 -9 -2.5 -19t-7.5 -19q-3 -9 -8 -16t-10 -12
q-8 -7 -15 -12.5t-17 -8.5q-10 -5 -35 -5q-9 0 -18 1t-18 4q-19 6 -29 21zM2491 191q-3 -8 -5 -15t-2 -13q0 -5 0.5 -9.5t2.5 -9.5q1 -9 8 -19q1 -4 3.5 -7t5.5 -7q4 -3 7.5 -6.5t8.5 -4.5q5 -2 9 -4.5t8 -4.5q5 -2 9.5 -2h9.5h10t10 2q5 2 9 4.5t8 4.5q3 1 7.5 4.5t7.5 6.5
q3 4 6 7t5 7q3 5 4 9.5t2 9.5q2 5 2.5 9.5t0.5 9.5q0 6 -1.5 13t-3.5 15q-2 7 -6.5 12t-8.5 10q-5 5 -11 9t-13 9q-6 1 -13 1.5t-15 0.5t-14.5 -0.5t-13.5 -1.5q-6 -5 -12 -9t-12 -9q-5 -5 -7.5 -10t-5.5 -12zM2704 72h-20v181h15q4 0 7.5 -0.5t6.5 -5.5l95 -134q1 -1 1 -5
q3 -3 3 -2v-2v149h20v-181h-16l-109 149v3h-3v7v-159zM2987 232v-63h74v-18h-74v-79h-22v181h111v-21h-89zM3192 156q-10 -4 -16 -5l57 -79h-12q-8 0 -12 3q-2 1 -3.5 2t-2.5 6l-51 68h-33v-79h-22v181h66q5 0 10 -0.5t11 -3.5q5 -2 9 -4.5t7 -5.5q3 -5 5.5 -9t7.5 -9
q0 -4 1.5 -9.5t1.5 -8.5q0 -5 -1.5 -9.5t-1.5 -9.5q-3 -5 -5 -9.5t-4 -6.5zM3176 171q3 2 4.5 3.5t3.5 2.5q7 7 8 11t1 15q0 6 -1 10t-8 11q-2 0 -3.5 2.5t-4.5 4.5q-5 1 -13 1h-44v-63h44q8 0 13 2zM3412 97q-7 -7 -14.5 -12.5t-16.5 -8.5q-7 -3 -15.5 -4t-18.5 -1
q-11 0 -20.5 1t-17.5 4q-17 6 -29 21q-6 5 -11.5 12t-8.5 16t-5 19t-2 19q0 5 0.5 10.5t2.5 10.5q1 7 3.5 13.5t4.5 11.5q4 5 8.5 9.5t7.5 9.5l10 8t10 7t11.5 5t11.5 5q6 0 11 1.5t13 1.5q5 0 11.5 -1.5t13.5 -1.5q6 -3 11 -5t9 -5q6 -3 11 -7t9 -8q4 -5 7 -9.5t6 -9.5
q7 -10 10 -25q3 -5 4 -10.5t1 -10.5q0 -9 -1.5 -19t-6.5 -19q-3 -9 -8.5 -16t-11.5 -12zM3347 89h9.5t10.5 2q4 2 7.5 4.5t6.5 4.5q5 1 9 4.5t9 6.5q3 4 5.5 7t4.5 7q2 5 4 9.5t3 9.5t1 9.5v9.5q0 6 -0.5 13t-1.5 15q-3 7 -8 12t-8 10q-8 5 -13.5 9t-10.5 9q-6 1 -13.5 1.5
t-14.5 0.5q-8 0 -15 -0.5t-13 -1.5q-8 -5 -13.5 -9t-9.5 -9q-7 -5 -10 -10t-6 -12q-3 -8 -3.5 -15t-0.5 -13v-19q2 -5 3.5 -9.5t4.5 -9.5q2 -4 5 -7l7 -7q3 -3 6 -6.5t7 -4.5q5 -2 9 -4.5t9 -4.5q4 -2 9.5 -2h10.5zM3644 249q3 3 5 3.5t4 0.5h16v-181h-18v149q0 -1 -3 -4v-1
v-3q-5 -10 -9 -21t-10 -19q-4 -10 -7.5 -17.5t-8.5 -18.5q-2 -9 -6 -17.5t-7 -15.5l-8.5 -17l-7.5 -15h-19q-11 16 -18 34t-15 35q-7 20 -15 37.5t-17 34.5v4q-3 3 -3 4v-149h-20v181h18q5 0 9 -4q3 -2 4 -2.5t1 -3.5l63 -142q0 -4 3 -4v-4q0 3 0.5 5.5t0.5 5.5q1 5 7 9
l54 130q2 3 3.5 3.5t3.5 2.5zM525 0h208v-25v-6t-1 -6q-1 -5 -3 -7l-5 -5l-139 -190h2l2 3h4h4h135v-48h-217v16q0 11 2 15q0 2 6 10q2 3 3 5.5t2 6.5q2 2 4.5 5t3.5 6l124 171h-135v49zM768 0h183v-49h-131v-67h105v-51h-105v-69h131v-48h-183v284zM1177 -49h-80v-235h-53
v235h-84v49h217v-49zM1307 0l122 -284h-30q-13 0 -22 5q-4 2 -6.5 7.5t-7.5 10.5l-15 37h-131l-14 -37q-2 -5 -3 -6t-4 -2q-2 -5 -3.5 -6.5t-4.5 -3.5q-3 -1 -5.5 -2.5t-5.5 -1.5q-1 -1 -4 -1h-5h-31l123 284h47zM1324 -173l-37 88q0 2 -1.5 4.5t-1.5 4.5q0 5 -1 8v-8
q0 -2 -1.5 -4.5t-2.5 -4.5l-36 -88h81zM1443 0h180v-49h-131v-74h109v-50h-109v-111h-49v284zM1911 -71q4 -7 7 -15t6 -18q3 -9 3.5 -18.5t0.5 -18.5q0 -11 -0.5 -20.5t-3.5 -18.5l-6 -18t-7 -18q-6 -6 -11.5 -14t-12.5 -14q-8 -7 -14 -12.5t-14 -10.5q-9 -7 -17.5 -10
t-17.5 -6q-11 -1 -20.5 -2.5t-19.5 -1.5q-15 0 -28.5 3t-27.5 8q-14 6 -25 14t-22 18q-19 20 -29 45q-6 14 -9 27.5t-3 30.5q0 9 1 18.5t3 18.5q6 21 16 33q5 11 10 17.5t11 13.5q8 6 15 11.5t17 11.5q6 4 14.5 8t19.5 6q8 2 17 4t20 2q10 0 19.5 -2t20.5 -4q9 -2 17.5 -6
t17.5 -8q8 -6 14 -11.5t14 -11.5q7 -7 12.5 -13.5t11.5 -17.5zM1871 -177q3 8 4.5 17.5t1.5 18.5q0 16 -6 34q-3 11 -8.5 17.5t-13.5 13.5q-6 6 -13 11t-16 8q-15 8 -36 8q-20 0 -37 -8q-6 -3 -13.5 -8t-13.5 -11q-8 -7 -12.5 -13.5t-8.5 -17.5q-5 -9 -6 -17t-1 -17t1 -18.5
t6 -17.5q4 -11 8.5 -18t12.5 -12q6 -7 13.5 -11.5t13.5 -9.5q10 -3 19 -5.5t18 -2.5q10 0 19 2.5t17 5.5q9 5 16 9.5t13 11.5q8 5 13.5 12t8.5 18zM2167 0h50v-284h-48l-134 191q-2 2 -2.5 3t-1.5 2q-4 5 -4 8q-4 2 -4 5q-2 2 -3 3.5t-3 3.5v-216h-52v284h47q4 0 9 -1.5
t7 -2.5q5 -1 7.5 -3t4.5 -5q15 -21 29.5 -42t27.5 -43q17 -20 31 -40.5t31 -39.5q1 -3 2.5 -6t2.5 -8q0 -2 1.5 -5t1.5 -4v200zM2243 0h217v-49h-84v-235h-52v235h-81v49zM2637 -147q5 -4 8.5 -9.5t6.5 -11.5q1 -6 2.5 -12.5t1.5 -15.5q0 -18 -8 -36q-5 -9 -9.5 -16
t-13.5 -13q-7 -6 -14 -11t-18 -8q-8 -3 -18 -5t-19 -2q-10 0 -19.5 2t-21.5 5q-8 3 -15.5 9t-15.5 14q-5 3 -8.5 7.5t-6.5 9.5q-4 4 -6 16q1 0 2 1.5t4 2.5q2 0 3 1.5t3 2.5q4 0 6 1.5t3 1.5h11q2 0 5 -0.5t5 -2.5q7 0 12 -4q6 -3 10.5 -6t8.5 -5q3 -1 8.5 -3t11.5 -2
q3 0 7.5 0.5t8.5 3.5q10 2 16 8q7 4 12 11q3 5 5 8.5t2 8.5q0 10 -7 15q-6 8 -12 8q-3 4 -7.5 5.5t-8.5 3.5q-8 2 -19 8q-7 2 -13.5 4t-12.5 5q-9 5 -15 8.5t-12 9.5q-6 4 -10 9.5t-7 11.5q-8 15 -8 32q0 22 8 33q4 8 9 14t11 12q7 4 13.5 8t15.5 6q8 2 15 4t18 2q5 0 11 -2
l12 -4q7 -1 11 -3.5t12 -5.5q4 -3 8.5 -7.5l8.5 -8.5q4 -3 8.5 -7t7.5 -9l-11 -7q-3 -2 -6.5 -4.5t-6.5 -4.5q-5 -1 -8 -1h-8h-3h-4q-8 2 -9 4q-5 1 -8 4q-3 0 -4.5 1t-3.5 1q-4 2 -7 2q-12 0 -16 -2q-4 0 -5.5 -1.5t-6.5 -3.5q-4 -2 -6 -9q-3 -3 -3 -11t3 -9q1 -3 3 -5
t3 -7q5 0 8.5 -1.5t7.5 -2.5q6 -2 12.5 -5t11.5 -5l11 -2q7 -5 14.5 -8t13.5 -7q12 -5 21 -19zM2724 -236q6 0 8 -8q1 -2 1 -6v-6q0 -8 -1 -12q-2 -6 -8 -11q-5 -2 -8 -5q-2 -2 -6 -2.5t-7 -0.5t-6.5 0.5t-4.5 2.5q-3 1 -6 2.5t-6 2.5q-2 2 -3.5 5t-3.5 6q-2 4 -2 12v6t2 6
q2 3 3.5 5.5t3.5 2.5q6 8 12 8q1 3 4.5 3.5t6.5 0.5t7 -0.5t6 -3.5q3 0 8 -8zM2832 -76q-10 -12 -20 -31q-3 -9 -5.5 -17t-2.5 -17t2.5 -18.5t5.5 -17.5q5 -11 9.5 -18t10.5 -12q7 -7 13.5 -11.5t17.5 -9.5q9 -3 18 -5.5t18 -2.5q8 0 14 2t12 3q6 2 13 5.5t13 8.5q5 1 9 4h9
q5 0 10 -0.5t8 -2.5q7 -2 10 -8l11 -12q-9 -12 -21 -20q-9 -4 -15.5 -8.5t-14.5 -7.5q-6 -5 -13.5 -7t-15.5 -4q-6 -3 -13.5 -3.5t-15.5 -0.5q-17 0 -30.5 3t-27.5 8q-27 13 -45 32q-20 20 -32 45q-5 14 -8 27.5t-3 30.5q0 9 1.5 18.5t2.5 18.5q3 10 6 18t9 15
q6 11 11.5 17.5t12.5 13.5q6 6 14.5 11.5t16.5 11.5q7 4 15 8t18 6q9 2 18.5 4t20.5 2q8 0 15.5 -0.5t13.5 -5.5q8 -1 15.5 -3.5t13.5 -5.5q8 -3 14.5 -7.5t15.5 -8.5q13 -11 21 -21l-11 -12q-2 -5 -4.5 -6.5t-5.5 -3.5q-5 -1 -9 -1h-9t-9.5 1t-8.5 4q-6 5 -13 8t-13 6
q-6 2 -12 3t-14 1q-20 0 -36 -8q-11 -3 -17.5 -8t-13.5 -11zM3297 -71q5 -7 8.5 -15t6.5 -18q3 -9 3.5 -18.5t0.5 -18.5q0 -11 -0.5 -20.5t-3.5 -18.5t-6.5 -18t-8.5 -18q-7 -14 -21 -28q-9 -7 -16 -12.5t-16 -10.5q-8 -7 -16 -10t-19 -6q-8 -1 -18 -2.5t-20 -1.5
q-28 0 -55 11q-14 6 -25 14t-20 18q-11 10 -19 21t-12 24q-6 14 -9 27.5t-3 30.5q0 9 1.5 18.5t2.5 18.5q3 10 7.5 18t8.5 15q4 11 9.5 17.5t13.5 13.5q5 6 12.5 11.5t16.5 11.5q8 4 16.5 8t16.5 6q11 2 20 4t18 2q10 0 20 -2t18 -4q11 -2 19 -6l16 -8q9 -6 16 -11.5
t16 -11.5q6 -7 12 -13.5t9 -17.5zM3257 -177q7 17 7 36q0 9 -2 17t-5 17q-3 11 -7.5 17.5t-10.5 13.5q-13 13 -32 19q-6 5 -16 6.5t-20 1.5q-19 0 -34 -8q-9 -3 -16 -8t-14 -11q-8 -7 -12.5 -13.5t-9.5 -17.5q-2 -9 -3.5 -17t-1.5 -17t1.5 -18.5t3.5 -17.5q9 -21 22 -30
q7 -7 14 -11.5t16 -9.5q8 -3 17 -5.5t17 -2.5q10 0 20 2.5t16 5.5q10 5 18 9.5t14 11.5q13 11 18 30zM3608 -3q3 0 4.5 1.5t6.5 1.5h50v-284h-50v208q-2 -3 -3 -6t-3 -7q-1 -6 -1 -9t-1 -6q-11 -22 -20 -44.5t-19 -44.5q-9 -23 -18 -45.5t-18 -45.5h-48l-73 180q-4 5 -4 15
q-2 3 -3 5t-1 5v-205h-54v284h50q5 0 7.5 -1.5t5.5 -1.5q3 -1 4.5 -1t4.5 -1l8 -8q2 -2 4 -5t3 -5q8 -21 16.5 -42.5t16.5 -42.5q8 -22 17 -43.5t18 -41.5q0 -2 0.5 -4t0.5 -3v-7q3 0 3 -6q0 6 1 6v7q0 1 1 3t1 4l12 20l57 150l2.5 5l2.5 5q2 3 5 4.5t3 3.5q3 1 5.5 1t5.5 1
z" />
    <glyph glyph-name="one" unicode="1" horiz-adv-x="4097" 
d="M2952 600q4 -5 8.5 -11t7.5 -13q3 -6 4 -14t1 -17q0 -14 -5 -28q-3 -6 -7.5 -11t-8.5 -11q-6 -5 -12.5 -9t-11.5 -9q-14 -5 -29 -5q-8 0 -15.5 1t-12.5 4q-8 5 -14 9t-10 9q-5 6 -9.5 11t-6.5 11q-3 8 -5 15t-2 13q0 17 7 31q2 7 6.5 13t9.5 11q4 6 10 9.5t14 6.5
q10 7 28 7q8 0 14.5 -2t14.5 -5q5 -3 11.5 -6.5t12.5 -9.5zM1108 576q-1 -1 -7 -9q-3 -2 -4 -4t-6 -3q-3 -3 -11 -3h-44v63h44q7 0 11 -4q5 0 6 -1.5t4 -3.5q5 -6 7 -10q3 -4 3 -13q0 -8 -3 -12zM1477 600q5 -5 10 -11t8 -13q2 -6 3.5 -14t1.5 -17q0 -6 -1.5 -13t-3.5 -15
q-3 -6 -8 -11t-10 -11q-4 -5 -9.5 -9t-12.5 -9q-6 -3 -14 -4t-16 -1q-15 0 -29 5q-6 5 -12 9t-12 9q-4 6 -8.5 11t-7.5 11q-3 8 -5 15t-2 13q0 17 7 31q3 7 7.5 13t8.5 11q6 6 12 9.5t12 6.5q8 3 15 5t14 2q16 0 30 -7q7 -3 12.5 -6.5t9.5 -9.5zM1853 616q0 -4 1.5 -7
t1.5 -5l37 -84h-77l36 84q0 3 1 4v8zM784 611q2 -3 3 -7t4 -7q2 -4 2 -13v-6.5t-2 -6.5q-3 -3 -4 -6.5t-3 -4.5q-6 -6 -12 -9t-15 -3h-44v72h44q10 0 15 -4q3 0 6 -2t6 -3zM3669 1084v-765h-3144v765h1191q0 40 7 77.5t24 71.5q16 35 35.5 66.5t48.5 56.5q50 51 120 79
q35 16 71 23t75 7q42 0 79.5 -7.5t70.5 -24.5q37 -16 67.5 -37t56.5 -47q47 -48 80 -121q26 -72 26 -144h1192zM1776 1216q-29 -62 -29 -133q0 -73 29 -134q13 -32 31.5 -60t40.5 -53q24 -24 51.5 -43t60.5 -33q62 -29 137 -29q38 0 71 6.5t64 19.5q33 14 60.5 33t51.5 43
q24 23 43.5 51.5t32.5 59.5q29 67 29 139q0 32 -5 62.5t-16 57.5q-19 54 -56 98q-18 23 -38.5 40.5t-42.5 34.5q-26 13 -51 25t-52 19q-19 7 -42 10t-49 3q-39 0 -73.5 -7t-66.5 -23q-63 -25 -110 -76q-23 -23 -40.5 -51.5t-30.5 -59.5zM816 560q7 14 7 24q0 7 -2 13t-5 14
q0 4 -5 8.5t-10 8.5q-3 4 -7.5 8t-10.5 5q-5 5 -11.5 6t-14.5 1h-69v-199h25v74h44q8 0 14.5 1t11.5 3q13 6 18 13q5 4 10 8.5t5 11.5zM965 648h-124v-199h124v24h-94v62h78v26h-78v59h94v28zM1160 449l-63 86q5 1 8.5 2t7.5 6q10 2 12 10q3 3 6 8l6 10v17q0 7 -0.5 12.5
t-3.5 11.5q-5 9 -13 17q-5 11 -19 12q-3 5 -9 6t-12 1h-72v-199h28v82h31l52 -71q2 -7 9 -9q2 -2 6 -2h7h19zM1296 483q1 6 2.5 11t1.5 11q0 17 -5 27t-15 17q-3 2 -4.5 3.5t-6.5 3.5q-1 1 -3.5 1.5t-4.5 2.5q-3 1 -5.5 1.5t-2.5 3.5q-7 0 -10 3q-8 2 -11 3.5t-8 3.5
q-8 2 -11 5q-6 4 -6 8v9v11l4 4t2 4q3 0 6 1.5l5 2.5q5 2 7.5 2.5t7.5 0.5q1 0 3.5 -1.5t4.5 -1.5q8 -1 10 -7q3 -1 5.5 -1.5t6.5 -0.5q10 0 15 5l9 4q-2 3 -4.5 4.5t-5.5 4.5l-6 6t-9 5q-3 1 -6.5 3t-8.5 4q-5 1 -8 2.5t-6 1.5q-6 0 -12.5 -1.5t-10.5 -2.5q-7 -2 -11 -5
t-9 -5q-4 -5 -8.5 -9t-6.5 -8q-1 -5 -2.5 -10t-1.5 -13q0 -7 0.5 -11.5t3.5 -9.5q2 -4 6 -8t6 -8l10 -6t10 -5q5 -3 9 -4.5t10 -4.5q3 -2 7.5 -2.5t7.5 -1.5q5 -1 7.5 -2.5t5.5 -2.5q3 -3 4 -5t5 -6q2 -4 2.5 -7t0.5 -8q0 -2 -0.5 -6t-3.5 -7t-4 -5.5t-4 -3.5q-3 -5 -7 -6.5
t-6 -3.5q-5 0 -8.5 -0.5t-6.5 -0.5q-6 0 -9 0.5t-6 0.5q-3 2 -6.5 3.5t-3.5 6.5l-4 1q-7 7 -15 7q-3 0 -6 -0.5t-6 -3.5l-7 -3q0 -4 2 -4q0 -4 5 -7q0 -4 4 -5q0 -2 2 -4q1 -1 2 -1q11 -9 22.5 -12.5t25.5 -3.5q6 0 12.5 0.5t12.5 3.5q5 1 12.5 4t10.5 8q5 4 9.5 8t6.5 12z
M1525 520q2 8 2.5 13.5t0.5 11.5q0 18 -3 30q-2 7 -5.5 12.5t-6.5 12.5q-5 9 -16 20q-4 4 -9.5 7.5t-12.5 9.5q-5 2 -10 5t-13 5q-6 1 -12.5 2.5t-14.5 1.5q-7 0 -13.5 -1.5t-12.5 -2.5q-8 -2 -13.5 -5t-10.5 -5q-6 -6 -11.5 -9.5t-10.5 -7.5q-5 -5 -9 -10t-7 -10
q-4 -7 -5.5 -12.5t-4.5 -12.5q-4 -11 -4 -30q0 -8 2.5 -18t6.5 -19q3 -10 8.5 -18.5t12.5 -16.5q8 -6 16.5 -11t17.5 -7q16 -8 38 -8h14.5t12.5 2q15 4 23 11q16 7 22 13q9 9 16 23q3 6 6.5 12t5.5 12zM1733 648h-26v-156q0 4 -1.5 7.5t-2.5 5.5l-96 135q-5 1 -10 7
q-3 0 -6 0.5t-6 0.5h-18v-199h26v167v-4l2 -2l2 -2v-4l116 -155h20v199zM1956 449l-87 199h-28l-88 -199h16q10 0 14 2q1 3 3 4.5t5 4.5l13 32h103l13 -32q2 -7 8 -9q1 -2 12 -2h16zM2089 473h-86v175h-28v-199h114v24zM2363 648h-27v-121q0 -8 -0.5 -12.5t-3.5 -10.5
q-1 -10 -12 -16q-3 -4 -7.5 -6.5t-8.5 -6.5q-5 -2 -9 -2.5t-11 -0.5q-13 0 -20 3q-6 4 -10.5 6.5t-6.5 6.5q-3 3 -6 7t-8 9q-1 6 -1.5 10.5t-0.5 12.5v121h-27v-121q0 -8 0.5 -13.5t2.5 -9.5q0 -10 6 -20q6 -11 15 -16q3 -3 6.5 -6t8.5 -6q3 -3 8.5 -4t9.5 -3
q6 -2 11.5 -3.5t11.5 -1.5q7 0 11 1.5t12 3.5q4 2 8.5 3t8.5 4q9 5 16 12q5 3 7.5 7t5.5 9q2 5 5 9.5t5 10.5v23v121zM2517 483q8 11 8 22q0 17 -5.5 27t-16.5 17q-6 4 -8 7q-3 1 -5.5 1.5t-5.5 2.5q-1 1 -4.5 1.5t-6.5 3.5q-1 0 -3.5 1t-5.5 2q-5 2 -7.5 3.5t-7.5 3.5
q-9 2 -10 5q-5 2 -6.5 3.5t-3.5 4.5q0 1 -0.5 3.5t-0.5 5.5q0 6 4 11q1 4 7 8q3 0 4.5 1.5t5.5 2.5q3 3 14 3q1 0 3.5 -1.5t5.5 -1.5q3 -3 11 -7q8 -2 12 -2q8 0 13 5l7 4q-2 3 -4.5 4.5t-5.5 4.5q-2 3 -5.5 6t-7.5 5q-3 1 -6.5 3t-8.5 4q-4 1 -8 2.5t-6 1.5q-6 0 -12 -1.5
t-12 -2.5q-5 -2 -10 -5t-9 -5q-4 -5 -7 -9l-6 -8q-3 -5 -5 -10t-2 -13q0 -7 2 -11.5t5 -9.5q4 -10 10 -16q5 -3 9 -6t9 -5q6 -3 11.5 -4.5t9.5 -4.5q5 -2 7.5 -2.5t5.5 -1.5l7.5 -2.5l7.5 -2.5l5 -5t3 -6q3 -4 3.5 -7t0.5 -8q0 -2 -0.5 -6t-3.5 -7q-2 -7 -9 -9
q-5 -5 -8 -6.5t-6 -3.5q-4 0 -7 -0.5t-6 -0.5q-4 0 -8.5 0.5t-7.5 0.5q-7 3 -12 10l-3 1q-7 7 -14 7q-2 0 -5.5 -0.5t-5.5 -3.5l-8 -3q1 -1 1.5 -2.5t2.5 -1.5q0 -2 1.5 -3.5t1.5 -3.5l2.5 -2.5t1.5 -2.5q5 -5 8 -5q8 -9 20 -12.5t25 -3.5q6 0 12.5 0.5t14.5 3.5q6 1 10.5 4
t10.5 8q4 4 7 8t6 12zM2681 648h-124v-199h124v24h-96v62h79v26h-79v59h96v28zM2997 520q2 8 2.5 13.5t0.5 11.5q0 8 -0.5 16t-2.5 14q-3 12 -10 25q-5 8 -18 20q-4 4 -8.5 7.5t-9.5 9.5q-6 2 -13 5t-13 5q-6 1 -12 2.5t-14 1.5t-14.5 -1.5t-12.5 -2.5q-15 -5 -25 -10
q-5 -6 -10.5 -9.5t-9.5 -7.5q-5 -5 -9 -10t-9 -10q-2 -7 -5 -12.5t-4 -12.5q-4 -11 -4 -30q0 -8 1.5 -18t6.5 -19q7 -20 23 -35q7 -6 15 -11t17 -7q16 -8 40 -8h14t12 2t13 4.5t13 6.5q5 3 9.5 6t8.5 7q12 10 18 23q7 11 10 24zM3207 648h-27v-156q-2 4 -3 7.5t-4 5.5
l-96 135q-1 1 -2 3t-4 4q-3 0 -7 0.5t-7 0.5h-20v-199h30v167q0 -4 1 -4v-4q0 -1 1 -2l2 -2l113 -155h23v199zM3371 473h-87v175h-28v-199h115v24zM3531 648h-22q-8 0 -13 -4q-8 -6 -9 -11l-48 -62q-1 -1 -1 -2q-1 -1 -3 -1v-3v3l-2 3l-46 62q-5 6 -11 11q-5 4 -13 4h-22
l74 -99q1 0 2 -4q0 -1 1 -1t2 -1v-4q0 -1 1 -2v-5v-83h30v83v5q1 0 1 6q2 0 4 2v3q0 1 1 1zM1983 787q-26 11 -50 26.5t-46 33.5h421q-21 -18 -45 -33.5t-50 -26.5q-28 -8 -57 -15.5t-59 -7.5q-31 0 -59.5 7.5t-54.5 15.5zM1921 880l411 416q39 -51 59.5 -104.5t20.5 -108.5
q0 -29 -4 -56.5t-15 -53.5q-9 -25 -22.5 -47.5t-30.5 -45.5h-419zM1860 871q-37 45 -59 97q-11 26 -14.5 55.5t-3.5 59.5q0 28 3.5 55t13.5 53q9 25 22.5 47.5t29.5 45.5h420zM2213 1377q26 -11 50 -26t44 -32h-423q47 38 99 58q50 22 114 22q62 0 116 -22zM531 116
q-5 5 -7 10t-4 11q-2 8 -3.5 13t-1.5 13q0 9 5 21q2 7 4 13.5t7 11.5q3 5 5.5 9.5t7.5 9.5q3 4 8 8t9 7q8 3 12.5 5t10.5 5q5 0 12 1.5t15 1.5q9 0 17 -2t19 -7q9 -3 16 -8t13 -11q-3 -4 -5 -4q0 -1 -1 -2t-2 -1q0 -1 -4 -1h-4q-7 0 -9 1q-5 2 -10 6t-10 5t-9.5 1h-10.5
q-8 0 -15.5 -0.5t-12.5 -1.5q-8 -5 -14 -9t-12 -9q-5 -5 -8.5 -10t-5.5 -12q-5 -8 -6 -15t-1 -13q0 -10 4 -19q2 -5 3 -9.5t2 -9.5q3 -4 6 -7t6 -7q6 -3 9.5 -6.5t8.5 -4.5q4 -2 7.5 -4.5t8.5 -4.5t10 -2h10h11t11 2t12.5 4.5t10.5 5.5v39h-15h-2q-1 0 -2 1l-4.5 3t-3.5 3
l-2.5 2.5t-1.5 2.5t-0.5 3t-0.5 4v1h52v-71q-4 -4 -6.5 -5.5t-6.5 -6.5q-8 -2 -16 -2q-9 -4 -19 -4h-17h-15t-12 1q-6 2 -10.5 4t-12.5 7q-4 2 -9 5t-8 9q-5 3 -7.5 8zM743 232v-59h73v-20h-73v-62h89v-19h-112v181h112v-21h-89zM912 72v160h-59v21h138v-21h-59v-160h-20z
M1125 232v-63h78v-18h-78v-79h-21v181h112v-21h-91zM1269 253v-112q0 -6 2 -10t5 -8q2 -8 5 -11t6 -8q3 -3 6.5 -5.5t7.5 -5.5q6 -3 11.5 -3.5t10.5 -0.5q6 0 10 0.5t8 3.5q6 3 10 5.5t9 5.5q2 5 5.5 8t5.5 11q5 6 5 18v112h20v-112q0 -8 -2 -14t-5 -14q-2 -7 -5.5 -12.5
t-8.5 -11.5q-5 -4 -11 -8t-12 -6q-15 -4 -29 -4q-15 0 -30 4q-5 2 -10.5 6t-10.5 8q-10 10 -16 24q-2 8 -4.5 14t-2.5 14v112h20zM1455 253v-162h81v-19h-103v181h22zM1577 253v-162h83v-19h-103v181h20zM1827 72l-80 181h10q7 0 11 -4q1 -2 3 -2.5t5 -3.5l57 -136v-7
q3 -3 3 -7v7q0 1 0.5 3t0.5 4q8 16 16 33t16 33q6 20 14 36.5t16 33.5q1 3 2.5 3.5t1.5 2.5q5 3 7 3.5t5 0.5h9q-9 -22 -19 -45t-21 -45q-9 -24 -18.5 -46.5t-18.5 -44.5h-20zM1960 232v-59h75v-20h-75v-62h89v-19h-109v181h109v-21h-89zM2184 156q-3 -3 -15 -5l62 -79h-14
q-3 0 -6.5 0.5t-3.5 2.5l-6 2t-5 6l-49 68h-34v-79h-20v181h66q6 0 9.5 -0.5t8.5 -3.5q10 -3 19 -10q3 -5 6 -9t5 -9q2 -4 2 -9.5v-8.5v-9.5t-2 -9.5q0 -5 -2.5 -9.5t-4.5 -6.5q-3 -3 -6.5 -6t-9.5 -6zM2159 169q8 0 10 2q3 2 6 3.5l5 2.5q3 3 4 5.5t4 5.5q0 3 1.5 6.5
t1.5 8.5q0 3 -1.5 5t-1.5 5q-3 3 -4 5.5t-4 5.5q-2 0 -5 2.5t-6 4.5q-2 1 -10 1h-46v-63h46zM2327 97q4 3 6 11q3 3 3.5 7.5t0.5 7.5q0 10 -1 14q-2 3 -4 5.5t-5 4.5q-3 4 -11 6q-5 0 -8 2t-8 4q-5 1 -9.5 3.5t-7.5 4.5q-12 2 -19 9q-2 1 -5 5t-6 7v19q0 7 0.5 11.5t2.5 9.5
q2 9 12 15q6 3 9.5 5t9.5 5q5 0 8.5 1.5t8.5 1.5q4 0 8.5 -1.5t7.5 -1.5t5.5 -2t6.5 -4q3 -2 5.5 -3.5t3.5 -3.5q5 -3 7 -5t4 -3l-5 -4q-3 -4 -11 -4h-9q-4 5 -4 7q-2 0 -3.5 0.5t-3.5 0.5h-2q-1 0 -2.5 0.5t-2.5 0.5h-5q-8 0 -11 -1q-9 0 -10 -4q-7 -7 -7 -11q-4 -1 -4 -10
q0 -7 4 -8q0 -7 4 -8q2 -2 5 -4.5t6 -2.5q4 -2 7.5 -3.5t9.5 -3.5q1 -1 4.5 -1.5t3.5 -2.5q3 0 5.5 -1t5.5 -3q2 -1 3 -1t1.5 -0.5t1.5 -0.5q2 0 4.5 -1.5t3.5 -2.5l8.5 -8.5t6.5 -7.5q4 -13 4 -24q0 -8 -1 -12.5t-6 -10.5q-1 -9 -12 -16q-4 -5 -9.5 -6.5t-8.5 -2.5
q-5 -3 -11.5 -3.5t-14.5 -0.5q-11 0 -21.5 3t-18.5 10q-3 1 -4 3.5t-6 5.5q0 3 -1.5 5t-1.5 3l3 3q2 0 2.5 1.5t3.5 1.5h3q4 0 6.5 -2t6.5 -4q5 -3 8 -5.5t7 -4.5q2 -2 6 -2h7q11 0 15 2q9 0 15 6zM2420 253v-181h-20v181h20zM2491 97q-14 12 -22 28q-6 18 -6 38
q0 5 0.5 10.5t1.5 10.5q5 15 10 25q7 10 16 19t18 15q5 3 11.5 5t11.5 5q6 0 12 1.5t12 1.5q7 0 14 -1.5t13 -1.5q5 -3 10.5 -5t10.5 -5t9.5 -7t9.5 -8q4 -5 6.5 -9.5t7.5 -9.5q5 -10 10 -25q1 -5 2.5 -10.5t1.5 -10.5q0 -9 -2.5 -19t-7.5 -19q-3 -9 -8 -16t-10 -12
q-8 -7 -15 -12.5t-17 -8.5q-10 -5 -35 -5q-9 0 -18 1t-18 4q-19 6 -29 21zM2491 191q-3 -8 -5 -15t-2 -13q0 -5 0.5 -9.5t2.5 -9.5q1 -9 8 -19q1 -4 3.5 -7t5.5 -7q4 -3 7.5 -6.5t8.5 -4.5q5 -2 9 -4.5t8 -4.5q5 -2 9.5 -2h9.5h10t10 2q5 2 9 4.5t8 4.5q3 1 7.5 4.5t7.5 6.5
q3 4 6 7t5 7q3 5 4 9.5t2 9.5q2 5 2.5 9.5t0.5 9.5q0 6 -1.5 13t-3.5 15q-2 7 -6.5 12t-8.5 10q-5 5 -11 9t-13 9q-6 1 -13 1.5t-15 0.5t-14.5 -0.5t-13.5 -1.5q-6 -5 -12 -9t-12 -9q-5 -5 -7.5 -10t-5.5 -12zM2704 72h-20v181h15q4 0 7.5 -0.5t6.5 -5.5l95 -134q1 -1 1 -5
q3 -3 3 -2v-2v149h20v-181h-16l-109 149v3h-3v7v-159zM2987 232v-63h74v-18h-74v-79h-22v181h111v-21h-89zM3192 156q-10 -4 -16 -5l57 -79h-12q-8 0 -12 3q-2 1 -3.5 2t-2.5 6l-51 68h-33v-79h-22v181h66q5 0 10 -0.5t11 -3.5q5 -2 9 -4.5t7 -5.5q3 -5 5.5 -9t7.5 -9
q0 -4 1.5 -9.5t1.5 -8.5q0 -5 -1.5 -9.5t-1.5 -9.5q-3 -5 -5 -9.5t-4 -6.5zM3176 171q3 2 4.5 3.5t3.5 2.5q7 7 8 11t1 15q0 6 -1 10t-8 11q-2 0 -3.5 2.5t-4.5 4.5q-5 1 -13 1h-44v-63h44q8 0 13 2zM3412 97q-7 -7 -14.5 -12.5t-16.5 -8.5q-7 -3 -15.5 -4t-18.5 -1
q-11 0 -20.5 1t-17.5 4q-17 6 -29 21q-6 5 -11.5 12t-8.5 16t-5 19t-2 19q0 5 0.5 10.5t2.5 10.5q1 7 3.5 13.5t4.5 11.5q4 5 8.5 9.5t7.5 9.5l10 8t10 7t11.5 5t11.5 5q6 0 11 1.5t13 1.5q5 0 11.5 -1.5t13.5 -1.5q6 -3 11 -5t9 -5q6 -3 11 -7t9 -8q4 -5 7 -9.5t6 -9.5
q7 -10 10 -25q3 -5 4 -10.5t1 -10.5q0 -9 -1.5 -19t-6.5 -19q-3 -9 -8.5 -16t-11.5 -12zM3347 89h9.5t10.5 2q4 2 7.5 4.5t6.5 4.5q5 1 9 4.5t9 6.5q3 4 5.5 7t4.5 7q2 5 4 9.5t3 9.5t1 9.5v9.5q0 6 -0.5 13t-1.5 15q-3 7 -8 12t-8 10q-8 5 -13.5 9t-10.5 9q-6 1 -13.5 1.5
t-14.5 0.5q-8 0 -15 -0.5t-13 -1.5q-8 -5 -13.5 -9t-9.5 -9q-7 -5 -10 -10t-6 -12q-3 -8 -3.5 -15t-0.5 -13v-19q2 -5 3.5 -9.5t4.5 -9.5q2 -4 5 -7l7 -7q3 -3 6 -6.5t7 -4.5q5 -2 9 -4.5t9 -4.5q4 -2 9.5 -2h10.5zM3644 249q3 3 5 3.5t4 0.5h16v-181h-18v149q0 -1 -3 -4v-1
v-3q-5 -10 -9 -21t-10 -19q-4 -10 -7.5 -17.5t-8.5 -18.5q-2 -9 -6 -17.5t-7 -15.5l-8.5 -17l-7.5 -15h-19q-11 16 -18 34t-15 35q-7 20 -15 37.5t-17 34.5v4q-3 3 -3 4v-149h-20v181h18q5 0 9 -4q3 -2 4 -2.5t1 -3.5l63 -142q0 -4 3 -4v-4q0 3 0.5 5.5t0.5 5.5q1 5 7 9
l54 130q2 3 3.5 3.5t3.5 2.5zM525 0h208v-25v-6t-1 -6q-1 -5 -3 -7l-5 -5l-139 -190h2l2 3h4h4h135v-48h-217v16q0 11 2 15q0 2 6 10q2 3 3 5.5t2 6.5q2 2 4.5 5t3.5 6l124 171h-135v49zM768 0h183v-49h-131v-67h105v-51h-105v-69h131v-48h-183v284zM1177 -49h-80v-235h-53
v235h-84v49h217v-49zM1307 0l122 -284h-30q-13 0 -22 5q-4 2 -6.5 7.5t-7.5 10.5l-15 37h-131l-14 -37q-2 -5 -3 -6t-4 -2q-2 -5 -3.5 -6.5t-4.5 -3.5q-3 -1 -5.5 -2.5t-5.5 -1.5q-1 -1 -4 -1h-5h-31l123 284h47zM1324 -173l-37 88q0 2 -1.5 4.5t-1.5 4.5q0 5 -1 8v-8
q0 -2 -1.5 -4.5t-2.5 -4.5l-36 -88h81zM1443 0h180v-49h-131v-74h109v-50h-109v-111h-49v284zM1911 -71q4 -7 7 -15t6 -18q3 -9 3.5 -18.5t0.5 -18.5q0 -11 -0.5 -20.5t-3.5 -18.5l-6 -18t-7 -18q-6 -6 -11.5 -14t-12.5 -14q-8 -7 -14 -12.5t-14 -10.5q-9 -7 -17.5 -10
t-17.5 -6q-11 -1 -20.5 -2.5t-19.5 -1.5q-15 0 -28.5 3t-27.5 8q-14 6 -25 14t-22 18q-19 20 -29 45q-6 14 -9 27.5t-3 30.5q0 9 1 18.5t3 18.5q6 21 16 33q5 11 10 17.5t11 13.5q8 6 15 11.5t17 11.5q6 4 14.5 8t19.5 6q8 2 17 4t20 2q10 0 19.5 -2t20.5 -4q9 -2 17.5 -6
t17.5 -8q8 -6 14 -11.5t14 -11.5q7 -7 12.5 -13.5t11.5 -17.5zM1871 -177q3 8 4.5 17.5t1.5 18.5q0 16 -6 34q-3 11 -8.5 17.5t-13.5 13.5q-6 6 -13 11t-16 8q-15 8 -36 8q-20 0 -37 -8q-6 -3 -13.5 -8t-13.5 -11q-8 -7 -12.5 -13.5t-8.5 -17.5q-5 -9 -6 -17t-1 -17t1 -18.5
t6 -17.5q4 -11 8.5 -18t12.5 -12q6 -7 13.5 -11.5t13.5 -9.5q10 -3 19 -5.5t18 -2.5q10 0 19 2.5t17 5.5q9 5 16 9.5t13 11.5q8 5 13.5 12t8.5 18zM2167 0h50v-284h-48l-134 191q-2 2 -2.5 3t-1.5 2q-4 5 -4 8q-4 2 -4 5q-2 2 -3 3.5t-3 3.5v-216h-52v284h47q4 0 9 -1.5
t7 -2.5q5 -1 7.5 -3t4.5 -5q15 -21 29.5 -42t27.5 -43q17 -20 31 -40.5t31 -39.5q1 -3 2.5 -6t2.5 -8q0 -2 1.5 -5t1.5 -4v200zM2243 0h217v-49h-84v-235h-52v235h-81v49zM2637 -147q5 -4 8.5 -9.5t6.5 -11.5q1 -6 2.5 -12.5t1.5 -15.5q0 -18 -8 -36q-5 -9 -9.5 -16
t-13.5 -13q-7 -6 -14 -11t-18 -8q-8 -3 -18 -5t-19 -2q-10 0 -19.5 2t-21.5 5q-8 3 -15.5 9t-15.5 14q-5 3 -8.5 7.5t-6.5 9.5q-4 4 -6 16q1 0 2 1.5t4 2.5q2 0 3 1.5t3 2.5q4 0 6 1.5t3 1.5h11q2 0 5 -0.5t5 -2.5q7 0 12 -4q6 -3 10.5 -6t8.5 -5q3 -1 8.5 -3t11.5 -2
q3 0 7.5 0.5t8.5 3.5q10 2 16 8q7 4 12 11q3 5 5 8.5t2 8.5q0 10 -7 15q-6 8 -12 8q-3 4 -7.5 5.5t-8.5 3.5q-8 2 -19 8q-7 2 -13.5 4t-12.5 5q-9 5 -15 8.5t-12 9.5q-6 4 -10 9.5t-7 11.5q-8 15 -8 32q0 22 8 33q4 8 9 14t11 12q7 4 13.5 8t15.5 6q8 2 15 4t18 2q5 0 11 -2
l12 -4q7 -1 11 -3.5t12 -5.5q4 -3 8.5 -7.5l8.5 -8.5q4 -3 8.5 -7t7.5 -9l-11 -7q-3 -2 -6.5 -4.5t-6.5 -4.5q-5 -1 -8 -1h-8h-3h-4q-8 2 -9 4q-5 1 -8 4q-3 0 -4.5 1t-3.5 1q-4 2 -7 2q-12 0 -16 -2q-4 0 -5.5 -1.5t-6.5 -3.5q-4 -2 -6 -9q-3 -3 -3 -11t3 -9q1 -3 3 -5
t3 -7q5 0 8.5 -1.5t7.5 -2.5q6 -2 12.5 -5t11.5 -5l11 -2q7 -5 14.5 -8t13.5 -7q12 -5 21 -19zM2724 -236q6 0 8 -8q1 -2 1 -6v-6q0 -8 -1 -12q-2 -6 -8 -11q-5 -2 -8 -5q-2 -2 -6 -2.5t-7 -0.5t-6.5 0.5t-4.5 2.5q-3 1 -6 2.5t-6 2.5q-2 2 -3.5 5t-3.5 6q-2 4 -2 12v6t2 6
q2 3 3.5 5.5t3.5 2.5q6 8 12 8q1 3 4.5 3.5t6.5 0.5t7 -0.5t6 -3.5q3 0 8 -8zM2832 -76q-10 -12 -20 -31q-3 -9 -5.5 -17t-2.5 -17t2.5 -18.5t5.5 -17.5q5 -11 9.5 -18t10.5 -12q7 -7 13.5 -11.5t17.5 -9.5q9 -3 18 -5.5t18 -2.5q8 0 14 2t12 3q6 2 13 5.5t13 8.5q5 1 9 4h9
q5 0 10 -0.5t8 -2.5q7 -2 10 -8l11 -12q-9 -12 -21 -20q-9 -4 -15.5 -8.5t-14.5 -7.5q-6 -5 -13.5 -7t-15.5 -4q-6 -3 -13.5 -3.5t-15.5 -0.5q-17 0 -30.5 3t-27.5 8q-27 13 -45 32q-20 20 -32 45q-5 14 -8 27.5t-3 30.5q0 9 1.5 18.5t2.5 18.5q3 10 6 18t9 15
q6 11 11.5 17.5t12.5 13.5q6 6 14.5 11.5t16.5 11.5q7 4 15 8t18 6q9 2 18.5 4t20.5 2q8 0 15.5 -0.5t13.5 -5.5q8 -1 15.5 -3.5t13.5 -5.5q8 -3 14.5 -7.5t15.5 -8.5q13 -11 21 -21l-11 -12q-2 -5 -4.5 -6.5t-5.5 -3.5q-5 -1 -9 -1h-9t-9.5 1t-8.5 4q-6 5 -13 8t-13 6
q-6 2 -12 3t-14 1q-20 0 -36 -8q-11 -3 -17.5 -8t-13.5 -11zM3297 -71q5 -7 8.5 -15t6.5 -18q3 -9 3.5 -18.5t0.5 -18.5q0 -11 -0.5 -20.5t-3.5 -18.5t-6.5 -18t-8.5 -18q-7 -14 -21 -28q-9 -7 -16 -12.5t-16 -10.5q-8 -7 -16 -10t-19 -6q-8 -1 -18 -2.5t-20 -1.5
q-28 0 -55 11q-14 6 -25 14t-20 18q-11 10 -19 21t-12 24q-6 14 -9 27.5t-3 30.5q0 9 1.5 18.5t2.5 18.5q3 10 7.5 18t8.5 15q4 11 9.5 17.5t13.5 13.5q5 6 12.5 11.5t16.5 11.5q8 4 16.5 8t16.5 6q11 2 20 4t18 2q10 0 20 -2t18 -4q11 -2 19 -6l16 -8q9 -6 16 -11.5
t16 -11.5q6 -7 12 -13.5t9 -17.5zM3257 -177q7 17 7 36q0 9 -2 17t-5 17q-3 11 -7.5 17.5t-10.5 13.5q-13 13 -32 19q-6 5 -16 6.5t-20 1.5q-19 0 -34 -8q-9 -3 -16 -8t-14 -11q-8 -7 -12.5 -13.5t-9.5 -17.5q-2 -9 -3.5 -17t-1.5 -17t1.5 -18.5t3.5 -17.5q9 -21 22 -30
q7 -7 14 -11.5t16 -9.5q8 -3 17 -5.5t17 -2.5q10 0 20 2.5t16 5.5q10 5 18 9.5t14 11.5q13 11 18 30zM3608 -3q3 0 4.5 1.5t6.5 1.5h50v-284h-50v208q-2 -3 -3 -6t-3 -7q-1 -6 -1 -9t-1 -6q-11 -22 -20 -44.5t-19 -44.5q-9 -23 -18 -45.5t-18 -45.5h-48l-73 180q-4 5 -4 15
q-2 3 -3 5t-1 5v-205h-54v284h50q5 0 7.5 -1.5t5.5 -1.5q3 -1 4.5 -1t4.5 -1l8 -8q2 -2 4 -5t3 -5q8 -21 16.5 -42.5t16.5 -42.5q8 -22 17 -43.5t18 -41.5q0 -2 0.5 -4t0.5 -3v-7q3 0 3 -6q0 6 1 6v7q0 1 1 3t1 4l12 20l57 150l2.5 5l2.5 5q2 3 5 4.5t3 3.5q3 1 5.5 1t5.5 1
z" />
    <glyph glyph-name="two" unicode="2" horiz-adv-x="4097" 
d="M2952 600q4 -5 8.5 -11t7.5 -13q3 -6 4 -14t1 -17q0 -14 -5 -28q-3 -6 -7.5 -11t-8.5 -11q-6 -5 -12.5 -9t-11.5 -9q-14 -5 -29 -5q-8 0 -15.5 1t-12.5 4q-8 5 -14 9t-10 9q-5 6 -9.5 11t-6.5 11q-3 8 -5 15t-2 13q0 17 7 31q2 7 6.5 13t9.5 11q4 6 10 9.5t14 6.5
q10 7 28 7q8 0 14.5 -2t14.5 -5q5 -3 11.5 -6.5t12.5 -9.5zM1108 576q-1 -1 -7 -9q-3 -2 -4 -4t-6 -3q-3 -3 -11 -3h-44v63h44q7 0 11 -4q5 0 6 -1.5t4 -3.5q5 -6 7 -10q3 -4 3 -13q0 -8 -3 -12zM1477 600q5 -5 10 -11t8 -13q2 -6 3.5 -14t1.5 -17q0 -6 -1.5 -13t-3.5 -15
q-3 -6 -8 -11t-10 -11q-4 -5 -9.5 -9t-12.5 -9q-6 -3 -14 -4t-16 -1q-15 0 -29 5q-6 5 -12 9t-12 9q-4 6 -8.5 11t-7.5 11q-3 8 -5 15t-2 13q0 17 7 31q3 7 7.5 13t8.5 11q6 6 12 9.5t12 6.5q8 3 15 5t14 2q16 0 30 -7q7 -3 12.5 -6.5t9.5 -9.5zM1853 616q0 -4 1.5 -7
t1.5 -5l37 -84h-77l36 84q0 3 1 4v8zM784 611q2 -3 3 -7t4 -7q2 -4 2 -13v-6.5t-2 -6.5q-3 -3 -4 -6.5t-3 -4.5q-6 -6 -12 -9t-15 -3h-44v72h44q10 0 15 -4q3 0 6 -2t6 -3zM3669 1084v-765h-3144v765h1191q0 40 7 77.5t24 71.5q16 35 35.5 66.5t48.5 56.5q50 51 120 79
q35 16 71 23t75 7q42 0 79.5 -7.5t70.5 -24.5q37 -16 67.5 -37t56.5 -47q47 -48 80 -121q26 -72 26 -144h1192zM1776 1216q-29 -62 -29 -133q0 -73 29 -134q13 -32 31.5 -60t40.5 -53q24 -24 51.5 -43t60.5 -33q62 -29 137 -29q38 0 71 6.5t64 19.5q33 14 60.5 33t51.5 43
q24 23 43.5 51.5t32.5 59.5q29 67 29 139q0 32 -5 62.5t-16 57.5q-19 54 -56 98q-18 23 -38.5 40.5t-42.5 34.5q-26 13 -51 25t-52 19q-19 7 -42 10t-49 3q-39 0 -73.5 -7t-66.5 -23q-63 -25 -110 -76q-23 -23 -40.5 -51.5t-30.5 -59.5zM816 560q7 14 7 24q0 7 -2 13t-5 14
q0 4 -5 8.5t-10 8.5q-3 4 -7.5 8t-10.5 5q-5 5 -11.5 6t-14.5 1h-69v-199h25v74h44q8 0 14.5 1t11.5 3q13 6 18 13q5 4 10 8.5t5 11.5zM965 648h-124v-199h124v24h-94v62h78v26h-78v59h94v28zM1160 449l-63 86q5 1 8.5 2t7.5 6q10 2 12 10q3 3 6 8l6 10v17q0 7 -0.5 12.5
t-3.5 11.5q-5 9 -13 17q-5 11 -19 12q-3 5 -9 6t-12 1h-72v-199h28v82h31l52 -71q2 -7 9 -9q2 -2 6 -2h7h19zM1296 483q1 6 2.5 11t1.5 11q0 17 -5 27t-15 17q-3 2 -4.5 3.5t-6.5 3.5q-1 1 -3.5 1.5t-4.5 2.5q-3 1 -5.5 1.5t-2.5 3.5q-7 0 -10 3q-8 2 -11 3.5t-8 3.5
q-8 2 -11 5q-6 4 -6 8v9v11l4 4t2 4q3 0 6 1.5l5 2.5q5 2 7.5 2.5t7.5 0.5q1 0 3.5 -1.5t4.5 -1.5q8 -1 10 -7q3 -1 5.5 -1.5t6.5 -0.5q10 0 15 5l9 4q-2 3 -4.5 4.5t-5.5 4.5l-6 6t-9 5q-3 1 -6.5 3t-8.5 4q-5 1 -8 2.5t-6 1.5q-6 0 -12.5 -1.5t-10.5 -2.5q-7 -2 -11 -5
t-9 -5q-4 -5 -8.5 -9t-6.5 -8q-1 -5 -2.5 -10t-1.5 -13q0 -7 0.5 -11.5t3.5 -9.5q2 -4 6 -8t6 -8l10 -6t10 -5q5 -3 9 -4.5t10 -4.5q3 -2 7.5 -2.5t7.5 -1.5q5 -1 7.5 -2.5t5.5 -2.5q3 -3 4 -5t5 -6q2 -4 2.5 -7t0.5 -8q0 -2 -0.5 -6t-3.5 -7t-4 -5.5t-4 -3.5q-3 -5 -7 -6.5
t-6 -3.5q-5 0 -8.5 -0.5t-6.5 -0.5q-6 0 -9 0.5t-6 0.5q-3 2 -6.5 3.5t-3.5 6.5l-4 1q-7 7 -15 7q-3 0 -6 -0.5t-6 -3.5l-7 -3q0 -4 2 -4q0 -4 5 -7q0 -4 4 -5q0 -2 2 -4q1 -1 2 -1q11 -9 22.5 -12.5t25.5 -3.5q6 0 12.5 0.5t12.5 3.5q5 1 12.5 4t10.5 8q5 4 9.5 8t6.5 12z
M1525 520q2 8 2.5 13.5t0.5 11.5q0 18 -3 30q-2 7 -5.5 12.5t-6.5 12.5q-5 9 -16 20q-4 4 -9.5 7.5t-12.5 9.5q-5 2 -10 5t-13 5q-6 1 -12.5 2.5t-14.5 1.5q-7 0 -13.5 -1.5t-12.5 -2.5q-8 -2 -13.5 -5t-10.5 -5q-6 -6 -11.5 -9.5t-10.5 -7.5q-5 -5 -9 -10t-7 -10
q-4 -7 -5.5 -12.5t-4.5 -12.5q-4 -11 -4 -30q0 -8 2.5 -18t6.5 -19q3 -10 8.5 -18.5t12.5 -16.5q8 -6 16.5 -11t17.5 -7q16 -8 38 -8h14.5t12.5 2q15 4 23 11q16 7 22 13q9 9 16 23q3 6 6.5 12t5.5 12zM1733 648h-26v-156q0 4 -1.5 7.5t-2.5 5.5l-96 135q-5 1 -10 7
q-3 0 -6 0.5t-6 0.5h-18v-199h26v167v-4l2 -2l2 -2v-4l116 -155h20v199zM1956 449l-87 199h-28l-88 -199h16q10 0 14 2q1 3 3 4.5t5 4.5l13 32h103l13 -32q2 -7 8 -9q1 -2 12 -2h16zM2089 473h-86v175h-28v-199h114v24zM2363 648h-27v-121q0 -8 -0.5 -12.5t-3.5 -10.5
q-1 -10 -12 -16q-3 -4 -7.5 -6.5t-8.5 -6.5q-5 -2 -9 -2.5t-11 -0.5q-13 0 -20 3q-6 4 -10.5 6.5t-6.5 6.5q-3 3 -6 7t-8 9q-1 6 -1.5 10.5t-0.5 12.5v121h-27v-121q0 -8 0.5 -13.5t2.5 -9.5q0 -10 6 -20q6 -11 15 -16q3 -3 6.5 -6t8.5 -6q3 -3 8.5 -4t9.5 -3
q6 -2 11.5 -3.5t11.5 -1.5q7 0 11 1.5t12 3.5q4 2 8.5 3t8.5 4q9 5 16 12q5 3 7.5 7t5.5 9q2 5 5 9.5t5 10.5v23v121zM2517 483q8 11 8 22q0 17 -5.5 27t-16.5 17q-6 4 -8 7q-3 1 -5.5 1.5t-5.5 2.5q-1 1 -4.5 1.5t-6.5 3.5q-1 0 -3.5 1t-5.5 2q-5 2 -7.5 3.5t-7.5 3.5
q-9 2 -10 5q-5 2 -6.5 3.5t-3.5 4.5q0 1 -0.5 3.5t-0.5 5.5q0 6 4 11q1 4 7 8q3 0 4.5 1.5t5.5 2.5q3 3 14 3q1 0 3.5 -1.5t5.5 -1.5q3 -3 11 -7q8 -2 12 -2q8 0 13 5l7 4q-2 3 -4.5 4.5t-5.5 4.5q-2 3 -5.5 6t-7.5 5q-3 1 -6.5 3t-8.5 4q-4 1 -8 2.5t-6 1.5q-6 0 -12 -1.5
t-12 -2.5q-5 -2 -10 -5t-9 -5q-4 -5 -7 -9l-6 -8q-3 -5 -5 -10t-2 -13q0 -7 2 -11.5t5 -9.5q4 -10 10 -16q5 -3 9 -6t9 -5q6 -3 11.5 -4.5t9.5 -4.5q5 -2 7.5 -2.5t5.5 -1.5l7.5 -2.5l7.5 -2.5l5 -5t3 -6q3 -4 3.5 -7t0.5 -8q0 -2 -0.5 -6t-3.5 -7q-2 -7 -9 -9
q-5 -5 -8 -6.5t-6 -3.5q-4 0 -7 -0.5t-6 -0.5q-4 0 -8.5 0.5t-7.5 0.5q-7 3 -12 10l-3 1q-7 7 -14 7q-2 0 -5.5 -0.5t-5.5 -3.5l-8 -3q1 -1 1.5 -2.5t2.5 -1.5q0 -2 1.5 -3.5t1.5 -3.5l2.5 -2.5t1.5 -2.5q5 -5 8 -5q8 -9 20 -12.5t25 -3.5q6 0 12.5 0.5t14.5 3.5q6 1 10.5 4
t10.5 8q4 4 7 8t6 12zM2681 648h-124v-199h124v24h-96v62h79v26h-79v59h96v28zM2997 520q2 8 2.5 13.5t0.5 11.5q0 8 -0.5 16t-2.5 14q-3 12 -10 25q-5 8 -18 20q-4 4 -8.5 7.5t-9.5 9.5q-6 2 -13 5t-13 5q-6 1 -12 2.5t-14 1.5t-14.5 -1.5t-12.5 -2.5q-15 -5 -25 -10
q-5 -6 -10.5 -9.5t-9.5 -7.5q-5 -5 -9 -10t-9 -10q-2 -7 -5 -12.5t-4 -12.5q-4 -11 -4 -30q0 -8 1.5 -18t6.5 -19q7 -20 23 -35q7 -6 15 -11t17 -7q16 -8 40 -8h14t12 2t13 4.5t13 6.5q5 3 9.5 6t8.5 7q12 10 18 23q7 11 10 24zM3207 648h-27v-156q-2 4 -3 7.5t-4 5.5
l-96 135q-1 1 -2 3t-4 4q-3 0 -7 0.5t-7 0.5h-20v-199h30v167q0 -4 1 -4v-4q0 -1 1 -2l2 -2l113 -155h23v199zM3371 473h-87v175h-28v-199h115v24zM3531 648h-22q-8 0 -13 -4q-8 -6 -9 -11l-48 -62q-1 -1 -1 -2q-1 -1 -3 -1v-3v3l-2 3l-46 62q-5 6 -11 11q-5 4 -13 4h-22
l74 -99q1 0 2 -4q0 -1 1 -1t2 -1v-4q0 -1 1 -2v-5v-83h30v83v5q1 0 1 6q2 0 4 2v3q0 1 1 1zM1983 787q-26 11 -50 26.5t-46 33.5h421q-21 -18 -45 -33.5t-50 -26.5q-28 -8 -57 -15.5t-59 -7.5q-31 0 -59.5 7.5t-54.5 15.5zM1921 880l411 416q39 -51 59.5 -104.5t20.5 -108.5
q0 -29 -4 -56.5t-15 -53.5q-9 -25 -22.5 -47.5t-30.5 -45.5h-419zM1860 871q-37 45 -59 97q-11 26 -14.5 55.5t-3.5 59.5q0 28 3.5 55t13.5 53q9 25 22.5 47.5t29.5 45.5h420zM2213 1377q26 -11 50 -26t44 -32h-423q47 38 99 58q50 22 114 22q62 0 116 -22zM531 116
q-5 5 -7 10t-4 11q-2 8 -3.5 13t-1.5 13q0 9 5 21q2 7 4 13.5t7 11.5q3 5 5.5 9.5t7.5 9.5q3 4 8 8t9 7q8 3 12.5 5t10.5 5q5 0 12 1.5t15 1.5q9 0 17 -2t19 -7q9 -3 16 -8t13 -11q-3 -4 -5 -4q0 -1 -1 -2t-2 -1q0 -1 -4 -1h-4q-7 0 -9 1q-5 2 -10 6t-10 5t-9.5 1h-10.5
q-8 0 -15.5 -0.5t-12.5 -1.5q-8 -5 -14 -9t-12 -9q-5 -5 -8.5 -10t-5.5 -12q-5 -8 -6 -15t-1 -13q0 -10 4 -19q2 -5 3 -9.5t2 -9.5q3 -4 6 -7t6 -7q6 -3 9.5 -6.5t8.5 -4.5q4 -2 7.5 -4.5t8.5 -4.5t10 -2h10h11t11 2t12.5 4.5t10.5 5.5v39h-15h-2q-1 0 -2 1l-4.5 3t-3.5 3
l-2.5 2.5t-1.5 2.5t-0.5 3t-0.5 4v1h52v-71q-4 -4 -6.5 -5.5t-6.5 -6.5q-8 -2 -16 -2q-9 -4 -19 -4h-17h-15t-12 1q-6 2 -10.5 4t-12.5 7q-4 2 -9 5t-8 9q-5 3 -7.5 8zM743 232v-59h73v-20h-73v-62h89v-19h-112v181h112v-21h-89zM912 72v160h-59v21h138v-21h-59v-160h-20z
M1125 232v-63h78v-18h-78v-79h-21v181h112v-21h-91zM1269 253v-112q0 -6 2 -10t5 -8q2 -8 5 -11t6 -8q3 -3 6.5 -5.5t7.5 -5.5q6 -3 11.5 -3.5t10.5 -0.5q6 0 10 0.5t8 3.5q6 3 10 5.5t9 5.5q2 5 5.5 8t5.5 11q5 6 5 18v112h20v-112q0 -8 -2 -14t-5 -14q-2 -7 -5.5 -12.5
t-8.5 -11.5q-5 -4 -11 -8t-12 -6q-15 -4 -29 -4q-15 0 -30 4q-5 2 -10.5 6t-10.5 8q-10 10 -16 24q-2 8 -4.5 14t-2.5 14v112h20zM1455 253v-162h81v-19h-103v181h22zM1577 253v-162h83v-19h-103v181h20zM1827 72l-80 181h10q7 0 11 -4q1 -2 3 -2.5t5 -3.5l57 -136v-7
q3 -3 3 -7v7q0 1 0.5 3t0.5 4q8 16 16 33t16 33q6 20 14 36.5t16 33.5q1 3 2.5 3.5t1.5 2.5q5 3 7 3.5t5 0.5h9q-9 -22 -19 -45t-21 -45q-9 -24 -18.5 -46.5t-18.5 -44.5h-20zM1960 232v-59h75v-20h-75v-62h89v-19h-109v181h109v-21h-89zM2184 156q-3 -3 -15 -5l62 -79h-14
q-3 0 -6.5 0.5t-3.5 2.5l-6 2t-5 6l-49 68h-34v-79h-20v181h66q6 0 9.5 -0.5t8.5 -3.5q10 -3 19 -10q3 -5 6 -9t5 -9q2 -4 2 -9.5v-8.5v-9.5t-2 -9.5q0 -5 -2.5 -9.5t-4.5 -6.5q-3 -3 -6.5 -6t-9.5 -6zM2159 169q8 0 10 2q3 2 6 3.5l5 2.5q3 3 4 5.5t4 5.5q0 3 1.5 6.5
t1.5 8.5q0 3 -1.5 5t-1.5 5q-3 3 -4 5.5t-4 5.5q-2 0 -5 2.5t-6 4.5q-2 1 -10 1h-46v-63h46zM2327 97q4 3 6 11q3 3 3.5 7.5t0.5 7.5q0 10 -1 14q-2 3 -4 5.5t-5 4.5q-3 4 -11 6q-5 0 -8 2t-8 4q-5 1 -9.5 3.5t-7.5 4.5q-12 2 -19 9q-2 1 -5 5t-6 7v19q0 7 0.5 11.5t2.5 9.5
q2 9 12 15q6 3 9.5 5t9.5 5q5 0 8.5 1.5t8.5 1.5q4 0 8.5 -1.5t7.5 -1.5t5.5 -2t6.5 -4q3 -2 5.5 -3.5t3.5 -3.5q5 -3 7 -5t4 -3l-5 -4q-3 -4 -11 -4h-9q-4 5 -4 7q-2 0 -3.5 0.5t-3.5 0.5h-2q-1 0 -2.5 0.5t-2.5 0.5h-5q-8 0 -11 -1q-9 0 -10 -4q-7 -7 -7 -11q-4 -1 -4 -10
q0 -7 4 -8q0 -7 4 -8q2 -2 5 -4.5t6 -2.5q4 -2 7.5 -3.5t9.5 -3.5q1 -1 4.5 -1.5t3.5 -2.5q3 0 5.5 -1t5.5 -3q2 -1 3 -1t1.5 -0.5t1.5 -0.5q2 0 4.5 -1.5t3.5 -2.5l8.5 -8.5t6.5 -7.5q4 -13 4 -24q0 -8 -1 -12.5t-6 -10.5q-1 -9 -12 -16q-4 -5 -9.5 -6.5t-8.5 -2.5
q-5 -3 -11.5 -3.5t-14.5 -0.5q-11 0 -21.5 3t-18.5 10q-3 1 -4 3.5t-6 5.5q0 3 -1.5 5t-1.5 3l3 3q2 0 2.5 1.5t3.5 1.5h3q4 0 6.5 -2t6.5 -4q5 -3 8 -5.5t7 -4.5q2 -2 6 -2h7q11 0 15 2q9 0 15 6zM2420 253v-181h-20v181h20zM2491 97q-14 12 -22 28q-6 18 -6 38
q0 5 0.5 10.5t1.5 10.5q5 15 10 25q7 10 16 19t18 15q5 3 11.5 5t11.5 5q6 0 12 1.5t12 1.5q7 0 14 -1.5t13 -1.5q5 -3 10.5 -5t10.5 -5t9.5 -7t9.5 -8q4 -5 6.5 -9.5t7.5 -9.5q5 -10 10 -25q1 -5 2.5 -10.5t1.5 -10.5q0 -9 -2.5 -19t-7.5 -19q-3 -9 -8 -16t-10 -12
q-8 -7 -15 -12.5t-17 -8.5q-10 -5 -35 -5q-9 0 -18 1t-18 4q-19 6 -29 21zM2491 191q-3 -8 -5 -15t-2 -13q0 -5 0.5 -9.5t2.5 -9.5q1 -9 8 -19q1 -4 3.5 -7t5.5 -7q4 -3 7.5 -6.5t8.5 -4.5q5 -2 9 -4.5t8 -4.5q5 -2 9.5 -2h9.5h10t10 2q5 2 9 4.5t8 4.5q3 1 7.5 4.5t7.5 6.5
q3 4 6 7t5 7q3 5 4 9.5t2 9.5q2 5 2.5 9.5t0.5 9.5q0 6 -1.5 13t-3.5 15q-2 7 -6.5 12t-8.5 10q-5 5 -11 9t-13 9q-6 1 -13 1.5t-15 0.5t-14.5 -0.5t-13.5 -1.5q-6 -5 -12 -9t-12 -9q-5 -5 -7.5 -10t-5.5 -12zM2704 72h-20v181h15q4 0 7.5 -0.5t6.5 -5.5l95 -134q1 -1 1 -5
q3 -3 3 -2v-2v149h20v-181h-16l-109 149v3h-3v7v-159zM2987 232v-63h74v-18h-74v-79h-22v181h111v-21h-89zM3192 156q-10 -4 -16 -5l57 -79h-12q-8 0 -12 3q-2 1 -3.5 2t-2.5 6l-51 68h-33v-79h-22v181h66q5 0 10 -0.5t11 -3.5q5 -2 9 -4.5t7 -5.5q3 -5 5.5 -9t7.5 -9
q0 -4 1.5 -9.5t1.5 -8.5q0 -5 -1.5 -9.5t-1.5 -9.5q-3 -5 -5 -9.5t-4 -6.5zM3176 171q3 2 4.5 3.5t3.5 2.5q7 7 8 11t1 15q0 6 -1 10t-8 11q-2 0 -3.5 2.5t-4.5 4.5q-5 1 -13 1h-44v-63h44q8 0 13 2zM3412 97q-7 -7 -14.5 -12.5t-16.5 -8.5q-7 -3 -15.5 -4t-18.5 -1
q-11 0 -20.5 1t-17.5 4q-17 6 -29 21q-6 5 -11.5 12t-8.5 16t-5 19t-2 19q0 5 0.5 10.5t2.5 10.5q1 7 3.5 13.5t4.5 11.5q4 5 8.5 9.5t7.5 9.5l10 8t10 7t11.5 5t11.5 5q6 0 11 1.5t13 1.5q5 0 11.5 -1.5t13.5 -1.5q6 -3 11 -5t9 -5q6 -3 11 -7t9 -8q4 -5 7 -9.5t6 -9.5
q7 -10 10 -25q3 -5 4 -10.5t1 -10.5q0 -9 -1.5 -19t-6.5 -19q-3 -9 -8.5 -16t-11.5 -12zM3347 89h9.5t10.5 2q4 2 7.5 4.5t6.5 4.5q5 1 9 4.5t9 6.5q3 4 5.5 7t4.5 7q2 5 4 9.5t3 9.5t1 9.5v9.5q0 6 -0.5 13t-1.5 15q-3 7 -8 12t-8 10q-8 5 -13.5 9t-10.5 9q-6 1 -13.5 1.5
t-14.5 0.5q-8 0 -15 -0.5t-13 -1.5q-8 -5 -13.5 -9t-9.5 -9q-7 -5 -10 -10t-6 -12q-3 -8 -3.5 -15t-0.5 -13v-19q2 -5 3.5 -9.5t4.5 -9.5q2 -4 5 -7l7 -7q3 -3 6 -6.5t7 -4.5q5 -2 9 -4.5t9 -4.5q4 -2 9.5 -2h10.5zM3644 249q3 3 5 3.5t4 0.5h16v-181h-18v149q0 -1 -3 -4v-1
v-3q-5 -10 -9 -21t-10 -19q-4 -10 -7.5 -17.5t-8.5 -18.5q-2 -9 -6 -17.5t-7 -15.5l-8.5 -17l-7.5 -15h-19q-11 16 -18 34t-15 35q-7 20 -15 37.5t-17 34.5v4q-3 3 -3 4v-149h-20v181h18q5 0 9 -4q3 -2 4 -2.5t1 -3.5l63 -142q0 -4 3 -4v-4q0 3 0.5 5.5t0.5 5.5q1 5 7 9
l54 130q2 3 3.5 3.5t3.5 2.5zM525 0h208v-25v-6t-1 -6q-1 -5 -3 -7l-5 -5l-139 -190h2l2 3h4h4h135v-48h-217v16q0 11 2 15q0 2 6 10q2 3 3 5.5t2 6.5q2 2 4.5 5t3.5 6l124 171h-135v49zM768 0h183v-49h-131v-67h105v-51h-105v-69h131v-48h-183v284zM1177 -49h-80v-235h-53
v235h-84v49h217v-49zM1307 0l122 -284h-30q-13 0 -22 5q-4 2 -6.5 7.5t-7.5 10.5l-15 37h-131l-14 -37q-2 -5 -3 -6t-4 -2q-2 -5 -3.5 -6.5t-4.5 -3.5q-3 -1 -5.5 -2.5t-5.5 -1.5q-1 -1 -4 -1h-5h-31l123 284h47zM1324 -173l-37 88q0 2 -1.5 4.5t-1.5 4.5q0 5 -1 8v-8
q0 -2 -1.5 -4.5t-2.5 -4.5l-36 -88h81zM1443 0h180v-49h-131v-74h109v-50h-109v-111h-49v284zM1911 -71q4 -7 7 -15t6 -18q3 -9 3.5 -18.5t0.5 -18.5q0 -11 -0.5 -20.5t-3.5 -18.5l-6 -18t-7 -18q-6 -6 -11.5 -14t-12.5 -14q-8 -7 -14 -12.5t-14 -10.5q-9 -7 -17.5 -10
t-17.5 -6q-11 -1 -20.5 -2.5t-19.5 -1.5q-15 0 -28.5 3t-27.5 8q-14 6 -25 14t-22 18q-19 20 -29 45q-6 14 -9 27.5t-3 30.5q0 9 1 18.5t3 18.5q6 21 16 33q5 11 10 17.5t11 13.5q8 6 15 11.5t17 11.5q6 4 14.5 8t19.5 6q8 2 17 4t20 2q10 0 19.5 -2t20.5 -4q9 -2 17.5 -6
t17.5 -8q8 -6 14 -11.5t14 -11.5q7 -7 12.5 -13.5t11.5 -17.5zM1871 -177q3 8 4.5 17.5t1.5 18.5q0 16 -6 34q-3 11 -8.5 17.5t-13.5 13.5q-6 6 -13 11t-16 8q-15 8 -36 8q-20 0 -37 -8q-6 -3 -13.5 -8t-13.5 -11q-8 -7 -12.5 -13.5t-8.5 -17.5q-5 -9 -6 -17t-1 -17t1 -18.5
t6 -17.5q4 -11 8.5 -18t12.5 -12q6 -7 13.5 -11.5t13.5 -9.5q10 -3 19 -5.5t18 -2.5q10 0 19 2.5t17 5.5q9 5 16 9.5t13 11.5q8 5 13.5 12t8.5 18zM2167 0h50v-284h-48l-134 191q-2 2 -2.5 3t-1.5 2q-4 5 -4 8q-4 2 -4 5q-2 2 -3 3.5t-3 3.5v-216h-52v284h47q4 0 9 -1.5
t7 -2.5q5 -1 7.5 -3t4.5 -5q15 -21 29.5 -42t27.5 -43q17 -20 31 -40.5t31 -39.5q1 -3 2.5 -6t2.5 -8q0 -2 1.5 -5t1.5 -4v200zM2243 0h217v-49h-84v-235h-52v235h-81v49zM2637 -147q5 -4 8.5 -9.5t6.5 -11.5q1 -6 2.5 -12.5t1.5 -15.5q0 -18 -8 -36q-5 -9 -9.5 -16
t-13.5 -13q-7 -6 -14 -11t-18 -8q-8 -3 -18 -5t-19 -2q-10 0 -19.5 2t-21.5 5q-8 3 -15.5 9t-15.5 14q-5 3 -8.5 7.5t-6.5 9.5q-4 4 -6 16q1 0 2 1.5t4 2.5q2 0 3 1.5t3 2.5q4 0 6 1.5t3 1.5h11q2 0 5 -0.5t5 -2.5q7 0 12 -4q6 -3 10.5 -6t8.5 -5q3 -1 8.5 -3t11.5 -2
q3 0 7.5 0.5t8.5 3.5q10 2 16 8q7 4 12 11q3 5 5 8.5t2 8.5q0 10 -7 15q-6 8 -12 8q-3 4 -7.5 5.5t-8.5 3.5q-8 2 -19 8q-7 2 -13.5 4t-12.5 5q-9 5 -15 8.5t-12 9.5q-6 4 -10 9.5t-7 11.5q-8 15 -8 32q0 22 8 33q4 8 9 14t11 12q7 4 13.5 8t15.5 6q8 2 15 4t18 2q5 0 11 -2
l12 -4q7 -1 11 -3.5t12 -5.5q4 -3 8.5 -7.5l8.5 -8.5q4 -3 8.5 -7t7.5 -9l-11 -7q-3 -2 -6.5 -4.5t-6.5 -4.5q-5 -1 -8 -1h-8h-3h-4q-8 2 -9 4q-5 1 -8 4q-3 0 -4.5 1t-3.5 1q-4 2 -7 2q-12 0 -16 -2q-4 0 -5.5 -1.5t-6.5 -3.5q-4 -2 -6 -9q-3 -3 -3 -11t3 -9q1 -3 3 -5
t3 -7q5 0 8.5 -1.5t7.5 -2.5q6 -2 12.5 -5t11.5 -5l11 -2q7 -5 14.5 -8t13.5 -7q12 -5 21 -19zM2724 -236q6 0 8 -8q1 -2 1 -6v-6q0 -8 -1 -12q-2 -6 -8 -11q-5 -2 -8 -5q-2 -2 -6 -2.5t-7 -0.5t-6.5 0.5t-4.5 2.5q-3 1 -6 2.5t-6 2.5q-2 2 -3.5 5t-3.5 6q-2 4 -2 12v6t2 6
q2 3 3.5 5.5t3.5 2.5q6 8 12 8q1 3 4.5 3.5t6.5 0.5t7 -0.5t6 -3.5q3 0 8 -8zM2832 -76q-10 -12 -20 -31q-3 -9 -5.5 -17t-2.5 -17t2.5 -18.5t5.5 -17.5q5 -11 9.5 -18t10.5 -12q7 -7 13.5 -11.5t17.5 -9.5q9 -3 18 -5.5t18 -2.5q8 0 14 2t12 3q6 2 13 5.5t13 8.5q5 1 9 4h9
q5 0 10 -0.5t8 -2.5q7 -2 10 -8l11 -12q-9 -12 -21 -20q-9 -4 -15.5 -8.5t-14.5 -7.5q-6 -5 -13.5 -7t-15.5 -4q-6 -3 -13.5 -3.5t-15.5 -0.5q-17 0 -30.5 3t-27.5 8q-27 13 -45 32q-20 20 -32 45q-5 14 -8 27.5t-3 30.5q0 9 1.5 18.5t2.5 18.5q3 10 6 18t9 15
q6 11 11.5 17.5t12.5 13.5q6 6 14.5 11.5t16.5 11.5q7 4 15 8t18 6q9 2 18.5 4t20.5 2q8 0 15.5 -0.5t13.5 -5.5q8 -1 15.5 -3.5t13.5 -5.5q8 -3 14.5 -7.5t15.5 -8.5q13 -11 21 -21l-11 -12q-2 -5 -4.5 -6.5t-5.5 -3.5q-5 -1 -9 -1h-9t-9.5 1t-8.5 4q-6 5 -13 8t-13 6
q-6 2 -12 3t-14 1q-20 0 -36 -8q-11 -3 -17.5 -8t-13.5 -11zM3297 -71q5 -7 8.5 -15t6.5 -18q3 -9 3.5 -18.5t0.5 -18.5q0 -11 -0.5 -20.5t-3.5 -18.5t-6.5 -18t-8.5 -18q-7 -14 -21 -28q-9 -7 -16 -12.5t-16 -10.5q-8 -7 -16 -10t-19 -6q-8 -1 -18 -2.5t-20 -1.5
q-28 0 -55 11q-14 6 -25 14t-20 18q-11 10 -19 21t-12 24q-6 14 -9 27.5t-3 30.5q0 9 1.5 18.5t2.5 18.5q3 10 7.5 18t8.5 15q4 11 9.5 17.5t13.5 13.5q5 6 12.5 11.5t16.5 11.5q8 4 16.5 8t16.5 6q11 2 20 4t18 2q10 0 20 -2t18 -4q11 -2 19 -6l16 -8q9 -6 16 -11.5
t16 -11.5q6 -7 12 -13.5t9 -17.5zM3257 -177q7 17 7 36q0 9 -2 17t-5 17q-3 11 -7.5 17.5t-10.5 13.5q-13 13 -32 19q-6 5 -16 6.5t-20 1.5q-19 0 -34 -8q-9 -3 -16 -8t-14 -11q-8 -7 -12.5 -13.5t-9.5 -17.5q-2 -9 -3.5 -17t-1.5 -17t1.5 -18.5t3.5 -17.5q9 -21 22 -30
q7 -7 14 -11.5t16 -9.5q8 -3 17 -5.5t17 -2.5q10 0 20 2.5t16 5.5q10 5 18 9.5t14 11.5q13 11 18 30zM3608 -3q3 0 4.5 1.5t6.5 1.5h50v-284h-50v208q-2 -3 -3 -6t-3 -7q-1 -6 -1 -9t-1 -6q-11 -22 -20 -44.5t-19 -44.5q-9 -23 -18 -45.5t-18 -45.5h-48l-73 180q-4 5 -4 15
q-2 3 -3 5t-1 5v-205h-54v284h50q5 0 7.5 -1.5t5.5 -1.5q3 -1 4.5 -1t4.5 -1l8 -8q2 -2 4 -5t3 -5q8 -21 16.5 -42.5t16.5 -42.5q8 -22 17 -43.5t18 -41.5q0 -2 0.5 -4t0.5 -3v-7q3 0 3 -6q0 6 1 6v7q0 1 1 3t1 4l12 20l57 150l2.5 5l2.5 5q2 3 5 4.5t3 3.5q3 1 5.5 1t5.5 1
z" />
    <glyph glyph-name="three" unicode="3" horiz-adv-x="4097" 
d="M2952 600q4 -5 8.5 -11t7.5 -13q3 -6 4 -14t1 -17q0 -14 -5 -28q-3 -6 -7.5 -11t-8.5 -11q-6 -5 -12.5 -9t-11.5 -9q-14 -5 -29 -5q-8 0 -15.5 1t-12.5 4q-8 5 -14 9t-10 9q-5 6 -9.5 11t-6.5 11q-3 8 -5 15t-2 13q0 17 7 31q2 7 6.5 13t9.5 11q4 6 10 9.5t14 6.5
q10 7 28 7q8 0 14.5 -2t14.5 -5q5 -3 11.5 -6.5t12.5 -9.5zM1108 576q-1 -1 -7 -9q-3 -2 -4 -4t-6 -3q-3 -3 -11 -3h-44v63h44q7 0 11 -4q5 0 6 -1.5t4 -3.5q5 -6 7 -10q3 -4 3 -13q0 -8 -3 -12zM1477 600q5 -5 10 -11t8 -13q2 -6 3.5 -14t1.5 -17q0 -6 -1.5 -13t-3.5 -15
q-3 -6 -8 -11t-10 -11q-4 -5 -9.5 -9t-12.5 -9q-6 -3 -14 -4t-16 -1q-15 0 -29 5q-6 5 -12 9t-12 9q-4 6 -8.5 11t-7.5 11q-3 8 -5 15t-2 13q0 17 7 31q3 7 7.5 13t8.5 11q6 6 12 9.5t12 6.5q8 3 15 5t14 2q16 0 30 -7q7 -3 12.5 -6.5t9.5 -9.5zM1853 616q0 -4 1.5 -7
t1.5 -5l37 -84h-77l36 84q0 3 1 4v8zM784 611q2 -3 3 -7t4 -7q2 -4 2 -13v-6.5t-2 -6.5q-3 -3 -4 -6.5t-3 -4.5q-6 -6 -12 -9t-15 -3h-44v72h44q10 0 15 -4q3 0 6 -2t6 -3zM3669 1084v-765h-3144v765h1191q0 40 7 77.5t24 71.5q16 35 35.5 66.5t48.5 56.5q50 51 120 79
q35 16 71 23t75 7q42 0 79.5 -7.5t70.5 -24.5q37 -16 67.5 -37t56.5 -47q47 -48 80 -121q26 -72 26 -144h1192zM1776 1216q-29 -62 -29 -133q0 -73 29 -134q13 -32 31.5 -60t40.5 -53q24 -24 51.5 -43t60.5 -33q62 -29 137 -29q38 0 71 6.5t64 19.5q33 14 60.5 33t51.5 43
q24 23 43.5 51.5t32.5 59.5q29 67 29 139q0 32 -5 62.5t-16 57.5q-19 54 -56 98q-18 23 -38.5 40.5t-42.5 34.5q-26 13 -51 25t-52 19q-19 7 -42 10t-49 3q-39 0 -73.5 -7t-66.5 -23q-63 -25 -110 -76q-23 -23 -40.5 -51.5t-30.5 -59.5zM816 560q7 14 7 24q0 7 -2 13t-5 14
q0 4 -5 8.5t-10 8.5q-3 4 -7.5 8t-10.5 5q-5 5 -11.5 6t-14.5 1h-69v-199h25v74h44q8 0 14.5 1t11.5 3q13 6 18 13q5 4 10 8.5t5 11.5zM965 648h-124v-199h124v24h-94v62h78v26h-78v59h94v28zM1160 449l-63 86q5 1 8.5 2t7.5 6q10 2 12 10q3 3 6 8l6 10v17q0 7 -0.5 12.5
t-3.5 11.5q-5 9 -13 17q-5 11 -19 12q-3 5 -9 6t-12 1h-72v-199h28v82h31l52 -71q2 -7 9 -9q2 -2 6 -2h7h19zM1296 483q1 6 2.5 11t1.5 11q0 17 -5 27t-15 17q-3 2 -4.5 3.5t-6.5 3.5q-1 1 -3.5 1.5t-4.5 2.5q-3 1 -5.5 1.5t-2.5 3.5q-7 0 -10 3q-8 2 -11 3.5t-8 3.5
q-8 2 -11 5q-6 4 -6 8v9v11l4 4t2 4q3 0 6 1.5l5 2.5q5 2 7.5 2.5t7.5 0.5q1 0 3.5 -1.5t4.5 -1.5q8 -1 10 -7q3 -1 5.5 -1.5t6.5 -0.5q10 0 15 5l9 4q-2 3 -4.5 4.5t-5.5 4.5l-6 6t-9 5q-3 1 -6.5 3t-8.5 4q-5 1 -8 2.5t-6 1.5q-6 0 -12.5 -1.5t-10.5 -2.5q-7 -2 -11 -5
t-9 -5q-4 -5 -8.5 -9t-6.5 -8q-1 -5 -2.5 -10t-1.5 -13q0 -7 0.5 -11.5t3.5 -9.5q2 -4 6 -8t6 -8l10 -6t10 -5q5 -3 9 -4.5t10 -4.5q3 -2 7.5 -2.5t7.5 -1.5q5 -1 7.5 -2.5t5.5 -2.5q3 -3 4 -5t5 -6q2 -4 2.5 -7t0.5 -8q0 -2 -0.5 -6t-3.5 -7t-4 -5.5t-4 -3.5q-3 -5 -7 -6.5
t-6 -3.5q-5 0 -8.5 -0.5t-6.5 -0.5q-6 0 -9 0.5t-6 0.5q-3 2 -6.5 3.5t-3.5 6.5l-4 1q-7 7 -15 7q-3 0 -6 -0.5t-6 -3.5l-7 -3q0 -4 2 -4q0 -4 5 -7q0 -4 4 -5q0 -2 2 -4q1 -1 2 -1q11 -9 22.5 -12.5t25.5 -3.5q6 0 12.5 0.5t12.5 3.5q5 1 12.5 4t10.5 8q5 4 9.5 8t6.5 12z
M1525 520q2 8 2.5 13.5t0.5 11.5q0 18 -3 30q-2 7 -5.5 12.5t-6.5 12.5q-5 9 -16 20q-4 4 -9.5 7.5t-12.5 9.5q-5 2 -10 5t-13 5q-6 1 -12.5 2.5t-14.5 1.5q-7 0 -13.5 -1.5t-12.5 -2.5q-8 -2 -13.5 -5t-10.5 -5q-6 -6 -11.5 -9.5t-10.5 -7.5q-5 -5 -9 -10t-7 -10
q-4 -7 -5.5 -12.5t-4.5 -12.5q-4 -11 -4 -30q0 -8 2.5 -18t6.5 -19q3 -10 8.5 -18.5t12.5 -16.5q8 -6 16.5 -11t17.5 -7q16 -8 38 -8h14.5t12.5 2q15 4 23 11q16 7 22 13q9 9 16 23q3 6 6.5 12t5.5 12zM1733 648h-26v-156q0 4 -1.5 7.5t-2.5 5.5l-96 135q-5 1 -10 7
q-3 0 -6 0.5t-6 0.5h-18v-199h26v167v-4l2 -2l2 -2v-4l116 -155h20v199zM1956 449l-87 199h-28l-88 -199h16q10 0 14 2q1 3 3 4.5t5 4.5l13 32h103l13 -32q2 -7 8 -9q1 -2 12 -2h16zM2089 473h-86v175h-28v-199h114v24zM2363 648h-27v-121q0 -8 -0.5 -12.5t-3.5 -10.5
q-1 -10 -12 -16q-3 -4 -7.5 -6.5t-8.5 -6.5q-5 -2 -9 -2.5t-11 -0.5q-13 0 -20 3q-6 4 -10.5 6.5t-6.5 6.5q-3 3 -6 7t-8 9q-1 6 -1.5 10.5t-0.5 12.5v121h-27v-121q0 -8 0.5 -13.5t2.5 -9.5q0 -10 6 -20q6 -11 15 -16q3 -3 6.5 -6t8.5 -6q3 -3 8.5 -4t9.5 -3
q6 -2 11.5 -3.5t11.5 -1.5q7 0 11 1.5t12 3.5q4 2 8.5 3t8.5 4q9 5 16 12q5 3 7.5 7t5.5 9q2 5 5 9.5t5 10.5v23v121zM2517 483q8 11 8 22q0 17 -5.5 27t-16.5 17q-6 4 -8 7q-3 1 -5.5 1.5t-5.5 2.5q-1 1 -4.5 1.5t-6.5 3.5q-1 0 -3.5 1t-5.5 2q-5 2 -7.5 3.5t-7.5 3.5
q-9 2 -10 5q-5 2 -6.5 3.5t-3.5 4.5q0 1 -0.5 3.5t-0.5 5.5q0 6 4 11q1 4 7 8q3 0 4.5 1.5t5.5 2.5q3 3 14 3q1 0 3.5 -1.5t5.5 -1.5q3 -3 11 -7q8 -2 12 -2q8 0 13 5l7 4q-2 3 -4.5 4.5t-5.5 4.5q-2 3 -5.5 6t-7.5 5q-3 1 -6.5 3t-8.5 4q-4 1 -8 2.5t-6 1.5q-6 0 -12 -1.5
t-12 -2.5q-5 -2 -10 -5t-9 -5q-4 -5 -7 -9l-6 -8q-3 -5 -5 -10t-2 -13q0 -7 2 -11.5t5 -9.5q4 -10 10 -16q5 -3 9 -6t9 -5q6 -3 11.5 -4.5t9.5 -4.5q5 -2 7.5 -2.5t5.5 -1.5l7.5 -2.5l7.5 -2.5l5 -5t3 -6q3 -4 3.5 -7t0.5 -8q0 -2 -0.5 -6t-3.5 -7q-2 -7 -9 -9
q-5 -5 -8 -6.5t-6 -3.5q-4 0 -7 -0.5t-6 -0.5q-4 0 -8.5 0.5t-7.5 0.5q-7 3 -12 10l-3 1q-7 7 -14 7q-2 0 -5.5 -0.5t-5.5 -3.5l-8 -3q1 -1 1.5 -2.5t2.5 -1.5q0 -2 1.5 -3.5t1.5 -3.5l2.5 -2.5t1.5 -2.5q5 -5 8 -5q8 -9 20 -12.5t25 -3.5q6 0 12.5 0.5t14.5 3.5q6 1 10.5 4
t10.5 8q4 4 7 8t6 12zM2681 648h-124v-199h124v24h-96v62h79v26h-79v59h96v28zM2997 520q2 8 2.5 13.5t0.5 11.5q0 8 -0.5 16t-2.5 14q-3 12 -10 25q-5 8 -18 20q-4 4 -8.5 7.5t-9.5 9.5q-6 2 -13 5t-13 5q-6 1 -12 2.5t-14 1.5t-14.5 -1.5t-12.5 -2.5q-15 -5 -25 -10
q-5 -6 -10.5 -9.5t-9.5 -7.5q-5 -5 -9 -10t-9 -10q-2 -7 -5 -12.5t-4 -12.5q-4 -11 -4 -30q0 -8 1.5 -18t6.5 -19q7 -20 23 -35q7 -6 15 -11t17 -7q16 -8 40 -8h14t12 2t13 4.5t13 6.5q5 3 9.5 6t8.5 7q12 10 18 23q7 11 10 24zM3207 648h-27v-156q-2 4 -3 7.5t-4 5.5
l-96 135q-1 1 -2 3t-4 4q-3 0 -7 0.5t-7 0.5h-20v-199h30v167q0 -4 1 -4v-4q0 -1 1 -2l2 -2l113 -155h23v199zM3371 473h-87v175h-28v-199h115v24zM3531 648h-22q-8 0 -13 -4q-8 -6 -9 -11l-48 -62q-1 -1 -1 -2q-1 -1 -3 -1v-3v3l-2 3l-46 62q-5 6 -11 11q-5 4 -13 4h-22
l74 -99q1 0 2 -4q0 -1 1 -1t2 -1v-4q0 -1 1 -2v-5v-83h30v83v5q1 0 1 6q2 0 4 2v3q0 1 1 1zM1983 787q-26 11 -50 26.5t-46 33.5h421q-21 -18 -45 -33.5t-50 -26.5q-28 -8 -57 -15.5t-59 -7.5q-31 0 -59.5 7.5t-54.5 15.5zM1921 880l411 416q39 -51 59.5 -104.5t20.5 -108.5
q0 -29 -4 -56.5t-15 -53.5q-9 -25 -22.5 -47.5t-30.5 -45.5h-419zM1860 871q-37 45 -59 97q-11 26 -14.5 55.5t-3.5 59.5q0 28 3.5 55t13.5 53q9 25 22.5 47.5t29.5 45.5h420zM2213 1377q26 -11 50 -26t44 -32h-423q47 38 99 58q50 22 114 22q62 0 116 -22zM531 116
q-5 5 -7 10t-4 11q-2 8 -3.5 13t-1.5 13q0 9 5 21q2 7 4 13.5t7 11.5q3 5 5.5 9.5t7.5 9.5q3 4 8 8t9 7q8 3 12.5 5t10.5 5q5 0 12 1.5t15 1.5q9 0 17 -2t19 -7q9 -3 16 -8t13 -11q-3 -4 -5 -4q0 -1 -1 -2t-2 -1q0 -1 -4 -1h-4q-7 0 -9 1q-5 2 -10 6t-10 5t-9.5 1h-10.5
q-8 0 -15.5 -0.5t-12.5 -1.5q-8 -5 -14 -9t-12 -9q-5 -5 -8.5 -10t-5.5 -12q-5 -8 -6 -15t-1 -13q0 -10 4 -19q2 -5 3 -9.5t2 -9.5q3 -4 6 -7t6 -7q6 -3 9.5 -6.5t8.5 -4.5q4 -2 7.5 -4.5t8.5 -4.5t10 -2h10h11t11 2t12.5 4.5t10.5 5.5v39h-15h-2q-1 0 -2 1l-4.5 3t-3.5 3
l-2.5 2.5t-1.5 2.5t-0.5 3t-0.5 4v1h52v-71q-4 -4 -6.5 -5.5t-6.5 -6.5q-8 -2 -16 -2q-9 -4 -19 -4h-17h-15t-12 1q-6 2 -10.5 4t-12.5 7q-4 2 -9 5t-8 9q-5 3 -7.5 8zM743 232v-59h73v-20h-73v-62h89v-19h-112v181h112v-21h-89zM912 72v160h-59v21h138v-21h-59v-160h-20z
M1125 232v-63h78v-18h-78v-79h-21v181h112v-21h-91zM1269 253v-112q0 -6 2 -10t5 -8q2 -8 5 -11t6 -8q3 -3 6.5 -5.5t7.5 -5.5q6 -3 11.5 -3.5t10.5 -0.5q6 0 10 0.5t8 3.5q6 3 10 5.5t9 5.5q2 5 5.5 8t5.5 11q5 6 5 18v112h20v-112q0 -8 -2 -14t-5 -14q-2 -7 -5.5 -12.5
t-8.5 -11.5q-5 -4 -11 -8t-12 -6q-15 -4 -29 -4q-15 0 -30 4q-5 2 -10.5 6t-10.5 8q-10 10 -16 24q-2 8 -4.5 14t-2.5 14v112h20zM1455 253v-162h81v-19h-103v181h22zM1577 253v-162h83v-19h-103v181h20zM1827 72l-80 181h10q7 0 11 -4q1 -2 3 -2.5t5 -3.5l57 -136v-7
q3 -3 3 -7v7q0 1 0.5 3t0.5 4q8 16 16 33t16 33q6 20 14 36.5t16 33.5q1 3 2.5 3.5t1.5 2.5q5 3 7 3.5t5 0.5h9q-9 -22 -19 -45t-21 -45q-9 -24 -18.5 -46.5t-18.5 -44.5h-20zM1960 232v-59h75v-20h-75v-62h89v-19h-109v181h109v-21h-89zM2184 156q-3 -3 -15 -5l62 -79h-14
q-3 0 -6.5 0.5t-3.5 2.5l-6 2t-5 6l-49 68h-34v-79h-20v181h66q6 0 9.5 -0.5t8.5 -3.5q10 -3 19 -10q3 -5 6 -9t5 -9q2 -4 2 -9.5v-8.5v-9.5t-2 -9.5q0 -5 -2.5 -9.5t-4.5 -6.5q-3 -3 -6.5 -6t-9.5 -6zM2159 169q8 0 10 2q3 2 6 3.5l5 2.5q3 3 4 5.5t4 5.5q0 3 1.5 6.5
t1.5 8.5q0 3 -1.5 5t-1.5 5q-3 3 -4 5.5t-4 5.5q-2 0 -5 2.5t-6 4.5q-2 1 -10 1h-46v-63h46zM2327 97q4 3 6 11q3 3 3.5 7.5t0.5 7.5q0 10 -1 14q-2 3 -4 5.5t-5 4.5q-3 4 -11 6q-5 0 -8 2t-8 4q-5 1 -9.5 3.5t-7.5 4.5q-12 2 -19 9q-2 1 -5 5t-6 7v19q0 7 0.5 11.5t2.5 9.5
q2 9 12 15q6 3 9.5 5t9.5 5q5 0 8.5 1.5t8.5 1.5q4 0 8.5 -1.5t7.5 -1.5t5.5 -2t6.5 -4q3 -2 5.5 -3.5t3.5 -3.5q5 -3 7 -5t4 -3l-5 -4q-3 -4 -11 -4h-9q-4 5 -4 7q-2 0 -3.5 0.5t-3.5 0.5h-2q-1 0 -2.5 0.5t-2.5 0.5h-5q-8 0 -11 -1q-9 0 -10 -4q-7 -7 -7 -11q-4 -1 -4 -10
q0 -7 4 -8q0 -7 4 -8q2 -2 5 -4.5t6 -2.5q4 -2 7.5 -3.5t9.5 -3.5q1 -1 4.5 -1.5t3.5 -2.5q3 0 5.5 -1t5.5 -3q2 -1 3 -1t1.5 -0.5t1.5 -0.5q2 0 4.5 -1.5t3.5 -2.5l8.5 -8.5t6.5 -7.5q4 -13 4 -24q0 -8 -1 -12.5t-6 -10.5q-1 -9 -12 -16q-4 -5 -9.5 -6.5t-8.5 -2.5
q-5 -3 -11.5 -3.5t-14.5 -0.5q-11 0 -21.5 3t-18.5 10q-3 1 -4 3.5t-6 5.5q0 3 -1.5 5t-1.5 3l3 3q2 0 2.5 1.5t3.5 1.5h3q4 0 6.5 -2t6.5 -4q5 -3 8 -5.5t7 -4.5q2 -2 6 -2h7q11 0 15 2q9 0 15 6zM2420 253v-181h-20v181h20zM2491 97q-14 12 -22 28q-6 18 -6 38
q0 5 0.5 10.5t1.5 10.5q5 15 10 25q7 10 16 19t18 15q5 3 11.5 5t11.5 5q6 0 12 1.5t12 1.5q7 0 14 -1.5t13 -1.5q5 -3 10.5 -5t10.5 -5t9.5 -7t9.5 -8q4 -5 6.5 -9.5t7.5 -9.5q5 -10 10 -25q1 -5 2.5 -10.5t1.5 -10.5q0 -9 -2.5 -19t-7.5 -19q-3 -9 -8 -16t-10 -12
q-8 -7 -15 -12.5t-17 -8.5q-10 -5 -35 -5q-9 0 -18 1t-18 4q-19 6 -29 21zM2491 191q-3 -8 -5 -15t-2 -13q0 -5 0.5 -9.5t2.5 -9.5q1 -9 8 -19q1 -4 3.5 -7t5.5 -7q4 -3 7.5 -6.5t8.5 -4.5q5 -2 9 -4.5t8 -4.5q5 -2 9.5 -2h9.5h10t10 2q5 2 9 4.5t8 4.5q3 1 7.5 4.5t7.5 6.5
q3 4 6 7t5 7q3 5 4 9.5t2 9.5q2 5 2.5 9.5t0.5 9.5q0 6 -1.5 13t-3.5 15q-2 7 -6.5 12t-8.5 10q-5 5 -11 9t-13 9q-6 1 -13 1.5t-15 0.5t-14.5 -0.5t-13.5 -1.5q-6 -5 -12 -9t-12 -9q-5 -5 -7.5 -10t-5.5 -12zM2704 72h-20v181h15q4 0 7.5 -0.5t6.5 -5.5l95 -134q1 -1 1 -5
q3 -3 3 -2v-2v149h20v-181h-16l-109 149v3h-3v7v-159zM2987 232v-63h74v-18h-74v-79h-22v181h111v-21h-89zM3192 156q-10 -4 -16 -5l57 -79h-12q-8 0 -12 3q-2 1 -3.5 2t-2.5 6l-51 68h-33v-79h-22v181h66q5 0 10 -0.5t11 -3.5q5 -2 9 -4.5t7 -5.5q3 -5 5.5 -9t7.5 -9
q0 -4 1.5 -9.5t1.5 -8.5q0 -5 -1.5 -9.5t-1.5 -9.5q-3 -5 -5 -9.5t-4 -6.5zM3176 171q3 2 4.5 3.5t3.5 2.5q7 7 8 11t1 15q0 6 -1 10t-8 11q-2 0 -3.5 2.5t-4.5 4.5q-5 1 -13 1h-44v-63h44q8 0 13 2zM3412 97q-7 -7 -14.5 -12.5t-16.5 -8.5q-7 -3 -15.5 -4t-18.5 -1
q-11 0 -20.5 1t-17.5 4q-17 6 -29 21q-6 5 -11.5 12t-8.5 16t-5 19t-2 19q0 5 0.5 10.5t2.5 10.5q1 7 3.5 13.5t4.5 11.5q4 5 8.5 9.5t7.5 9.5l10 8t10 7t11.5 5t11.5 5q6 0 11 1.5t13 1.5q5 0 11.5 -1.5t13.5 -1.5q6 -3 11 -5t9 -5q6 -3 11 -7t9 -8q4 -5 7 -9.5t6 -9.5
q7 -10 10 -25q3 -5 4 -10.5t1 -10.5q0 -9 -1.5 -19t-6.5 -19q-3 -9 -8.5 -16t-11.5 -12zM3347 89h9.5t10.5 2q4 2 7.5 4.5t6.5 4.5q5 1 9 4.5t9 6.5q3 4 5.5 7t4.5 7q2 5 4 9.5t3 9.5t1 9.5v9.5q0 6 -0.5 13t-1.5 15q-3 7 -8 12t-8 10q-8 5 -13.5 9t-10.5 9q-6 1 -13.5 1.5
t-14.5 0.5q-8 0 -15 -0.5t-13 -1.5q-8 -5 -13.5 -9t-9.5 -9q-7 -5 -10 -10t-6 -12q-3 -8 -3.5 -15t-0.5 -13v-19q2 -5 3.5 -9.5t4.5 -9.5q2 -4 5 -7l7 -7q3 -3 6 -6.5t7 -4.5q5 -2 9 -4.5t9 -4.5q4 -2 9.5 -2h10.5zM3644 249q3 3 5 3.5t4 0.5h16v-181h-18v149q0 -1 -3 -4v-1
v-3q-5 -10 -9 -21t-10 -19q-4 -10 -7.5 -17.5t-8.5 -18.5q-2 -9 -6 -17.5t-7 -15.5l-8.5 -17l-7.5 -15h-19q-11 16 -18 34t-15 35q-7 20 -15 37.5t-17 34.5v4q-3 3 -3 4v-149h-20v181h18q5 0 9 -4q3 -2 4 -2.5t1 -3.5l63 -142q0 -4 3 -4v-4q0 3 0.5 5.5t0.5 5.5q1 5 7 9
l54 130q2 3 3.5 3.5t3.5 2.5zM525 0h208v-25v-6t-1 -6q-1 -5 -3 -7l-5 -5l-139 -190h2l2 3h4h4h135v-48h-217v16q0 11 2 15q0 2 6 10q2 3 3 5.5t2 6.5q2 2 4.5 5t3.5 6l124 171h-135v49zM768 0h183v-49h-131v-67h105v-51h-105v-69h131v-48h-183v284zM1177 -49h-80v-235h-53
v235h-84v49h217v-49zM1307 0l122 -284h-30q-13 0 -22 5q-4 2 -6.5 7.5t-7.5 10.5l-15 37h-131l-14 -37q-2 -5 -3 -6t-4 -2q-2 -5 -3.5 -6.5t-4.5 -3.5q-3 -1 -5.5 -2.5t-5.5 -1.5q-1 -1 -4 -1h-5h-31l123 284h47zM1324 -173l-37 88q0 2 -1.5 4.5t-1.5 4.5q0 5 -1 8v-8
q0 -2 -1.5 -4.5t-2.5 -4.5l-36 -88h81zM1443 0h180v-49h-131v-74h109v-50h-109v-111h-49v284zM1911 -71q4 -7 7 -15t6 -18q3 -9 3.5 -18.5t0.5 -18.5q0 -11 -0.5 -20.5t-3.5 -18.5l-6 -18t-7 -18q-6 -6 -11.5 -14t-12.5 -14q-8 -7 -14 -12.5t-14 -10.5q-9 -7 -17.5 -10
t-17.5 -6q-11 -1 -20.5 -2.5t-19.5 -1.5q-15 0 -28.5 3t-27.5 8q-14 6 -25 14t-22 18q-19 20 -29 45q-6 14 -9 27.5t-3 30.5q0 9 1 18.5t3 18.5q6 21 16 33q5 11 10 17.5t11 13.5q8 6 15 11.5t17 11.5q6 4 14.5 8t19.5 6q8 2 17 4t20 2q10 0 19.5 -2t20.5 -4q9 -2 17.5 -6
t17.5 -8q8 -6 14 -11.5t14 -11.5q7 -7 12.5 -13.5t11.5 -17.5zM1871 -177q3 8 4.5 17.5t1.5 18.5q0 16 -6 34q-3 11 -8.5 17.5t-13.5 13.5q-6 6 -13 11t-16 8q-15 8 -36 8q-20 0 -37 -8q-6 -3 -13.5 -8t-13.5 -11q-8 -7 -12.5 -13.5t-8.5 -17.5q-5 -9 -6 -17t-1 -17t1 -18.5
t6 -17.5q4 -11 8.5 -18t12.5 -12q6 -7 13.5 -11.5t13.5 -9.5q10 -3 19 -5.5t18 -2.5q10 0 19 2.5t17 5.5q9 5 16 9.5t13 11.5q8 5 13.5 12t8.5 18zM2167 0h50v-284h-48l-134 191q-2 2 -2.5 3t-1.5 2q-4 5 -4 8q-4 2 -4 5q-2 2 -3 3.5t-3 3.5v-216h-52v284h47q4 0 9 -1.5
t7 -2.5q5 -1 7.5 -3t4.5 -5q15 -21 29.5 -42t27.5 -43q17 -20 31 -40.5t31 -39.5q1 -3 2.5 -6t2.5 -8q0 -2 1.5 -5t1.5 -4v200zM2243 0h217v-49h-84v-235h-52v235h-81v49zM2637 -147q5 -4 8.5 -9.5t6.5 -11.5q1 -6 2.5 -12.5t1.5 -15.5q0 -18 -8 -36q-5 -9 -9.5 -16
t-13.5 -13q-7 -6 -14 -11t-18 -8q-8 -3 -18 -5t-19 -2q-10 0 -19.5 2t-21.5 5q-8 3 -15.5 9t-15.5 14q-5 3 -8.5 7.5t-6.5 9.5q-4 4 -6 16q1 0 2 1.5t4 2.5q2 0 3 1.5t3 2.5q4 0 6 1.5t3 1.5h11q2 0 5 -0.5t5 -2.5q7 0 12 -4q6 -3 10.5 -6t8.5 -5q3 -1 8.5 -3t11.5 -2
q3 0 7.5 0.5t8.5 3.5q10 2 16 8q7 4 12 11q3 5 5 8.5t2 8.5q0 10 -7 15q-6 8 -12 8q-3 4 -7.5 5.5t-8.5 3.5q-8 2 -19 8q-7 2 -13.5 4t-12.5 5q-9 5 -15 8.5t-12 9.5q-6 4 -10 9.5t-7 11.5q-8 15 -8 32q0 22 8 33q4 8 9 14t11 12q7 4 13.5 8t15.5 6q8 2 15 4t18 2q5 0 11 -2
l12 -4q7 -1 11 -3.5t12 -5.5q4 -3 8.5 -7.5l8.5 -8.5q4 -3 8.5 -7t7.5 -9l-11 -7q-3 -2 -6.5 -4.5t-6.5 -4.5q-5 -1 -8 -1h-8h-3h-4q-8 2 -9 4q-5 1 -8 4q-3 0 -4.5 1t-3.5 1q-4 2 -7 2q-12 0 -16 -2q-4 0 -5.5 -1.5t-6.5 -3.5q-4 -2 -6 -9q-3 -3 -3 -11t3 -9q1 -3 3 -5
t3 -7q5 0 8.5 -1.5t7.5 -2.5q6 -2 12.5 -5t11.5 -5l11 -2q7 -5 14.5 -8t13.5 -7q12 -5 21 -19zM2724 -236q6 0 8 -8q1 -2 1 -6v-6q0 -8 -1 -12q-2 -6 -8 -11q-5 -2 -8 -5q-2 -2 -6 -2.5t-7 -0.5t-6.5 0.5t-4.5 2.5q-3 1 -6 2.5t-6 2.5q-2 2 -3.5 5t-3.5 6q-2 4 -2 12v6t2 6
q2 3 3.5 5.5t3.5 2.5q6 8 12 8q1 3 4.5 3.5t6.5 0.5t7 -0.5t6 -3.5q3 0 8 -8zM2832 -76q-10 -12 -20 -31q-3 -9 -5.5 -17t-2.5 -17t2.5 -18.5t5.5 -17.5q5 -11 9.5 -18t10.5 -12q7 -7 13.5 -11.5t17.5 -9.5q9 -3 18 -5.5t18 -2.5q8 0 14 2t12 3q6 2 13 5.5t13 8.5q5 1 9 4h9
q5 0 10 -0.5t8 -2.5q7 -2 10 -8l11 -12q-9 -12 -21 -20q-9 -4 -15.5 -8.5t-14.5 -7.5q-6 -5 -13.5 -7t-15.5 -4q-6 -3 -13.5 -3.5t-15.5 -0.5q-17 0 -30.5 3t-27.5 8q-27 13 -45 32q-20 20 -32 45q-5 14 -8 27.5t-3 30.5q0 9 1.5 18.5t2.5 18.5q3 10 6 18t9 15
q6 11 11.5 17.5t12.5 13.5q6 6 14.5 11.5t16.5 11.5q7 4 15 8t18 6q9 2 18.5 4t20.5 2q8 0 15.5 -0.5t13.5 -5.5q8 -1 15.5 -3.5t13.5 -5.5q8 -3 14.5 -7.5t15.5 -8.5q13 -11 21 -21l-11 -12q-2 -5 -4.5 -6.5t-5.5 -3.5q-5 -1 -9 -1h-9t-9.5 1t-8.5 4q-6 5 -13 8t-13 6
q-6 2 -12 3t-14 1q-20 0 -36 -8q-11 -3 -17.5 -8t-13.5 -11zM3297 -71q5 -7 8.5 -15t6.5 -18q3 -9 3.5 -18.5t0.5 -18.5q0 -11 -0.5 -20.5t-3.5 -18.5t-6.5 -18t-8.5 -18q-7 -14 -21 -28q-9 -7 -16 -12.5t-16 -10.5q-8 -7 -16 -10t-19 -6q-8 -1 -18 -2.5t-20 -1.5
q-28 0 -55 11q-14 6 -25 14t-20 18q-11 10 -19 21t-12 24q-6 14 -9 27.5t-3 30.5q0 9 1.5 18.5t2.5 18.5q3 10 7.5 18t8.5 15q4 11 9.5 17.5t13.5 13.5q5 6 12.5 11.5t16.5 11.5q8 4 16.5 8t16.5 6q11 2 20 4t18 2q10 0 20 -2t18 -4q11 -2 19 -6l16 -8q9 -6 16 -11.5
t16 -11.5q6 -7 12 -13.5t9 -17.5zM3257 -177q7 17 7 36q0 9 -2 17t-5 17q-3 11 -7.5 17.5t-10.5 13.5q-13 13 -32 19q-6 5 -16 6.5t-20 1.5q-19 0 -34 -8q-9 -3 -16 -8t-14 -11q-8 -7 -12.5 -13.5t-9.5 -17.5q-2 -9 -3.5 -17t-1.5 -17t1.5 -18.5t3.5 -17.5q9 -21 22 -30
q7 -7 14 -11.5t16 -9.5q8 -3 17 -5.5t17 -2.5q10 0 20 2.5t16 5.5q10 5 18 9.5t14 11.5q13 11 18 30zM3608 -3q3 0 4.5 1.5t6.5 1.5h50v-284h-50v208q-2 -3 -3 -6t-3 -7q-1 -6 -1 -9t-1 -6q-11 -22 -20 -44.5t-19 -44.5q-9 -23 -18 -45.5t-18 -45.5h-48l-73 180q-4 5 -4 15
q-2 3 -3 5t-1 5v-205h-54v284h50q5 0 7.5 -1.5t5.5 -1.5q3 -1 4.5 -1t4.5 -1l8 -8q2 -2 4 -5t3 -5q8 -21 16.5 -42.5t16.5 -42.5q8 -22 17 -43.5t18 -41.5q0 -2 0.5 -4t0.5 -3v-7q3 0 3 -6q0 6 1 6v7q0 1 1 3t1 4l12 20l57 150l2.5 5l2.5 5q2 3 5 4.5t3 3.5q3 1 5.5 1t5.5 1
z" />
    <glyph glyph-name="four" unicode="4" horiz-adv-x="4097" 
d="M2952 600q4 -5 8.5 -11t7.5 -13q3 -6 4 -14t1 -17q0 -14 -5 -28q-3 -6 -7.5 -11t-8.5 -11q-6 -5 -12.5 -9t-11.5 -9q-14 -5 -29 -5q-8 0 -15.5 1t-12.5 4q-8 5 -14 9t-10 9q-5 6 -9.5 11t-6.5 11q-3 8 -5 15t-2 13q0 17 7 31q2 7 6.5 13t9.5 11q4 6 10 9.5t14 6.5
q10 7 28 7q8 0 14.5 -2t14.5 -5q5 -3 11.5 -6.5t12.5 -9.5zM1108 576q-1 -1 -7 -9q-3 -2 -4 -4t-6 -3q-3 -3 -11 -3h-44v63h44q7 0 11 -4q5 0 6 -1.5t4 -3.5q5 -6 7 -10q3 -4 3 -13q0 -8 -3 -12zM1477 600q5 -5 10 -11t8 -13q2 -6 3.5 -14t1.5 -17q0 -6 -1.5 -13t-3.5 -15
q-3 -6 -8 -11t-10 -11q-4 -5 -9.5 -9t-12.5 -9q-6 -3 -14 -4t-16 -1q-15 0 -29 5q-6 5 -12 9t-12 9q-4 6 -8.5 11t-7.5 11q-3 8 -5 15t-2 13q0 17 7 31q3 7 7.5 13t8.5 11q6 6 12 9.5t12 6.5q8 3 15 5t14 2q16 0 30 -7q7 -3 12.5 -6.5t9.5 -9.5zM1853 616q0 -4 1.5 -7
t1.5 -5l37 -84h-77l36 84q0 3 1 4v8zM784 611q2 -3 3 -7t4 -7q2 -4 2 -13v-6.5t-2 -6.5q-3 -3 -4 -6.5t-3 -4.5q-6 -6 -12 -9t-15 -3h-44v72h44q10 0 15 -4q3 0 6 -2t6 -3zM3669 1084v-765h-3144v765h1191q0 40 7 77.5t24 71.5q16 35 35.5 66.5t48.5 56.5q50 51 120 79
q35 16 71 23t75 7q42 0 79.5 -7.5t70.5 -24.5q37 -16 67.5 -37t56.5 -47q47 -48 80 -121q26 -72 26 -144h1192zM1776 1216q-29 -62 -29 -133q0 -73 29 -134q13 -32 31.5 -60t40.5 -53q24 -24 51.5 -43t60.5 -33q62 -29 137 -29q38 0 71 6.5t64 19.5q33 14 60.5 33t51.5 43
q24 23 43.5 51.5t32.5 59.5q29 67 29 139q0 32 -5 62.5t-16 57.5q-19 54 -56 98q-18 23 -38.5 40.5t-42.5 34.5q-26 13 -51 25t-52 19q-19 7 -42 10t-49 3q-39 0 -73.5 -7t-66.5 -23q-63 -25 -110 -76q-23 -23 -40.5 -51.5t-30.5 -59.5zM816 560q7 14 7 24q0 7 -2 13t-5 14
q0 4 -5 8.5t-10 8.5q-3 4 -7.5 8t-10.5 5q-5 5 -11.5 6t-14.5 1h-69v-199h25v74h44q8 0 14.5 1t11.5 3q13 6 18 13q5 4 10 8.5t5 11.5zM965 648h-124v-199h124v24h-94v62h78v26h-78v59h94v28zM1160 449l-63 86q5 1 8.5 2t7.5 6q10 2 12 10q3 3 6 8l6 10v17q0 7 -0.5 12.5
t-3.5 11.5q-5 9 -13 17q-5 11 -19 12q-3 5 -9 6t-12 1h-72v-199h28v82h31l52 -71q2 -7 9 -9q2 -2 6 -2h7h19zM1296 483q1 6 2.5 11t1.5 11q0 17 -5 27t-15 17q-3 2 -4.5 3.5t-6.5 3.5q-1 1 -3.5 1.5t-4.5 2.5q-3 1 -5.5 1.5t-2.5 3.5q-7 0 -10 3q-8 2 -11 3.5t-8 3.5
q-8 2 -11 5q-6 4 -6 8v9v11l4 4t2 4q3 0 6 1.5l5 2.5q5 2 7.5 2.5t7.5 0.5q1 0 3.5 -1.5t4.5 -1.5q8 -1 10 -7q3 -1 5.5 -1.5t6.5 -0.5q10 0 15 5l9 4q-2 3 -4.5 4.5t-5.5 4.5l-6 6t-9 5q-3 1 -6.5 3t-8.5 4q-5 1 -8 2.5t-6 1.5q-6 0 -12.5 -1.5t-10.5 -2.5q-7 -2 -11 -5
t-9 -5q-4 -5 -8.5 -9t-6.5 -8q-1 -5 -2.5 -10t-1.5 -13q0 -7 0.5 -11.5t3.5 -9.5q2 -4 6 -8t6 -8l10 -6t10 -5q5 -3 9 -4.5t10 -4.5q3 -2 7.5 -2.5t7.5 -1.5q5 -1 7.5 -2.5t5.5 -2.5q3 -3 4 -5t5 -6q2 -4 2.5 -7t0.5 -8q0 -2 -0.5 -6t-3.5 -7t-4 -5.5t-4 -3.5q-3 -5 -7 -6.5
t-6 -3.5q-5 0 -8.5 -0.5t-6.5 -0.5q-6 0 -9 0.5t-6 0.5q-3 2 -6.5 3.5t-3.5 6.5l-4 1q-7 7 -15 7q-3 0 -6 -0.5t-6 -3.5l-7 -3q0 -4 2 -4q0 -4 5 -7q0 -4 4 -5q0 -2 2 -4q1 -1 2 -1q11 -9 22.5 -12.5t25.5 -3.5q6 0 12.5 0.5t12.5 3.5q5 1 12.5 4t10.5 8q5 4 9.5 8t6.5 12z
M1525 520q2 8 2.5 13.5t0.5 11.5q0 18 -3 30q-2 7 -5.5 12.5t-6.5 12.5q-5 9 -16 20q-4 4 -9.5 7.5t-12.5 9.5q-5 2 -10 5t-13 5q-6 1 -12.5 2.5t-14.5 1.5q-7 0 -13.5 -1.5t-12.5 -2.5q-8 -2 -13.5 -5t-10.5 -5q-6 -6 -11.5 -9.5t-10.5 -7.5q-5 -5 -9 -10t-7 -10
q-4 -7 -5.5 -12.5t-4.5 -12.5q-4 -11 -4 -30q0 -8 2.5 -18t6.5 -19q3 -10 8.5 -18.5t12.5 -16.5q8 -6 16.5 -11t17.5 -7q16 -8 38 -8h14.5t12.5 2q15 4 23 11q16 7 22 13q9 9 16 23q3 6 6.5 12t5.5 12zM1733 648h-26v-156q0 4 -1.5 7.5t-2.5 5.5l-96 135q-5 1 -10 7
q-3 0 -6 0.5t-6 0.5h-18v-199h26v167v-4l2 -2l2 -2v-4l116 -155h20v199zM1956 449l-87 199h-28l-88 -199h16q10 0 14 2q1 3 3 4.5t5 4.5l13 32h103l13 -32q2 -7 8 -9q1 -2 12 -2h16zM2089 473h-86v175h-28v-199h114v24zM2363 648h-27v-121q0 -8 -0.5 -12.5t-3.5 -10.5
q-1 -10 -12 -16q-3 -4 -7.5 -6.5t-8.5 -6.5q-5 -2 -9 -2.5t-11 -0.5q-13 0 -20 3q-6 4 -10.5 6.5t-6.5 6.5q-3 3 -6 7t-8 9q-1 6 -1.5 10.5t-0.5 12.5v121h-27v-121q0 -8 0.5 -13.5t2.5 -9.5q0 -10 6 -20q6 -11 15 -16q3 -3 6.5 -6t8.5 -6q3 -3 8.5 -4t9.5 -3
q6 -2 11.5 -3.5t11.5 -1.5q7 0 11 1.5t12 3.5q4 2 8.5 3t8.5 4q9 5 16 12q5 3 7.5 7t5.5 9q2 5 5 9.5t5 10.5v23v121zM2517 483q8 11 8 22q0 17 -5.5 27t-16.5 17q-6 4 -8 7q-3 1 -5.5 1.5t-5.5 2.5q-1 1 -4.5 1.5t-6.5 3.5q-1 0 -3.5 1t-5.5 2q-5 2 -7.5 3.5t-7.5 3.5
q-9 2 -10 5q-5 2 -6.5 3.5t-3.5 4.5q0 1 -0.5 3.5t-0.5 5.5q0 6 4 11q1 4 7 8q3 0 4.5 1.5t5.5 2.5q3 3 14 3q1 0 3.5 -1.5t5.5 -1.5q3 -3 11 -7q8 -2 12 -2q8 0 13 5l7 4q-2 3 -4.5 4.5t-5.5 4.5q-2 3 -5.5 6t-7.5 5q-3 1 -6.5 3t-8.5 4q-4 1 -8 2.5t-6 1.5q-6 0 -12 -1.5
t-12 -2.5q-5 -2 -10 -5t-9 -5q-4 -5 -7 -9l-6 -8q-3 -5 -5 -10t-2 -13q0 -7 2 -11.5t5 -9.5q4 -10 10 -16q5 -3 9 -6t9 -5q6 -3 11.5 -4.5t9.5 -4.5q5 -2 7.5 -2.5t5.5 -1.5l7.5 -2.5l7.5 -2.5l5 -5t3 -6q3 -4 3.5 -7t0.5 -8q0 -2 -0.5 -6t-3.5 -7q-2 -7 -9 -9
q-5 -5 -8 -6.5t-6 -3.5q-4 0 -7 -0.5t-6 -0.5q-4 0 -8.5 0.5t-7.5 0.5q-7 3 -12 10l-3 1q-7 7 -14 7q-2 0 -5.5 -0.5t-5.5 -3.5l-8 -3q1 -1 1.5 -2.5t2.5 -1.5q0 -2 1.5 -3.5t1.5 -3.5l2.5 -2.5t1.5 -2.5q5 -5 8 -5q8 -9 20 -12.5t25 -3.5q6 0 12.5 0.5t14.5 3.5q6 1 10.5 4
t10.5 8q4 4 7 8t6 12zM2681 648h-124v-199h124v24h-96v62h79v26h-79v59h96v28zM2997 520q2 8 2.5 13.5t0.5 11.5q0 8 -0.5 16t-2.5 14q-3 12 -10 25q-5 8 -18 20q-4 4 -8.5 7.5t-9.5 9.5q-6 2 -13 5t-13 5q-6 1 -12 2.5t-14 1.5t-14.5 -1.5t-12.5 -2.5q-15 -5 -25 -10
q-5 -6 -10.5 -9.5t-9.5 -7.5q-5 -5 -9 -10t-9 -10q-2 -7 -5 -12.5t-4 -12.5q-4 -11 -4 -30q0 -8 1.5 -18t6.5 -19q7 -20 23 -35q7 -6 15 -11t17 -7q16 -8 40 -8h14t12 2t13 4.5t13 6.5q5 3 9.5 6t8.5 7q12 10 18 23q7 11 10 24zM3207 648h-27v-156q-2 4 -3 7.5t-4 5.5
l-96 135q-1 1 -2 3t-4 4q-3 0 -7 0.5t-7 0.5h-20v-199h30v167q0 -4 1 -4v-4q0 -1 1 -2l2 -2l113 -155h23v199zM3371 473h-87v175h-28v-199h115v24zM3531 648h-22q-8 0 -13 -4q-8 -6 -9 -11l-48 -62q-1 -1 -1 -2q-1 -1 -3 -1v-3v3l-2 3l-46 62q-5 6 -11 11q-5 4 -13 4h-22
l74 -99q1 0 2 -4q0 -1 1 -1t2 -1v-4q0 -1 1 -2v-5v-83h30v83v5q1 0 1 6q2 0 4 2v3q0 1 1 1zM1983 787q-26 11 -50 26.5t-46 33.5h421q-21 -18 -45 -33.5t-50 -26.5q-28 -8 -57 -15.5t-59 -7.5q-31 0 -59.5 7.5t-54.5 15.5zM1921 880l411 416q39 -51 59.5 -104.5t20.5 -108.5
q0 -29 -4 -56.5t-15 -53.5q-9 -25 -22.5 -47.5t-30.5 -45.5h-419zM1860 871q-37 45 -59 97q-11 26 -14.5 55.5t-3.5 59.5q0 28 3.5 55t13.5 53q9 25 22.5 47.5t29.5 45.5h420zM2213 1377q26 -11 50 -26t44 -32h-423q47 38 99 58q50 22 114 22q62 0 116 -22zM531 116
q-5 5 -7 10t-4 11q-2 8 -3.5 13t-1.5 13q0 9 5 21q2 7 4 13.5t7 11.5q3 5 5.5 9.5t7.5 9.5q3 4 8 8t9 7q8 3 12.5 5t10.5 5q5 0 12 1.5t15 1.5q9 0 17 -2t19 -7q9 -3 16 -8t13 -11q-3 -4 -5 -4q0 -1 -1 -2t-2 -1q0 -1 -4 -1h-4q-7 0 -9 1q-5 2 -10 6t-10 5t-9.5 1h-10.5
q-8 0 -15.5 -0.5t-12.5 -1.5q-8 -5 -14 -9t-12 -9q-5 -5 -8.5 -10t-5.5 -12q-5 -8 -6 -15t-1 -13q0 -10 4 -19q2 -5 3 -9.5t2 -9.5q3 -4 6 -7t6 -7q6 -3 9.5 -6.5t8.5 -4.5q4 -2 7.5 -4.5t8.5 -4.5t10 -2h10h11t11 2t12.5 4.5t10.5 5.5v39h-15h-2q-1 0 -2 1l-4.5 3t-3.5 3
l-2.5 2.5t-1.5 2.5t-0.5 3t-0.5 4v1h52v-71q-4 -4 -6.5 -5.5t-6.5 -6.5q-8 -2 -16 -2q-9 -4 -19 -4h-17h-15t-12 1q-6 2 -10.5 4t-12.5 7q-4 2 -9 5t-8 9q-5 3 -7.5 8zM743 232v-59h73v-20h-73v-62h89v-19h-112v181h112v-21h-89zM912 72v160h-59v21h138v-21h-59v-160h-20z
M1125 232v-63h78v-18h-78v-79h-21v181h112v-21h-91zM1269 253v-112q0 -6 2 -10t5 -8q2 -8 5 -11t6 -8q3 -3 6.5 -5.5t7.5 -5.5q6 -3 11.5 -3.5t10.5 -0.5q6 0 10 0.5t8 3.5q6 3 10 5.5t9 5.5q2 5 5.5 8t5.5 11q5 6 5 18v112h20v-112q0 -8 -2 -14t-5 -14q-2 -7 -5.5 -12.5
t-8.5 -11.5q-5 -4 -11 -8t-12 -6q-15 -4 -29 -4q-15 0 -30 4q-5 2 -10.5 6t-10.5 8q-10 10 -16 24q-2 8 -4.5 14t-2.5 14v112h20zM1455 253v-162h81v-19h-103v181h22zM1577 253v-162h83v-19h-103v181h20zM1827 72l-80 181h10q7 0 11 -4q1 -2 3 -2.5t5 -3.5l57 -136v-7
q3 -3 3 -7v7q0 1 0.5 3t0.5 4q8 16 16 33t16 33q6 20 14 36.5t16 33.5q1 3 2.5 3.5t1.5 2.5q5 3 7 3.5t5 0.5h9q-9 -22 -19 -45t-21 -45q-9 -24 -18.5 -46.5t-18.5 -44.5h-20zM1960 232v-59h75v-20h-75v-62h89v-19h-109v181h109v-21h-89zM2184 156q-3 -3 -15 -5l62 -79h-14
q-3 0 -6.5 0.5t-3.5 2.5l-6 2t-5 6l-49 68h-34v-79h-20v181h66q6 0 9.5 -0.5t8.5 -3.5q10 -3 19 -10q3 -5 6 -9t5 -9q2 -4 2 -9.5v-8.5v-9.5t-2 -9.5q0 -5 -2.5 -9.5t-4.5 -6.5q-3 -3 -6.5 -6t-9.5 -6zM2159 169q8 0 10 2q3 2 6 3.5l5 2.5q3 3 4 5.5t4 5.5q0 3 1.5 6.5
t1.5 8.5q0 3 -1.5 5t-1.5 5q-3 3 -4 5.5t-4 5.5q-2 0 -5 2.5t-6 4.5q-2 1 -10 1h-46v-63h46zM2327 97q4 3 6 11q3 3 3.5 7.5t0.5 7.5q0 10 -1 14q-2 3 -4 5.5t-5 4.5q-3 4 -11 6q-5 0 -8 2t-8 4q-5 1 -9.5 3.5t-7.5 4.5q-12 2 -19 9q-2 1 -5 5t-6 7v19q0 7 0.5 11.5t2.5 9.5
q2 9 12 15q6 3 9.5 5t9.5 5q5 0 8.5 1.5t8.5 1.5q4 0 8.5 -1.5t7.5 -1.5t5.5 -2t6.5 -4q3 -2 5.5 -3.5t3.5 -3.5q5 -3 7 -5t4 -3l-5 -4q-3 -4 -11 -4h-9q-4 5 -4 7q-2 0 -3.5 0.5t-3.5 0.5h-2q-1 0 -2.5 0.5t-2.5 0.5h-5q-8 0 -11 -1q-9 0 -10 -4q-7 -7 -7 -11q-4 -1 -4 -10
q0 -7 4 -8q0 -7 4 -8q2 -2 5 -4.5t6 -2.5q4 -2 7.5 -3.5t9.5 -3.5q1 -1 4.5 -1.5t3.5 -2.5q3 0 5.5 -1t5.5 -3q2 -1 3 -1t1.5 -0.5t1.5 -0.5q2 0 4.5 -1.5t3.5 -2.5l8.5 -8.5t6.5 -7.5q4 -13 4 -24q0 -8 -1 -12.5t-6 -10.5q-1 -9 -12 -16q-4 -5 -9.5 -6.5t-8.5 -2.5
q-5 -3 -11.5 -3.5t-14.5 -0.5q-11 0 -21.5 3t-18.5 10q-3 1 -4 3.5t-6 5.5q0 3 -1.5 5t-1.5 3l3 3q2 0 2.5 1.5t3.5 1.5h3q4 0 6.5 -2t6.5 -4q5 -3 8 -5.5t7 -4.5q2 -2 6 -2h7q11 0 15 2q9 0 15 6zM2420 253v-181h-20v181h20zM2491 97q-14 12 -22 28q-6 18 -6 38
q0 5 0.5 10.5t1.5 10.5q5 15 10 25q7 10 16 19t18 15q5 3 11.5 5t11.5 5q6 0 12 1.5t12 1.5q7 0 14 -1.5t13 -1.5q5 -3 10.5 -5t10.5 -5t9.5 -7t9.5 -8q4 -5 6.5 -9.5t7.5 -9.5q5 -10 10 -25q1 -5 2.5 -10.5t1.5 -10.5q0 -9 -2.5 -19t-7.5 -19q-3 -9 -8 -16t-10 -12
q-8 -7 -15 -12.5t-17 -8.5q-10 -5 -35 -5q-9 0 -18 1t-18 4q-19 6 -29 21zM2491 191q-3 -8 -5 -15t-2 -13q0 -5 0.5 -9.5t2.5 -9.5q1 -9 8 -19q1 -4 3.5 -7t5.5 -7q4 -3 7.5 -6.5t8.5 -4.5q5 -2 9 -4.5t8 -4.5q5 -2 9.5 -2h9.5h10t10 2q5 2 9 4.5t8 4.5q3 1 7.5 4.5t7.5 6.5
q3 4 6 7t5 7q3 5 4 9.5t2 9.5q2 5 2.5 9.5t0.5 9.5q0 6 -1.5 13t-3.5 15q-2 7 -6.5 12t-8.5 10q-5 5 -11 9t-13 9q-6 1 -13 1.5t-15 0.5t-14.5 -0.5t-13.5 -1.5q-6 -5 -12 -9t-12 -9q-5 -5 -7.5 -10t-5.5 -12zM2704 72h-20v181h15q4 0 7.5 -0.5t6.5 -5.5l95 -134q1 -1 1 -5
q3 -3 3 -2v-2v149h20v-181h-16l-109 149v3h-3v7v-159zM2987 232v-63h74v-18h-74v-79h-22v181h111v-21h-89zM3192 156q-10 -4 -16 -5l57 -79h-12q-8 0 -12 3q-2 1 -3.5 2t-2.5 6l-51 68h-33v-79h-22v181h66q5 0 10 -0.5t11 -3.5q5 -2 9 -4.5t7 -5.5q3 -5 5.5 -9t7.5 -9
q0 -4 1.5 -9.5t1.5 -8.5q0 -5 -1.5 -9.5t-1.5 -9.5q-3 -5 -5 -9.5t-4 -6.5zM3176 171q3 2 4.5 3.5t3.5 2.5q7 7 8 11t1 15q0 6 -1 10t-8 11q-2 0 -3.5 2.5t-4.5 4.5q-5 1 -13 1h-44v-63h44q8 0 13 2zM3412 97q-7 -7 -14.5 -12.5t-16.5 -8.5q-7 -3 -15.5 -4t-18.5 -1
q-11 0 -20.5 1t-17.5 4q-17 6 -29 21q-6 5 -11.5 12t-8.5 16t-5 19t-2 19q0 5 0.5 10.5t2.5 10.5q1 7 3.5 13.5t4.5 11.5q4 5 8.5 9.5t7.5 9.5l10 8t10 7t11.5 5t11.5 5q6 0 11 1.5t13 1.5q5 0 11.5 -1.5t13.5 -1.5q6 -3 11 -5t9 -5q6 -3 11 -7t9 -8q4 -5 7 -9.5t6 -9.5
q7 -10 10 -25q3 -5 4 -10.5t1 -10.5q0 -9 -1.5 -19t-6.5 -19q-3 -9 -8.5 -16t-11.5 -12zM3347 89h9.5t10.5 2q4 2 7.5 4.5t6.5 4.5q5 1 9 4.5t9 6.5q3 4 5.5 7t4.5 7q2 5 4 9.5t3 9.5t1 9.5v9.5q0 6 -0.5 13t-1.5 15q-3 7 -8 12t-8 10q-8 5 -13.5 9t-10.5 9q-6 1 -13.5 1.5
t-14.5 0.5q-8 0 -15 -0.5t-13 -1.5q-8 -5 -13.5 -9t-9.5 -9q-7 -5 -10 -10t-6 -12q-3 -8 -3.5 -15t-0.5 -13v-19q2 -5 3.5 -9.5t4.5 -9.5q2 -4 5 -7l7 -7q3 -3 6 -6.5t7 -4.5q5 -2 9 -4.5t9 -4.5q4 -2 9.5 -2h10.5zM3644 249q3 3 5 3.5t4 0.5h16v-181h-18v149q0 -1 -3 -4v-1
v-3q-5 -10 -9 -21t-10 -19q-4 -10 -7.5 -17.5t-8.5 -18.5q-2 -9 -6 -17.5t-7 -15.5l-8.5 -17l-7.5 -15h-19q-11 16 -18 34t-15 35q-7 20 -15 37.5t-17 34.5v4q-3 3 -3 4v-149h-20v181h18q5 0 9 -4q3 -2 4 -2.5t1 -3.5l63 -142q0 -4 3 -4v-4q0 3 0.5 5.5t0.5 5.5q1 5 7 9
l54 130q2 3 3.5 3.5t3.5 2.5zM525 0h208v-25v-6t-1 -6q-1 -5 -3 -7l-5 -5l-139 -190h2l2 3h4h4h135v-48h-217v16q0 11 2 15q0 2 6 10q2 3 3 5.5t2 6.5q2 2 4.5 5t3.5 6l124 171h-135v49zM768 0h183v-49h-131v-67h105v-51h-105v-69h131v-48h-183v284zM1177 -49h-80v-235h-53
v235h-84v49h217v-49zM1307 0l122 -284h-30q-13 0 -22 5q-4 2 -6.5 7.5t-7.5 10.5l-15 37h-131l-14 -37q-2 -5 -3 -6t-4 -2q-2 -5 -3.5 -6.5t-4.5 -3.5q-3 -1 -5.5 -2.5t-5.5 -1.5q-1 -1 -4 -1h-5h-31l123 284h47zM1324 -173l-37 88q0 2 -1.5 4.5t-1.5 4.5q0 5 -1 8v-8
q0 -2 -1.5 -4.5t-2.5 -4.5l-36 -88h81zM1443 0h180v-49h-131v-74h109v-50h-109v-111h-49v284zM1911 -71q4 -7 7 -15t6 -18q3 -9 3.5 -18.5t0.5 -18.5q0 -11 -0.5 -20.5t-3.5 -18.5l-6 -18t-7 -18q-6 -6 -11.5 -14t-12.5 -14q-8 -7 -14 -12.5t-14 -10.5q-9 -7 -17.5 -10
t-17.5 -6q-11 -1 -20.5 -2.5t-19.5 -1.5q-15 0 -28.5 3t-27.5 8q-14 6 -25 14t-22 18q-19 20 -29 45q-6 14 -9 27.5t-3 30.5q0 9 1 18.5t3 18.5q6 21 16 33q5 11 10 17.5t11 13.5q8 6 15 11.5t17 11.5q6 4 14.5 8t19.5 6q8 2 17 4t20 2q10 0 19.5 -2t20.5 -4q9 -2 17.5 -6
t17.5 -8q8 -6 14 -11.5t14 -11.5q7 -7 12.5 -13.5t11.5 -17.5zM1871 -177q3 8 4.5 17.5t1.5 18.5q0 16 -6 34q-3 11 -8.5 17.5t-13.5 13.5q-6 6 -13 11t-16 8q-15 8 -36 8q-20 0 -37 -8q-6 -3 -13.5 -8t-13.5 -11q-8 -7 -12.5 -13.5t-8.5 -17.5q-5 -9 -6 -17t-1 -17t1 -18.5
t6 -17.5q4 -11 8.5 -18t12.5 -12q6 -7 13.5 -11.5t13.5 -9.5q10 -3 19 -5.5t18 -2.5q10 0 19 2.5t17 5.5q9 5 16 9.5t13 11.5q8 5 13.5 12t8.5 18zM2167 0h50v-284h-48l-134 191q-2 2 -2.5 3t-1.5 2q-4 5 -4 8q-4 2 -4 5q-2 2 -3 3.5t-3 3.5v-216h-52v284h47q4 0 9 -1.5
t7 -2.5q5 -1 7.5 -3t4.5 -5q15 -21 29.5 -42t27.5 -43q17 -20 31 -40.5t31 -39.5q1 -3 2.5 -6t2.5 -8q0 -2 1.5 -5t1.5 -4v200zM2243 0h217v-49h-84v-235h-52v235h-81v49zM2637 -147q5 -4 8.5 -9.5t6.5 -11.5q1 -6 2.5 -12.5t1.5 -15.5q0 -18 -8 -36q-5 -9 -9.5 -16
t-13.5 -13q-7 -6 -14 -11t-18 -8q-8 -3 -18 -5t-19 -2q-10 0 -19.5 2t-21.5 5q-8 3 -15.5 9t-15.5 14q-5 3 -8.5 7.5t-6.5 9.5q-4 4 -6 16q1 0 2 1.5t4 2.5q2 0 3 1.5t3 2.5q4 0 6 1.5t3 1.5h11q2 0 5 -0.5t5 -2.5q7 0 12 -4q6 -3 10.5 -6t8.5 -5q3 -1 8.5 -3t11.5 -2
q3 0 7.5 0.5t8.5 3.5q10 2 16 8q7 4 12 11q3 5 5 8.5t2 8.5q0 10 -7 15q-6 8 -12 8q-3 4 -7.5 5.5t-8.5 3.5q-8 2 -19 8q-7 2 -13.5 4t-12.5 5q-9 5 -15 8.5t-12 9.5q-6 4 -10 9.5t-7 11.5q-8 15 -8 32q0 22 8 33q4 8 9 14t11 12q7 4 13.5 8t15.5 6q8 2 15 4t18 2q5 0 11 -2
l12 -4q7 -1 11 -3.5t12 -5.5q4 -3 8.5 -7.5l8.5 -8.5q4 -3 8.5 -7t7.5 -9l-11 -7q-3 -2 -6.5 -4.5t-6.5 -4.5q-5 -1 -8 -1h-8h-3h-4q-8 2 -9 4q-5 1 -8 4q-3 0 -4.5 1t-3.5 1q-4 2 -7 2q-12 0 -16 -2q-4 0 -5.5 -1.5t-6.5 -3.5q-4 -2 -6 -9q-3 -3 -3 -11t3 -9q1 -3 3 -5
t3 -7q5 0 8.5 -1.5t7.5 -2.5q6 -2 12.5 -5t11.5 -5l11 -2q7 -5 14.5 -8t13.5 -7q12 -5 21 -19zM2724 -236q6 0 8 -8q1 -2 1 -6v-6q0 -8 -1 -12q-2 -6 -8 -11q-5 -2 -8 -5q-2 -2 -6 -2.5t-7 -0.5t-6.5 0.5t-4.5 2.5q-3 1 -6 2.5t-6 2.5q-2 2 -3.5 5t-3.5 6q-2 4 -2 12v6t2 6
q2 3 3.5 5.5t3.5 2.5q6 8 12 8q1 3 4.5 3.5t6.5 0.5t7 -0.5t6 -3.5q3 0 8 -8zM2832 -76q-10 -12 -20 -31q-3 -9 -5.5 -17t-2.5 -17t2.5 -18.5t5.5 -17.5q5 -11 9.5 -18t10.5 -12q7 -7 13.5 -11.5t17.5 -9.5q9 -3 18 -5.5t18 -2.5q8 0 14 2t12 3q6 2 13 5.5t13 8.5q5 1 9 4h9
q5 0 10 -0.5t8 -2.5q7 -2 10 -8l11 -12q-9 -12 -21 -20q-9 -4 -15.5 -8.5t-14.5 -7.5q-6 -5 -13.5 -7t-15.5 -4q-6 -3 -13.5 -3.5t-15.5 -0.5q-17 0 -30.5 3t-27.5 8q-27 13 -45 32q-20 20 -32 45q-5 14 -8 27.5t-3 30.5q0 9 1.5 18.5t2.5 18.5q3 10 6 18t9 15
q6 11 11.5 17.5t12.5 13.5q6 6 14.5 11.5t16.5 11.5q7 4 15 8t18 6q9 2 18.5 4t20.5 2q8 0 15.5 -0.5t13.5 -5.5q8 -1 15.5 -3.5t13.5 -5.5q8 -3 14.5 -7.5t15.5 -8.5q13 -11 21 -21l-11 -12q-2 -5 -4.5 -6.5t-5.5 -3.5q-5 -1 -9 -1h-9t-9.5 1t-8.5 4q-6 5 -13 8t-13 6
q-6 2 -12 3t-14 1q-20 0 -36 -8q-11 -3 -17.5 -8t-13.5 -11zM3297 -71q5 -7 8.5 -15t6.5 -18q3 -9 3.5 -18.5t0.5 -18.5q0 -11 -0.5 -20.5t-3.5 -18.5t-6.5 -18t-8.5 -18q-7 -14 -21 -28q-9 -7 -16 -12.5t-16 -10.5q-8 -7 -16 -10t-19 -6q-8 -1 -18 -2.5t-20 -1.5
q-28 0 -55 11q-14 6 -25 14t-20 18q-11 10 -19 21t-12 24q-6 14 -9 27.5t-3 30.5q0 9 1.5 18.5t2.5 18.5q3 10 7.5 18t8.5 15q4 11 9.5 17.5t13.5 13.5q5 6 12.5 11.5t16.5 11.5q8 4 16.5 8t16.5 6q11 2 20 4t18 2q10 0 20 -2t18 -4q11 -2 19 -6l16 -8q9 -6 16 -11.5
t16 -11.5q6 -7 12 -13.5t9 -17.5zM3257 -177q7 17 7 36q0 9 -2 17t-5 17q-3 11 -7.5 17.5t-10.5 13.5q-13 13 -32 19q-6 5 -16 6.5t-20 1.5q-19 0 -34 -8q-9 -3 -16 -8t-14 -11q-8 -7 -12.5 -13.5t-9.5 -17.5q-2 -9 -3.5 -17t-1.5 -17t1.5 -18.5t3.5 -17.5q9 -21 22 -30
q7 -7 14 -11.5t16 -9.5q8 -3 17 -5.5t17 -2.5q10 0 20 2.5t16 5.5q10 5 18 9.5t14 11.5q13 11 18 30zM3608 -3q3 0 4.5 1.5t6.5 1.5h50v-284h-50v208q-2 -3 -3 -6t-3 -7q-1 -6 -1 -9t-1 -6q-11 -22 -20 -44.5t-19 -44.5q-9 -23 -18 -45.5t-18 -45.5h-48l-73 180q-4 5 -4 15
q-2 3 -3 5t-1 5v-205h-54v284h50q5 0 7.5 -1.5t5.5 -1.5q3 -1 4.5 -1t4.5 -1l8 -8q2 -2 4 -5t3 -5q8 -21 16.5 -42.5t16.5 -42.5q8 -22 17 -43.5t18 -41.5q0 -2 0.5 -4t0.5 -3v-7q3 0 3 -6q0 6 1 6v7q0 1 1 3t1 4l12 20l57 150l2.5 5l2.5 5q2 3 5 4.5t3 3.5q3 1 5.5 1t5.5 1
z" />
    <glyph glyph-name="five" unicode="5" horiz-adv-x="4097" 
d="M2952 600q4 -5 8.5 -11t7.5 -13q3 -6 4 -14t1 -17q0 -14 -5 -28q-3 -6 -7.5 -11t-8.5 -11q-6 -5 -12.5 -9t-11.5 -9q-14 -5 -29 -5q-8 0 -15.5 1t-12.5 4q-8 5 -14 9t-10 9q-5 6 -9.5 11t-6.5 11q-3 8 -5 15t-2 13q0 17 7 31q2 7 6.5 13t9.5 11q4 6 10 9.5t14 6.5
q10 7 28 7q8 0 14.5 -2t14.5 -5q5 -3 11.5 -6.5t12.5 -9.5zM1108 576q-1 -1 -7 -9q-3 -2 -4 -4t-6 -3q-3 -3 -11 -3h-44v63h44q7 0 11 -4q5 0 6 -1.5t4 -3.5q5 -6 7 -10q3 -4 3 -13q0 -8 -3 -12zM1477 600q5 -5 10 -11t8 -13q2 -6 3.5 -14t1.5 -17q0 -6 -1.5 -13t-3.5 -15
q-3 -6 -8 -11t-10 -11q-4 -5 -9.5 -9t-12.5 -9q-6 -3 -14 -4t-16 -1q-15 0 -29 5q-6 5 -12 9t-12 9q-4 6 -8.5 11t-7.5 11q-3 8 -5 15t-2 13q0 17 7 31q3 7 7.5 13t8.5 11q6 6 12 9.5t12 6.5q8 3 15 5t14 2q16 0 30 -7q7 -3 12.5 -6.5t9.5 -9.5zM1853 616q0 -4 1.5 -7
t1.5 -5l37 -84h-77l36 84q0 3 1 4v8zM784 611q2 -3 3 -7t4 -7q2 -4 2 -13v-6.5t-2 -6.5q-3 -3 -4 -6.5t-3 -4.5q-6 -6 -12 -9t-15 -3h-44v72h44q10 0 15 -4q3 0 6 -2t6 -3zM3669 1084v-765h-3144v765h1191q0 40 7 77.5t24 71.5q16 35 35.5 66.5t48.5 56.5q50 51 120 79
q35 16 71 23t75 7q42 0 79.5 -7.5t70.5 -24.5q37 -16 67.5 -37t56.5 -47q47 -48 80 -121q26 -72 26 -144h1192zM1776 1216q-29 -62 -29 -133q0 -73 29 -134q13 -32 31.5 -60t40.5 -53q24 -24 51.5 -43t60.5 -33q62 -29 137 -29q38 0 71 6.5t64 19.5q33 14 60.5 33t51.5 43
q24 23 43.5 51.5t32.5 59.5q29 67 29 139q0 32 -5 62.5t-16 57.5q-19 54 -56 98q-18 23 -38.5 40.5t-42.5 34.5q-26 13 -51 25t-52 19q-19 7 -42 10t-49 3q-39 0 -73.5 -7t-66.5 -23q-63 -25 -110 -76q-23 -23 -40.5 -51.5t-30.5 -59.5zM816 560q7 14 7 24q0 7 -2 13t-5 14
q0 4 -5 8.5t-10 8.5q-3 4 -7.5 8t-10.5 5q-5 5 -11.5 6t-14.5 1h-69v-199h25v74h44q8 0 14.5 1t11.5 3q13 6 18 13q5 4 10 8.5t5 11.5zM965 648h-124v-199h124v24h-94v62h78v26h-78v59h94v28zM1160 449l-63 86q5 1 8.5 2t7.5 6q10 2 12 10q3 3 6 8l6 10v17q0 7 -0.5 12.5
t-3.5 11.5q-5 9 -13 17q-5 11 -19 12q-3 5 -9 6t-12 1h-72v-199h28v82h31l52 -71q2 -7 9 -9q2 -2 6 -2h7h19zM1296 483q1 6 2.5 11t1.5 11q0 17 -5 27t-15 17q-3 2 -4.5 3.5t-6.5 3.5q-1 1 -3.5 1.5t-4.5 2.5q-3 1 -5.5 1.5t-2.5 3.5q-7 0 -10 3q-8 2 -11 3.5t-8 3.5
q-8 2 -11 5q-6 4 -6 8v9v11l4 4t2 4q3 0 6 1.5l5 2.5q5 2 7.5 2.5t7.5 0.5q1 0 3.5 -1.5t4.5 -1.5q8 -1 10 -7q3 -1 5.5 -1.5t6.5 -0.5q10 0 15 5l9 4q-2 3 -4.5 4.5t-5.5 4.5l-6 6t-9 5q-3 1 -6.5 3t-8.5 4q-5 1 -8 2.5t-6 1.5q-6 0 -12.5 -1.5t-10.5 -2.5q-7 -2 -11 -5
t-9 -5q-4 -5 -8.5 -9t-6.5 -8q-1 -5 -2.5 -10t-1.5 -13q0 -7 0.5 -11.5t3.5 -9.5q2 -4 6 -8t6 -8l10 -6t10 -5q5 -3 9 -4.5t10 -4.5q3 -2 7.5 -2.5t7.5 -1.5q5 -1 7.5 -2.5t5.5 -2.5q3 -3 4 -5t5 -6q2 -4 2.5 -7t0.5 -8q0 -2 -0.5 -6t-3.5 -7t-4 -5.5t-4 -3.5q-3 -5 -7 -6.5
t-6 -3.5q-5 0 -8.5 -0.5t-6.5 -0.5q-6 0 -9 0.5t-6 0.5q-3 2 -6.5 3.5t-3.5 6.5l-4 1q-7 7 -15 7q-3 0 -6 -0.5t-6 -3.5l-7 -3q0 -4 2 -4q0 -4 5 -7q0 -4 4 -5q0 -2 2 -4q1 -1 2 -1q11 -9 22.5 -12.5t25.5 -3.5q6 0 12.5 0.5t12.5 3.5q5 1 12.5 4t10.5 8q5 4 9.5 8t6.5 12z
M1525 520q2 8 2.5 13.5t0.5 11.5q0 18 -3 30q-2 7 -5.5 12.5t-6.5 12.5q-5 9 -16 20q-4 4 -9.5 7.5t-12.5 9.5q-5 2 -10 5t-13 5q-6 1 -12.5 2.5t-14.5 1.5q-7 0 -13.5 -1.5t-12.5 -2.5q-8 -2 -13.5 -5t-10.5 -5q-6 -6 -11.5 -9.5t-10.5 -7.5q-5 -5 -9 -10t-7 -10
q-4 -7 -5.5 -12.5t-4.5 -12.5q-4 -11 -4 -30q0 -8 2.5 -18t6.5 -19q3 -10 8.5 -18.5t12.5 -16.5q8 -6 16.5 -11t17.5 -7q16 -8 38 -8h14.5t12.5 2q15 4 23 11q16 7 22 13q9 9 16 23q3 6 6.5 12t5.5 12zM1733 648h-26v-156q0 4 -1.5 7.5t-2.5 5.5l-96 135q-5 1 -10 7
q-3 0 -6 0.5t-6 0.5h-18v-199h26v167v-4l2 -2l2 -2v-4l116 -155h20v199zM1956 449l-87 199h-28l-88 -199h16q10 0 14 2q1 3 3 4.5t5 4.5l13 32h103l13 -32q2 -7 8 -9q1 -2 12 -2h16zM2089 473h-86v175h-28v-199h114v24zM2363 648h-27v-121q0 -8 -0.5 -12.5t-3.5 -10.5
q-1 -10 -12 -16q-3 -4 -7.5 -6.5t-8.5 -6.5q-5 -2 -9 -2.5t-11 -0.5q-13 0 -20 3q-6 4 -10.5 6.5t-6.5 6.5q-3 3 -6 7t-8 9q-1 6 -1.5 10.5t-0.5 12.5v121h-27v-121q0 -8 0.5 -13.5t2.5 -9.5q0 -10 6 -20q6 -11 15 -16q3 -3 6.5 -6t8.5 -6q3 -3 8.5 -4t9.5 -3
q6 -2 11.5 -3.5t11.5 -1.5q7 0 11 1.5t12 3.5q4 2 8.5 3t8.5 4q9 5 16 12q5 3 7.5 7t5.5 9q2 5 5 9.5t5 10.5v23v121zM2517 483q8 11 8 22q0 17 -5.5 27t-16.5 17q-6 4 -8 7q-3 1 -5.5 1.5t-5.5 2.5q-1 1 -4.5 1.5t-6.5 3.5q-1 0 -3.5 1t-5.5 2q-5 2 -7.5 3.5t-7.5 3.5
q-9 2 -10 5q-5 2 -6.5 3.5t-3.5 4.5q0 1 -0.5 3.5t-0.5 5.5q0 6 4 11q1 4 7 8q3 0 4.5 1.5t5.5 2.5q3 3 14 3q1 0 3.5 -1.5t5.5 -1.5q3 -3 11 -7q8 -2 12 -2q8 0 13 5l7 4q-2 3 -4.5 4.5t-5.5 4.5q-2 3 -5.5 6t-7.5 5q-3 1 -6.5 3t-8.5 4q-4 1 -8 2.5t-6 1.5q-6 0 -12 -1.5
t-12 -2.5q-5 -2 -10 -5t-9 -5q-4 -5 -7 -9l-6 -8q-3 -5 -5 -10t-2 -13q0 -7 2 -11.5t5 -9.5q4 -10 10 -16q5 -3 9 -6t9 -5q6 -3 11.5 -4.5t9.5 -4.5q5 -2 7.5 -2.5t5.5 -1.5l7.5 -2.5l7.5 -2.5l5 -5t3 -6q3 -4 3.5 -7t0.5 -8q0 -2 -0.5 -6t-3.5 -7q-2 -7 -9 -9
q-5 -5 -8 -6.5t-6 -3.5q-4 0 -7 -0.5t-6 -0.5q-4 0 -8.5 0.5t-7.5 0.5q-7 3 -12 10l-3 1q-7 7 -14 7q-2 0 -5.5 -0.5t-5.5 -3.5l-8 -3q1 -1 1.5 -2.5t2.5 -1.5q0 -2 1.5 -3.5t1.5 -3.5l2.5 -2.5t1.5 -2.5q5 -5 8 -5q8 -9 20 -12.5t25 -3.5q6 0 12.5 0.5t14.5 3.5q6 1 10.5 4
t10.5 8q4 4 7 8t6 12zM2681 648h-124v-199h124v24h-96v62h79v26h-79v59h96v28zM2997 520q2 8 2.5 13.5t0.5 11.5q0 8 -0.5 16t-2.5 14q-3 12 -10 25q-5 8 -18 20q-4 4 -8.5 7.5t-9.5 9.5q-6 2 -13 5t-13 5q-6 1 -12 2.5t-14 1.5t-14.5 -1.5t-12.5 -2.5q-15 -5 -25 -10
q-5 -6 -10.5 -9.5t-9.5 -7.5q-5 -5 -9 -10t-9 -10q-2 -7 -5 -12.5t-4 -12.5q-4 -11 -4 -30q0 -8 1.5 -18t6.5 -19q7 -20 23 -35q7 -6 15 -11t17 -7q16 -8 40 -8h14t12 2t13 4.5t13 6.5q5 3 9.5 6t8.5 7q12 10 18 23q7 11 10 24zM3207 648h-27v-156q-2 4 -3 7.5t-4 5.5
l-96 135q-1 1 -2 3t-4 4q-3 0 -7 0.5t-7 0.5h-20v-199h30v167q0 -4 1 -4v-4q0 -1 1 -2l2 -2l113 -155h23v199zM3371 473h-87v175h-28v-199h115v24zM3531 648h-22q-8 0 -13 -4q-8 -6 -9 -11l-48 -62q-1 -1 -1 -2q-1 -1 -3 -1v-3v3l-2 3l-46 62q-5 6 -11 11q-5 4 -13 4h-22
l74 -99q1 0 2 -4q0 -1 1 -1t2 -1v-4q0 -1 1 -2v-5v-83h30v83v5q1 0 1 6q2 0 4 2v3q0 1 1 1zM1983 787q-26 11 -50 26.5t-46 33.5h421q-21 -18 -45 -33.5t-50 -26.5q-28 -8 -57 -15.5t-59 -7.5q-31 0 -59.5 7.5t-54.5 15.5zM1921 880l411 416q39 -51 59.5 -104.5t20.5 -108.5
q0 -29 -4 -56.5t-15 -53.5q-9 -25 -22.5 -47.5t-30.5 -45.5h-419zM1860 871q-37 45 -59 97q-11 26 -14.5 55.5t-3.5 59.5q0 28 3.5 55t13.5 53q9 25 22.5 47.5t29.5 45.5h420zM2213 1377q26 -11 50 -26t44 -32h-423q47 38 99 58q50 22 114 22q62 0 116 -22zM531 116
q-5 5 -7 10t-4 11q-2 8 -3.5 13t-1.5 13q0 9 5 21q2 7 4 13.5t7 11.5q3 5 5.5 9.5t7.5 9.5q3 4 8 8t9 7q8 3 12.5 5t10.5 5q5 0 12 1.5t15 1.5q9 0 17 -2t19 -7q9 -3 16 -8t13 -11q-3 -4 -5 -4q0 -1 -1 -2t-2 -1q0 -1 -4 -1h-4q-7 0 -9 1q-5 2 -10 6t-10 5t-9.5 1h-10.5
q-8 0 -15.5 -0.5t-12.5 -1.5q-8 -5 -14 -9t-12 -9q-5 -5 -8.5 -10t-5.5 -12q-5 -8 -6 -15t-1 -13q0 -10 4 -19q2 -5 3 -9.5t2 -9.5q3 -4 6 -7t6 -7q6 -3 9.5 -6.5t8.5 -4.5q4 -2 7.5 -4.5t8.5 -4.5t10 -2h10h11t11 2t12.5 4.5t10.5 5.5v39h-15h-2q-1 0 -2 1l-4.5 3t-3.5 3
l-2.5 2.5t-1.5 2.5t-0.5 3t-0.5 4v1h52v-71q-4 -4 -6.5 -5.5t-6.5 -6.5q-8 -2 -16 -2q-9 -4 -19 -4h-17h-15t-12 1q-6 2 -10.5 4t-12.5 7q-4 2 -9 5t-8 9q-5 3 -7.5 8zM743 232v-59h73v-20h-73v-62h89v-19h-112v181h112v-21h-89zM912 72v160h-59v21h138v-21h-59v-160h-20z
M1125 232v-63h78v-18h-78v-79h-21v181h112v-21h-91zM1269 253v-112q0 -6 2 -10t5 -8q2 -8 5 -11t6 -8q3 -3 6.5 -5.5t7.5 -5.5q6 -3 11.5 -3.5t10.5 -0.5q6 0 10 0.5t8 3.5q6 3 10 5.5t9 5.5q2 5 5.5 8t5.5 11q5 6 5 18v112h20v-112q0 -8 -2 -14t-5 -14q-2 -7 -5.5 -12.5
t-8.5 -11.5q-5 -4 -11 -8t-12 -6q-15 -4 -29 -4q-15 0 -30 4q-5 2 -10.5 6t-10.5 8q-10 10 -16 24q-2 8 -4.5 14t-2.5 14v112h20zM1455 253v-162h81v-19h-103v181h22zM1577 253v-162h83v-19h-103v181h20zM1827 72l-80 181h10q7 0 11 -4q1 -2 3 -2.5t5 -3.5l57 -136v-7
q3 -3 3 -7v7q0 1 0.5 3t0.5 4q8 16 16 33t16 33q6 20 14 36.5t16 33.5q1 3 2.5 3.5t1.5 2.5q5 3 7 3.5t5 0.5h9q-9 -22 -19 -45t-21 -45q-9 -24 -18.5 -46.5t-18.5 -44.5h-20zM1960 232v-59h75v-20h-75v-62h89v-19h-109v181h109v-21h-89zM2184 156q-3 -3 -15 -5l62 -79h-14
q-3 0 -6.5 0.5t-3.5 2.5l-6 2t-5 6l-49 68h-34v-79h-20v181h66q6 0 9.5 -0.5t8.5 -3.5q10 -3 19 -10q3 -5 6 -9t5 -9q2 -4 2 -9.5v-8.5v-9.5t-2 -9.5q0 -5 -2.5 -9.5t-4.5 -6.5q-3 -3 -6.5 -6t-9.5 -6zM2159 169q8 0 10 2q3 2 6 3.5l5 2.5q3 3 4 5.5t4 5.5q0 3 1.5 6.5
t1.5 8.5q0 3 -1.5 5t-1.5 5q-3 3 -4 5.5t-4 5.5q-2 0 -5 2.5t-6 4.5q-2 1 -10 1h-46v-63h46zM2327 97q4 3 6 11q3 3 3.5 7.5t0.5 7.5q0 10 -1 14q-2 3 -4 5.5t-5 4.5q-3 4 -11 6q-5 0 -8 2t-8 4q-5 1 -9.5 3.5t-7.5 4.5q-12 2 -19 9q-2 1 -5 5t-6 7v19q0 7 0.5 11.5t2.5 9.5
q2 9 12 15q6 3 9.5 5t9.5 5q5 0 8.5 1.5t8.5 1.5q4 0 8.5 -1.5t7.5 -1.5t5.5 -2t6.5 -4q3 -2 5.5 -3.5t3.5 -3.5q5 -3 7 -5t4 -3l-5 -4q-3 -4 -11 -4h-9q-4 5 -4 7q-2 0 -3.5 0.5t-3.5 0.5h-2q-1 0 -2.5 0.5t-2.5 0.5h-5q-8 0 -11 -1q-9 0 -10 -4q-7 -7 -7 -11q-4 -1 -4 -10
q0 -7 4 -8q0 -7 4 -8q2 -2 5 -4.5t6 -2.5q4 -2 7.5 -3.5t9.5 -3.5q1 -1 4.5 -1.5t3.5 -2.5q3 0 5.5 -1t5.5 -3q2 -1 3 -1t1.5 -0.5t1.5 -0.5q2 0 4.5 -1.5t3.5 -2.5l8.5 -8.5t6.5 -7.5q4 -13 4 -24q0 -8 -1 -12.5t-6 -10.5q-1 -9 -12 -16q-4 -5 -9.5 -6.5t-8.5 -2.5
q-5 -3 -11.5 -3.5t-14.5 -0.5q-11 0 -21.5 3t-18.5 10q-3 1 -4 3.5t-6 5.5q0 3 -1.5 5t-1.5 3l3 3q2 0 2.5 1.5t3.5 1.5h3q4 0 6.5 -2t6.5 -4q5 -3 8 -5.5t7 -4.5q2 -2 6 -2h7q11 0 15 2q9 0 15 6zM2420 253v-181h-20v181h20zM2491 97q-14 12 -22 28q-6 18 -6 38
q0 5 0.5 10.5t1.5 10.5q5 15 10 25q7 10 16 19t18 15q5 3 11.5 5t11.5 5q6 0 12 1.5t12 1.5q7 0 14 -1.5t13 -1.5q5 -3 10.5 -5t10.5 -5t9.5 -7t9.5 -8q4 -5 6.5 -9.5t7.5 -9.5q5 -10 10 -25q1 -5 2.5 -10.5t1.5 -10.5q0 -9 -2.5 -19t-7.5 -19q-3 -9 -8 -16t-10 -12
q-8 -7 -15 -12.5t-17 -8.5q-10 -5 -35 -5q-9 0 -18 1t-18 4q-19 6 -29 21zM2491 191q-3 -8 -5 -15t-2 -13q0 -5 0.5 -9.5t2.5 -9.5q1 -9 8 -19q1 -4 3.5 -7t5.5 -7q4 -3 7.5 -6.5t8.5 -4.5q5 -2 9 -4.5t8 -4.5q5 -2 9.5 -2h9.5h10t10 2q5 2 9 4.5t8 4.5q3 1 7.5 4.5t7.5 6.5
q3 4 6 7t5 7q3 5 4 9.5t2 9.5q2 5 2.5 9.5t0.5 9.5q0 6 -1.5 13t-3.5 15q-2 7 -6.5 12t-8.5 10q-5 5 -11 9t-13 9q-6 1 -13 1.5t-15 0.5t-14.5 -0.5t-13.5 -1.5q-6 -5 -12 -9t-12 -9q-5 -5 -7.5 -10t-5.5 -12zM2704 72h-20v181h15q4 0 7.5 -0.5t6.5 -5.5l95 -134q1 -1 1 -5
q3 -3 3 -2v-2v149h20v-181h-16l-109 149v3h-3v7v-159zM2987 232v-63h74v-18h-74v-79h-22v181h111v-21h-89zM3192 156q-10 -4 -16 -5l57 -79h-12q-8 0 -12 3q-2 1 -3.5 2t-2.5 6l-51 68h-33v-79h-22v181h66q5 0 10 -0.5t11 -3.5q5 -2 9 -4.5t7 -5.5q3 -5 5.5 -9t7.5 -9
q0 -4 1.5 -9.5t1.5 -8.5q0 -5 -1.5 -9.5t-1.5 -9.5q-3 -5 -5 -9.5t-4 -6.5zM3176 171q3 2 4.5 3.5t3.5 2.5q7 7 8 11t1 15q0 6 -1 10t-8 11q-2 0 -3.5 2.5t-4.5 4.5q-5 1 -13 1h-44v-63h44q8 0 13 2zM3412 97q-7 -7 -14.5 -12.5t-16.5 -8.5q-7 -3 -15.5 -4t-18.5 -1
q-11 0 -20.5 1t-17.5 4q-17 6 -29 21q-6 5 -11.5 12t-8.5 16t-5 19t-2 19q0 5 0.5 10.5t2.5 10.5q1 7 3.5 13.5t4.5 11.5q4 5 8.5 9.5t7.5 9.5l10 8t10 7t11.5 5t11.5 5q6 0 11 1.5t13 1.5q5 0 11.5 -1.5t13.5 -1.5q6 -3 11 -5t9 -5q6 -3 11 -7t9 -8q4 -5 7 -9.5t6 -9.5
q7 -10 10 -25q3 -5 4 -10.5t1 -10.5q0 -9 -1.5 -19t-6.5 -19q-3 -9 -8.5 -16t-11.5 -12zM3347 89h9.5t10.5 2q4 2 7.5 4.5t6.5 4.5q5 1 9 4.5t9 6.5q3 4 5.5 7t4.5 7q2 5 4 9.5t3 9.5t1 9.5v9.5q0 6 -0.5 13t-1.5 15q-3 7 -8 12t-8 10q-8 5 -13.5 9t-10.5 9q-6 1 -13.5 1.5
t-14.5 0.5q-8 0 -15 -0.5t-13 -1.5q-8 -5 -13.5 -9t-9.5 -9q-7 -5 -10 -10t-6 -12q-3 -8 -3.5 -15t-0.5 -13v-19q2 -5 3.5 -9.5t4.5 -9.5q2 -4 5 -7l7 -7q3 -3 6 -6.5t7 -4.5q5 -2 9 -4.5t9 -4.5q4 -2 9.5 -2h10.5zM3644 249q3 3 5 3.5t4 0.5h16v-181h-18v149q0 -1 -3 -4v-1
v-3q-5 -10 -9 -21t-10 -19q-4 -10 -7.5 -17.5t-8.5 -18.5q-2 -9 -6 -17.5t-7 -15.5l-8.5 -17l-7.5 -15h-19q-11 16 -18 34t-15 35q-7 20 -15 37.5t-17 34.5v4q-3 3 -3 4v-149h-20v181h18q5 0 9 -4q3 -2 4 -2.5t1 -3.5l63 -142q0 -4 3 -4v-4q0 3 0.5 5.5t0.5 5.5q1 5 7 9
l54 130q2 3 3.5 3.5t3.5 2.5zM525 0h208v-25v-6t-1 -6q-1 -5 -3 -7l-5 -5l-139 -190h2l2 3h4h4h135v-48h-217v16q0 11 2 15q0 2 6 10q2 3 3 5.5t2 6.5q2 2 4.5 5t3.5 6l124 171h-135v49zM768 0h183v-49h-131v-67h105v-51h-105v-69h131v-48h-183v284zM1177 -49h-80v-235h-53
v235h-84v49h217v-49zM1307 0l122 -284h-30q-13 0 -22 5q-4 2 -6.5 7.5t-7.5 10.5l-15 37h-131l-14 -37q-2 -5 -3 -6t-4 -2q-2 -5 -3.5 -6.5t-4.5 -3.5q-3 -1 -5.5 -2.5t-5.5 -1.5q-1 -1 -4 -1h-5h-31l123 284h47zM1324 -173l-37 88q0 2 -1.5 4.5t-1.5 4.5q0 5 -1 8v-8
q0 -2 -1.5 -4.5t-2.5 -4.5l-36 -88h81zM1443 0h180v-49h-131v-74h109v-50h-109v-111h-49v284zM1911 -71q4 -7 7 -15t6 -18q3 -9 3.5 -18.5t0.5 -18.5q0 -11 -0.5 -20.5t-3.5 -18.5l-6 -18t-7 -18q-6 -6 -11.5 -14t-12.5 -14q-8 -7 -14 -12.5t-14 -10.5q-9 -7 -17.5 -10
t-17.5 -6q-11 -1 -20.5 -2.5t-19.5 -1.5q-15 0 -28.5 3t-27.5 8q-14 6 -25 14t-22 18q-19 20 -29 45q-6 14 -9 27.5t-3 30.5q0 9 1 18.5t3 18.5q6 21 16 33q5 11 10 17.5t11 13.5q8 6 15 11.5t17 11.5q6 4 14.5 8t19.5 6q8 2 17 4t20 2q10 0 19.5 -2t20.5 -4q9 -2 17.5 -6
t17.5 -8q8 -6 14 -11.5t14 -11.5q7 -7 12.5 -13.5t11.5 -17.5zM1871 -177q3 8 4.5 17.5t1.5 18.5q0 16 -6 34q-3 11 -8.5 17.5t-13.5 13.5q-6 6 -13 11t-16 8q-15 8 -36 8q-20 0 -37 -8q-6 -3 -13.5 -8t-13.5 -11q-8 -7 -12.5 -13.5t-8.5 -17.5q-5 -9 -6 -17t-1 -17t1 -18.5
t6 -17.5q4 -11 8.5 -18t12.5 -12q6 -7 13.5 -11.5t13.5 -9.5q10 -3 19 -5.5t18 -2.5q10 0 19 2.5t17 5.5q9 5 16 9.5t13 11.5q8 5 13.5 12t8.5 18zM2167 0h50v-284h-48l-134 191q-2 2 -2.5 3t-1.5 2q-4 5 -4 8q-4 2 -4 5q-2 2 -3 3.5t-3 3.5v-216h-52v284h47q4 0 9 -1.5
t7 -2.5q5 -1 7.5 -3t4.5 -5q15 -21 29.5 -42t27.5 -43q17 -20 31 -40.5t31 -39.5q1 -3 2.5 -6t2.5 -8q0 -2 1.5 -5t1.5 -4v200zM2243 0h217v-49h-84v-235h-52v235h-81v49zM2637 -147q5 -4 8.5 -9.5t6.5 -11.5q1 -6 2.5 -12.5t1.5 -15.5q0 -18 -8 -36q-5 -9 -9.5 -16
t-13.5 -13q-7 -6 -14 -11t-18 -8q-8 -3 -18 -5t-19 -2q-10 0 -19.5 2t-21.5 5q-8 3 -15.5 9t-15.5 14q-5 3 -8.5 7.5t-6.5 9.5q-4 4 -6 16q1 0 2 1.5t4 2.5q2 0 3 1.5t3 2.5q4 0 6 1.5t3 1.5h11q2 0 5 -0.5t5 -2.5q7 0 12 -4q6 -3 10.5 -6t8.5 -5q3 -1 8.5 -3t11.5 -2
q3 0 7.5 0.5t8.5 3.5q10 2 16 8q7 4 12 11q3 5 5 8.5t2 8.5q0 10 -7 15q-6 8 -12 8q-3 4 -7.5 5.5t-8.5 3.5q-8 2 -19 8q-7 2 -13.5 4t-12.5 5q-9 5 -15 8.5t-12 9.5q-6 4 -10 9.5t-7 11.5q-8 15 -8 32q0 22 8 33q4 8 9 14t11 12q7 4 13.5 8t15.5 6q8 2 15 4t18 2q5 0 11 -2
l12 -4q7 -1 11 -3.5t12 -5.5q4 -3 8.5 -7.5l8.5 -8.5q4 -3 8.5 -7t7.5 -9l-11 -7q-3 -2 -6.5 -4.5t-6.5 -4.5q-5 -1 -8 -1h-8h-3h-4q-8 2 -9 4q-5 1 -8 4q-3 0 -4.5 1t-3.5 1q-4 2 -7 2q-12 0 -16 -2q-4 0 -5.5 -1.5t-6.5 -3.5q-4 -2 -6 -9q-3 -3 -3 -11t3 -9q1 -3 3 -5
t3 -7q5 0 8.5 -1.5t7.5 -2.5q6 -2 12.5 -5t11.5 -5l11 -2q7 -5 14.5 -8t13.5 -7q12 -5 21 -19zM2724 -236q6 0 8 -8q1 -2 1 -6v-6q0 -8 -1 -12q-2 -6 -8 -11q-5 -2 -8 -5q-2 -2 -6 -2.5t-7 -0.5t-6.5 0.5t-4.5 2.5q-3 1 -6 2.5t-6 2.5q-2 2 -3.5 5t-3.5 6q-2 4 -2 12v6t2 6
q2 3 3.5 5.5t3.5 2.5q6 8 12 8q1 3 4.5 3.5t6.5 0.5t7 -0.5t6 -3.5q3 0 8 -8zM2832 -76q-10 -12 -20 -31q-3 -9 -5.5 -17t-2.5 -17t2.5 -18.5t5.5 -17.5q5 -11 9.5 -18t10.5 -12q7 -7 13.5 -11.5t17.5 -9.5q9 -3 18 -5.5t18 -2.5q8 0 14 2t12 3q6 2 13 5.5t13 8.5q5 1 9 4h9
q5 0 10 -0.5t8 -2.5q7 -2 10 -8l11 -12q-9 -12 -21 -20q-9 -4 -15.5 -8.5t-14.5 -7.5q-6 -5 -13.5 -7t-15.5 -4q-6 -3 -13.5 -3.5t-15.5 -0.5q-17 0 -30.5 3t-27.5 8q-27 13 -45 32q-20 20 -32 45q-5 14 -8 27.5t-3 30.5q0 9 1.5 18.5t2.5 18.5q3 10 6 18t9 15
q6 11 11.5 17.5t12.5 13.5q6 6 14.5 11.5t16.5 11.5q7 4 15 8t18 6q9 2 18.5 4t20.5 2q8 0 15.5 -0.5t13.5 -5.5q8 -1 15.5 -3.5t13.5 -5.5q8 -3 14.5 -7.5t15.5 -8.5q13 -11 21 -21l-11 -12q-2 -5 -4.5 -6.5t-5.5 -3.5q-5 -1 -9 -1h-9t-9.5 1t-8.5 4q-6 5 -13 8t-13 6
q-6 2 -12 3t-14 1q-20 0 -36 -8q-11 -3 -17.5 -8t-13.5 -11zM3297 -71q5 -7 8.5 -15t6.5 -18q3 -9 3.5 -18.5t0.5 -18.5q0 -11 -0.5 -20.5t-3.5 -18.5t-6.5 -18t-8.5 -18q-7 -14 -21 -28q-9 -7 -16 -12.5t-16 -10.5q-8 -7 -16 -10t-19 -6q-8 -1 -18 -2.5t-20 -1.5
q-28 0 -55 11q-14 6 -25 14t-20 18q-11 10 -19 21t-12 24q-6 14 -9 27.5t-3 30.5q0 9 1.5 18.5t2.5 18.5q3 10 7.5 18t8.5 15q4 11 9.5 17.5t13.5 13.5q5 6 12.5 11.5t16.5 11.5q8 4 16.5 8t16.5 6q11 2 20 4t18 2q10 0 20 -2t18 -4q11 -2 19 -6l16 -8q9 -6 16 -11.5
t16 -11.5q6 -7 12 -13.5t9 -17.5zM3257 -177q7 17 7 36q0 9 -2 17t-5 17q-3 11 -7.5 17.5t-10.5 13.5q-13 13 -32 19q-6 5 -16 6.5t-20 1.5q-19 0 -34 -8q-9 -3 -16 -8t-14 -11q-8 -7 -12.5 -13.5t-9.5 -17.5q-2 -9 -3.5 -17t-1.5 -17t1.5 -18.5t3.5 -17.5q9 -21 22 -30
q7 -7 14 -11.5t16 -9.5q8 -3 17 -5.5t17 -2.5q10 0 20 2.5t16 5.5q10 5 18 9.5t14 11.5q13 11 18 30zM3608 -3q3 0 4.5 1.5t6.5 1.5h50v-284h-50v208q-2 -3 -3 -6t-3 -7q-1 -6 -1 -9t-1 -6q-11 -22 -20 -44.5t-19 -44.5q-9 -23 -18 -45.5t-18 -45.5h-48l-73 180q-4 5 -4 15
q-2 3 -3 5t-1 5v-205h-54v284h50q5 0 7.5 -1.5t5.5 -1.5q3 -1 4.5 -1t4.5 -1l8 -8q2 -2 4 -5t3 -5q8 -21 16.5 -42.5t16.5 -42.5q8 -22 17 -43.5t18 -41.5q0 -2 0.5 -4t0.5 -3v-7q3 0 3 -6q0 6 1 6v7q0 1 1 3t1 4l12 20l57 150l2.5 5l2.5 5q2 3 5 4.5t3 3.5q3 1 5.5 1t5.5 1
z" />
    <glyph glyph-name="six" unicode="6" horiz-adv-x="4097" 
d="M2952 600q4 -5 8.5 -11t7.5 -13q3 -6 4 -14t1 -17q0 -14 -5 -28q-3 -6 -7.5 -11t-8.5 -11q-6 -5 -12.5 -9t-11.5 -9q-14 -5 -29 -5q-8 0 -15.5 1t-12.5 4q-8 5 -14 9t-10 9q-5 6 -9.5 11t-6.5 11q-3 8 -5 15t-2 13q0 17 7 31q2 7 6.5 13t9.5 11q4 6 10 9.5t14 6.5
q10 7 28 7q8 0 14.5 -2t14.5 -5q5 -3 11.5 -6.5t12.5 -9.5zM1108 576q-1 -1 -7 -9q-3 -2 -4 -4t-6 -3q-3 -3 -11 -3h-44v63h44q7 0 11 -4q5 0 6 -1.5t4 -3.5q5 -6 7 -10q3 -4 3 -13q0 -8 -3 -12zM1477 600q5 -5 10 -11t8 -13q2 -6 3.5 -14t1.5 -17q0 -6 -1.5 -13t-3.5 -15
q-3 -6 -8 -11t-10 -11q-4 -5 -9.5 -9t-12.5 -9q-6 -3 -14 -4t-16 -1q-15 0 -29 5q-6 5 -12 9t-12 9q-4 6 -8.5 11t-7.5 11q-3 8 -5 15t-2 13q0 17 7 31q3 7 7.5 13t8.5 11q6 6 12 9.5t12 6.5q8 3 15 5t14 2q16 0 30 -7q7 -3 12.5 -6.5t9.5 -9.5zM1853 616q0 -4 1.5 -7
t1.5 -5l37 -84h-77l36 84q0 3 1 4v8zM784 611q2 -3 3 -7t4 -7q2 -4 2 -13v-6.5t-2 -6.5q-3 -3 -4 -6.5t-3 -4.5q-6 -6 -12 -9t-15 -3h-44v72h44q10 0 15 -4q3 0 6 -2t6 -3zM3669 1084v-765h-3144v765h1191q0 40 7 77.5t24 71.5q16 35 35.5 66.5t48.5 56.5q50 51 120 79
q35 16 71 23t75 7q42 0 79.5 -7.5t70.5 -24.5q37 -16 67.5 -37t56.5 -47q47 -48 80 -121q26 -72 26 -144h1192zM1776 1216q-29 -62 -29 -133q0 -73 29 -134q13 -32 31.5 -60t40.5 -53q24 -24 51.5 -43t60.5 -33q62 -29 137 -29q38 0 71 6.5t64 19.5q33 14 60.5 33t51.5 43
q24 23 43.5 51.5t32.5 59.5q29 67 29 139q0 32 -5 62.5t-16 57.5q-19 54 -56 98q-18 23 -38.5 40.5t-42.5 34.5q-26 13 -51 25t-52 19q-19 7 -42 10t-49 3q-39 0 -73.5 -7t-66.5 -23q-63 -25 -110 -76q-23 -23 -40.5 -51.5t-30.5 -59.5zM816 560q7 14 7 24q0 7 -2 13t-5 14
q0 4 -5 8.5t-10 8.5q-3 4 -7.5 8t-10.5 5q-5 5 -11.5 6t-14.5 1h-69v-199h25v74h44q8 0 14.5 1t11.5 3q13 6 18 13q5 4 10 8.5t5 11.5zM965 648h-124v-199h124v24h-94v62h78v26h-78v59h94v28zM1160 449l-63 86q5 1 8.5 2t7.5 6q10 2 12 10q3 3 6 8l6 10v17q0 7 -0.5 12.5
t-3.5 11.5q-5 9 -13 17q-5 11 -19 12q-3 5 -9 6t-12 1h-72v-199h28v82h31l52 -71q2 -7 9 -9q2 -2 6 -2h7h19zM1296 483q1 6 2.5 11t1.5 11q0 17 -5 27t-15 17q-3 2 -4.5 3.5t-6.5 3.5q-1 1 -3.5 1.5t-4.5 2.5q-3 1 -5.5 1.5t-2.5 3.5q-7 0 -10 3q-8 2 -11 3.5t-8 3.5
q-8 2 -11 5q-6 4 -6 8v9v11l4 4t2 4q3 0 6 1.5l5 2.5q5 2 7.5 2.5t7.5 0.5q1 0 3.5 -1.5t4.5 -1.5q8 -1 10 -7q3 -1 5.5 -1.5t6.5 -0.5q10 0 15 5l9 4q-2 3 -4.5 4.5t-5.5 4.5l-6 6t-9 5q-3 1 -6.5 3t-8.5 4q-5 1 -8 2.5t-6 1.5q-6 0 -12.5 -1.5t-10.5 -2.5q-7 -2 -11 -5
t-9 -5q-4 -5 -8.5 -9t-6.5 -8q-1 -5 -2.5 -10t-1.5 -13q0 -7 0.5 -11.5t3.5 -9.5q2 -4 6 -8t6 -8l10 -6t10 -5q5 -3 9 -4.5t10 -4.5q3 -2 7.5 -2.5t7.5 -1.5q5 -1 7.5 -2.5t5.5 -2.5q3 -3 4 -5t5 -6q2 -4 2.5 -7t0.5 -8q0 -2 -0.5 -6t-3.5 -7t-4 -5.5t-4 -3.5q-3 -5 -7 -6.5
t-6 -3.5q-5 0 -8.5 -0.5t-6.5 -0.5q-6 0 -9 0.5t-6 0.5q-3 2 -6.5 3.5t-3.5 6.5l-4 1q-7 7 -15 7q-3 0 -6 -0.5t-6 -3.5l-7 -3q0 -4 2 -4q0 -4 5 -7q0 -4 4 -5q0 -2 2 -4q1 -1 2 -1q11 -9 22.5 -12.5t25.5 -3.5q6 0 12.5 0.5t12.5 3.5q5 1 12.5 4t10.5 8q5 4 9.5 8t6.5 12z
M1525 520q2 8 2.5 13.5t0.5 11.5q0 18 -3 30q-2 7 -5.5 12.5t-6.5 12.5q-5 9 -16 20q-4 4 -9.5 7.5t-12.5 9.5q-5 2 -10 5t-13 5q-6 1 -12.5 2.5t-14.5 1.5q-7 0 -13.5 -1.5t-12.5 -2.5q-8 -2 -13.5 -5t-10.5 -5q-6 -6 -11.5 -9.5t-10.5 -7.5q-5 -5 -9 -10t-7 -10
q-4 -7 -5.5 -12.5t-4.5 -12.5q-4 -11 -4 -30q0 -8 2.5 -18t6.5 -19q3 -10 8.5 -18.5t12.5 -16.5q8 -6 16.5 -11t17.5 -7q16 -8 38 -8h14.5t12.5 2q15 4 23 11q16 7 22 13q9 9 16 23q3 6 6.5 12t5.5 12zM1733 648h-26v-156q0 4 -1.5 7.5t-2.5 5.5l-96 135q-5 1 -10 7
q-3 0 -6 0.5t-6 0.5h-18v-199h26v167v-4l2 -2l2 -2v-4l116 -155h20v199zM1956 449l-87 199h-28l-88 -199h16q10 0 14 2q1 3 3 4.5t5 4.5l13 32h103l13 -32q2 -7 8 -9q1 -2 12 -2h16zM2089 473h-86v175h-28v-199h114v24zM2363 648h-27v-121q0 -8 -0.5 -12.5t-3.5 -10.5
q-1 -10 -12 -16q-3 -4 -7.5 -6.5t-8.5 -6.5q-5 -2 -9 -2.5t-11 -0.5q-13 0 -20 3q-6 4 -10.5 6.5t-6.5 6.5q-3 3 -6 7t-8 9q-1 6 -1.5 10.5t-0.5 12.5v121h-27v-121q0 -8 0.5 -13.5t2.5 -9.5q0 -10 6 -20q6 -11 15 -16q3 -3 6.5 -6t8.5 -6q3 -3 8.5 -4t9.5 -3
q6 -2 11.5 -3.5t11.5 -1.5q7 0 11 1.5t12 3.5q4 2 8.5 3t8.5 4q9 5 16 12q5 3 7.5 7t5.5 9q2 5 5 9.5t5 10.5v23v121zM2517 483q8 11 8 22q0 17 -5.5 27t-16.5 17q-6 4 -8 7q-3 1 -5.5 1.5t-5.5 2.5q-1 1 -4.5 1.5t-6.5 3.5q-1 0 -3.5 1t-5.5 2q-5 2 -7.5 3.5t-7.5 3.5
q-9 2 -10 5q-5 2 -6.5 3.5t-3.5 4.5q0 1 -0.5 3.5t-0.5 5.5q0 6 4 11q1 4 7 8q3 0 4.5 1.5t5.5 2.5q3 3 14 3q1 0 3.5 -1.5t5.5 -1.5q3 -3 11 -7q8 -2 12 -2q8 0 13 5l7 4q-2 3 -4.5 4.5t-5.5 4.5q-2 3 -5.5 6t-7.5 5q-3 1 -6.5 3t-8.5 4q-4 1 -8 2.5t-6 1.5q-6 0 -12 -1.5
t-12 -2.5q-5 -2 -10 -5t-9 -5q-4 -5 -7 -9l-6 -8q-3 -5 -5 -10t-2 -13q0 -7 2 -11.5t5 -9.5q4 -10 10 -16q5 -3 9 -6t9 -5q6 -3 11.5 -4.5t9.5 -4.5q5 -2 7.5 -2.5t5.5 -1.5l7.5 -2.5l7.5 -2.5l5 -5t3 -6q3 -4 3.5 -7t0.5 -8q0 -2 -0.5 -6t-3.5 -7q-2 -7 -9 -9
q-5 -5 -8 -6.5t-6 -3.5q-4 0 -7 -0.5t-6 -0.5q-4 0 -8.5 0.5t-7.5 0.5q-7 3 -12 10l-3 1q-7 7 -14 7q-2 0 -5.5 -0.5t-5.5 -3.5l-8 -3q1 -1 1.5 -2.5t2.5 -1.5q0 -2 1.5 -3.5t1.5 -3.5l2.5 -2.5t1.5 -2.5q5 -5 8 -5q8 -9 20 -12.5t25 -3.5q6 0 12.5 0.5t14.5 3.5q6 1 10.5 4
t10.5 8q4 4 7 8t6 12zM2681 648h-124v-199h124v24h-96v62h79v26h-79v59h96v28zM2997 520q2 8 2.5 13.5t0.5 11.5q0 8 -0.5 16t-2.5 14q-3 12 -10 25q-5 8 -18 20q-4 4 -8.5 7.5t-9.5 9.5q-6 2 -13 5t-13 5q-6 1 -12 2.5t-14 1.5t-14.5 -1.5t-12.5 -2.5q-15 -5 -25 -10
q-5 -6 -10.5 -9.5t-9.5 -7.5q-5 -5 -9 -10t-9 -10q-2 -7 -5 -12.5t-4 -12.5q-4 -11 -4 -30q0 -8 1.5 -18t6.5 -19q7 -20 23 -35q7 -6 15 -11t17 -7q16 -8 40 -8h14t12 2t13 4.5t13 6.5q5 3 9.5 6t8.5 7q12 10 18 23q7 11 10 24zM3207 648h-27v-156q-2 4 -3 7.5t-4 5.5
l-96 135q-1 1 -2 3t-4 4q-3 0 -7 0.5t-7 0.5h-20v-199h30v167q0 -4 1 -4v-4q0 -1 1 -2l2 -2l113 -155h23v199zM3371 473h-87v175h-28v-199h115v24zM3531 648h-22q-8 0 -13 -4q-8 -6 -9 -11l-48 -62q-1 -1 -1 -2q-1 -1 -3 -1v-3v3l-2 3l-46 62q-5 6 -11 11q-5 4 -13 4h-22
l74 -99q1 0 2 -4q0 -1 1 -1t2 -1v-4q0 -1 1 -2v-5v-83h30v83v5q1 0 1 6q2 0 4 2v3q0 1 1 1zM1983 787q-26 11 -50 26.5t-46 33.5h421q-21 -18 -45 -33.5t-50 -26.5q-28 -8 -57 -15.5t-59 -7.5q-31 0 -59.5 7.5t-54.5 15.5zM1921 880l411 416q39 -51 59.5 -104.5t20.5 -108.5
q0 -29 -4 -56.5t-15 -53.5q-9 -25 -22.5 -47.5t-30.5 -45.5h-419zM1860 871q-37 45 -59 97q-11 26 -14.5 55.5t-3.5 59.5q0 28 3.5 55t13.5 53q9 25 22.5 47.5t29.5 45.5h420zM2213 1377q26 -11 50 -26t44 -32h-423q47 38 99 58q50 22 114 22q62 0 116 -22zM531 116
q-5 5 -7 10t-4 11q-2 8 -3.5 13t-1.5 13q0 9 5 21q2 7 4 13.5t7 11.5q3 5 5.5 9.5t7.5 9.5q3 4 8 8t9 7q8 3 12.5 5t10.5 5q5 0 12 1.5t15 1.5q9 0 17 -2t19 -7q9 -3 16 -8t13 -11q-3 -4 -5 -4q0 -1 -1 -2t-2 -1q0 -1 -4 -1h-4q-7 0 -9 1q-5 2 -10 6t-10 5t-9.5 1h-10.5
q-8 0 -15.5 -0.5t-12.5 -1.5q-8 -5 -14 -9t-12 -9q-5 -5 -8.5 -10t-5.5 -12q-5 -8 -6 -15t-1 -13q0 -10 4 -19q2 -5 3 -9.5t2 -9.5q3 -4 6 -7t6 -7q6 -3 9.5 -6.5t8.5 -4.5q4 -2 7.5 -4.5t8.5 -4.5t10 -2h10h11t11 2t12.5 4.5t10.5 5.5v39h-15h-2q-1 0 -2 1l-4.5 3t-3.5 3
l-2.5 2.5t-1.5 2.5t-0.5 3t-0.5 4v1h52v-71q-4 -4 -6.5 -5.5t-6.5 -6.5q-8 -2 -16 -2q-9 -4 -19 -4h-17h-15t-12 1q-6 2 -10.5 4t-12.5 7q-4 2 -9 5t-8 9q-5 3 -7.5 8zM743 232v-59h73v-20h-73v-62h89v-19h-112v181h112v-21h-89zM912 72v160h-59v21h138v-21h-59v-160h-20z
M1125 232v-63h78v-18h-78v-79h-21v181h112v-21h-91zM1269 253v-112q0 -6 2 -10t5 -8q2 -8 5 -11t6 -8q3 -3 6.5 -5.5t7.5 -5.5q6 -3 11.5 -3.5t10.5 -0.5q6 0 10 0.5t8 3.5q6 3 10 5.5t9 5.5q2 5 5.5 8t5.5 11q5 6 5 18v112h20v-112q0 -8 -2 -14t-5 -14q-2 -7 -5.5 -12.5
t-8.5 -11.5q-5 -4 -11 -8t-12 -6q-15 -4 -29 -4q-15 0 -30 4q-5 2 -10.5 6t-10.5 8q-10 10 -16 24q-2 8 -4.5 14t-2.5 14v112h20zM1455 253v-162h81v-19h-103v181h22zM1577 253v-162h83v-19h-103v181h20zM1827 72l-80 181h10q7 0 11 -4q1 -2 3 -2.5t5 -3.5l57 -136v-7
q3 -3 3 -7v7q0 1 0.5 3t0.5 4q8 16 16 33t16 33q6 20 14 36.5t16 33.5q1 3 2.5 3.5t1.5 2.5q5 3 7 3.5t5 0.5h9q-9 -22 -19 -45t-21 -45q-9 -24 -18.5 -46.5t-18.5 -44.5h-20zM1960 232v-59h75v-20h-75v-62h89v-19h-109v181h109v-21h-89zM2184 156q-3 -3 -15 -5l62 -79h-14
q-3 0 -6.5 0.5t-3.5 2.5l-6 2t-5 6l-49 68h-34v-79h-20v181h66q6 0 9.5 -0.5t8.5 -3.5q10 -3 19 -10q3 -5 6 -9t5 -9q2 -4 2 -9.5v-8.5v-9.5t-2 -9.5q0 -5 -2.5 -9.5t-4.5 -6.5q-3 -3 -6.5 -6t-9.5 -6zM2159 169q8 0 10 2q3 2 6 3.5l5 2.5q3 3 4 5.5t4 5.5q0 3 1.5 6.5
t1.5 8.5q0 3 -1.5 5t-1.5 5q-3 3 -4 5.5t-4 5.5q-2 0 -5 2.5t-6 4.5q-2 1 -10 1h-46v-63h46zM2327 97q4 3 6 11q3 3 3.5 7.5t0.5 7.5q0 10 -1 14q-2 3 -4 5.5t-5 4.5q-3 4 -11 6q-5 0 -8 2t-8 4q-5 1 -9.5 3.5t-7.5 4.5q-12 2 -19 9q-2 1 -5 5t-6 7v19q0 7 0.5 11.5t2.5 9.5
q2 9 12 15q6 3 9.5 5t9.5 5q5 0 8.5 1.5t8.5 1.5q4 0 8.5 -1.5t7.5 -1.5t5.5 -2t6.5 -4q3 -2 5.5 -3.5t3.5 -3.5q5 -3 7 -5t4 -3l-5 -4q-3 -4 -11 -4h-9q-4 5 -4 7q-2 0 -3.5 0.5t-3.5 0.5h-2q-1 0 -2.5 0.5t-2.5 0.5h-5q-8 0 -11 -1q-9 0 -10 -4q-7 -7 -7 -11q-4 -1 -4 -10
q0 -7 4 -8q0 -7 4 -8q2 -2 5 -4.5t6 -2.5q4 -2 7.5 -3.5t9.5 -3.5q1 -1 4.5 -1.5t3.5 -2.5q3 0 5.5 -1t5.5 -3q2 -1 3 -1t1.5 -0.5t1.5 -0.5q2 0 4.5 -1.5t3.5 -2.5l8.5 -8.5t6.5 -7.5q4 -13 4 -24q0 -8 -1 -12.5t-6 -10.5q-1 -9 -12 -16q-4 -5 -9.5 -6.5t-8.5 -2.5
q-5 -3 -11.5 -3.5t-14.5 -0.5q-11 0 -21.5 3t-18.5 10q-3 1 -4 3.5t-6 5.5q0 3 -1.5 5t-1.5 3l3 3q2 0 2.5 1.5t3.5 1.5h3q4 0 6.5 -2t6.5 -4q5 -3 8 -5.5t7 -4.5q2 -2 6 -2h7q11 0 15 2q9 0 15 6zM2420 253v-181h-20v181h20zM2491 97q-14 12 -22 28q-6 18 -6 38
q0 5 0.5 10.5t1.5 10.5q5 15 10 25q7 10 16 19t18 15q5 3 11.5 5t11.5 5q6 0 12 1.5t12 1.5q7 0 14 -1.5t13 -1.5q5 -3 10.5 -5t10.5 -5t9.5 -7t9.5 -8q4 -5 6.5 -9.5t7.5 -9.5q5 -10 10 -25q1 -5 2.5 -10.5t1.5 -10.5q0 -9 -2.5 -19t-7.5 -19q-3 -9 -8 -16t-10 -12
q-8 -7 -15 -12.5t-17 -8.5q-10 -5 -35 -5q-9 0 -18 1t-18 4q-19 6 -29 21zM2491 191q-3 -8 -5 -15t-2 -13q0 -5 0.5 -9.5t2.5 -9.5q1 -9 8 -19q1 -4 3.5 -7t5.5 -7q4 -3 7.5 -6.5t8.5 -4.5q5 -2 9 -4.5t8 -4.5q5 -2 9.5 -2h9.5h10t10 2q5 2 9 4.5t8 4.5q3 1 7.5 4.5t7.5 6.5
q3 4 6 7t5 7q3 5 4 9.5t2 9.5q2 5 2.5 9.5t0.5 9.5q0 6 -1.5 13t-3.5 15q-2 7 -6.5 12t-8.5 10q-5 5 -11 9t-13 9q-6 1 -13 1.5t-15 0.5t-14.5 -0.5t-13.5 -1.5q-6 -5 -12 -9t-12 -9q-5 -5 -7.5 -10t-5.5 -12zM2704 72h-20v181h15q4 0 7.5 -0.5t6.5 -5.5l95 -134q1 -1 1 -5
q3 -3 3 -2v-2v149h20v-181h-16l-109 149v3h-3v7v-159zM2987 232v-63h74v-18h-74v-79h-22v181h111v-21h-89zM3192 156q-10 -4 -16 -5l57 -79h-12q-8 0 -12 3q-2 1 -3.5 2t-2.5 6l-51 68h-33v-79h-22v181h66q5 0 10 -0.5t11 -3.5q5 -2 9 -4.5t7 -5.5q3 -5 5.5 -9t7.5 -9
q0 -4 1.5 -9.5t1.5 -8.5q0 -5 -1.5 -9.5t-1.5 -9.5q-3 -5 -5 -9.5t-4 -6.5zM3176 171q3 2 4.5 3.5t3.5 2.5q7 7 8 11t1 15q0 6 -1 10t-8 11q-2 0 -3.5 2.5t-4.5 4.5q-5 1 -13 1h-44v-63h44q8 0 13 2zM3412 97q-7 -7 -14.5 -12.5t-16.5 -8.5q-7 -3 -15.5 -4t-18.5 -1
q-11 0 -20.5 1t-17.5 4q-17 6 -29 21q-6 5 -11.5 12t-8.5 16t-5 19t-2 19q0 5 0.5 10.5t2.5 10.5q1 7 3.5 13.5t4.5 11.5q4 5 8.5 9.5t7.5 9.5l10 8t10 7t11.5 5t11.5 5q6 0 11 1.5t13 1.5q5 0 11.5 -1.5t13.5 -1.5q6 -3 11 -5t9 -5q6 -3 11 -7t9 -8q4 -5 7 -9.5t6 -9.5
q7 -10 10 -25q3 -5 4 -10.5t1 -10.5q0 -9 -1.5 -19t-6.5 -19q-3 -9 -8.5 -16t-11.5 -12zM3347 89h9.5t10.5 2q4 2 7.5 4.5t6.5 4.5q5 1 9 4.5t9 6.5q3 4 5.5 7t4.5 7q2 5 4 9.5t3 9.5t1 9.5v9.5q0 6 -0.5 13t-1.5 15q-3 7 -8 12t-8 10q-8 5 -13.5 9t-10.5 9q-6 1 -13.5 1.5
t-14.5 0.5q-8 0 -15 -0.5t-13 -1.5q-8 -5 -13.5 -9t-9.5 -9q-7 -5 -10 -10t-6 -12q-3 -8 -3.5 -15t-0.5 -13v-19q2 -5 3.5 -9.5t4.5 -9.5q2 -4 5 -7l7 -7q3 -3 6 -6.5t7 -4.5q5 -2 9 -4.5t9 -4.5q4 -2 9.5 -2h10.5zM3644 249q3 3 5 3.5t4 0.5h16v-181h-18v149q0 -1 -3 -4v-1
v-3q-5 -10 -9 -21t-10 -19q-4 -10 -7.5 -17.5t-8.5 -18.5q-2 -9 -6 -17.5t-7 -15.5l-8.5 -17l-7.5 -15h-19q-11 16 -18 34t-15 35q-7 20 -15 37.5t-17 34.5v4q-3 3 -3 4v-149h-20v181h18q5 0 9 -4q3 -2 4 -2.5t1 -3.5l63 -142q0 -4 3 -4v-4q0 3 0.5 5.5t0.5 5.5q1 5 7 9
l54 130q2 3 3.5 3.5t3.5 2.5zM525 0h208v-25v-6t-1 -6q-1 -5 -3 -7l-5 -5l-139 -190h2l2 3h4h4h135v-48h-217v16q0 11 2 15q0 2 6 10q2 3 3 5.5t2 6.5q2 2 4.5 5t3.5 6l124 171h-135v49zM768 0h183v-49h-131v-67h105v-51h-105v-69h131v-48h-183v284zM1177 -49h-80v-235h-53
v235h-84v49h217v-49zM1307 0l122 -284h-30q-13 0 -22 5q-4 2 -6.5 7.5t-7.5 10.5l-15 37h-131l-14 -37q-2 -5 -3 -6t-4 -2q-2 -5 -3.5 -6.5t-4.5 -3.5q-3 -1 -5.5 -2.5t-5.5 -1.5q-1 -1 -4 -1h-5h-31l123 284h47zM1324 -173l-37 88q0 2 -1.5 4.5t-1.5 4.5q0 5 -1 8v-8
q0 -2 -1.5 -4.5t-2.5 -4.5l-36 -88h81zM1443 0h180v-49h-131v-74h109v-50h-109v-111h-49v284zM1911 -71q4 -7 7 -15t6 -18q3 -9 3.5 -18.5t0.5 -18.5q0 -11 -0.5 -20.5t-3.5 -18.5l-6 -18t-7 -18q-6 -6 -11.5 -14t-12.5 -14q-8 -7 -14 -12.5t-14 -10.5q-9 -7 -17.5 -10
t-17.5 -6q-11 -1 -20.5 -2.5t-19.5 -1.5q-15 0 -28.5 3t-27.5 8q-14 6 -25 14t-22 18q-19 20 -29 45q-6 14 -9 27.5t-3 30.5q0 9 1 18.5t3 18.5q6 21 16 33q5 11 10 17.5t11 13.5q8 6 15 11.5t17 11.5q6 4 14.5 8t19.5 6q8 2 17 4t20 2q10 0 19.5 -2t20.5 -4q9 -2 17.5 -6
t17.5 -8q8 -6 14 -11.5t14 -11.5q7 -7 12.5 -13.5t11.5 -17.5zM1871 -177q3 8 4.5 17.5t1.5 18.5q0 16 -6 34q-3 11 -8.5 17.5t-13.5 13.5q-6 6 -13 11t-16 8q-15 8 -36 8q-20 0 -37 -8q-6 -3 -13.5 -8t-13.5 -11q-8 -7 -12.5 -13.5t-8.5 -17.5q-5 -9 -6 -17t-1 -17t1 -18.5
t6 -17.5q4 -11 8.5 -18t12.5 -12q6 -7 13.5 -11.5t13.5 -9.5q10 -3 19 -5.5t18 -2.5q10 0 19 2.5t17 5.5q9 5 16 9.5t13 11.5q8 5 13.5 12t8.5 18zM2167 0h50v-284h-48l-134 191q-2 2 -2.5 3t-1.5 2q-4 5 -4 8q-4 2 -4 5q-2 2 -3 3.5t-3 3.5v-216h-52v284h47q4 0 9 -1.5
t7 -2.5q5 -1 7.5 -3t4.5 -5q15 -21 29.5 -42t27.5 -43q17 -20 31 -40.5t31 -39.5q1 -3 2.5 -6t2.5 -8q0 -2 1.5 -5t1.5 -4v200zM2243 0h217v-49h-84v-235h-52v235h-81v49zM2637 -147q5 -4 8.5 -9.5t6.5 -11.5q1 -6 2.5 -12.5t1.5 -15.5q0 -18 -8 -36q-5 -9 -9.5 -16
t-13.5 -13q-7 -6 -14 -11t-18 -8q-8 -3 -18 -5t-19 -2q-10 0 -19.5 2t-21.5 5q-8 3 -15.5 9t-15.5 14q-5 3 -8.5 7.5t-6.5 9.5q-4 4 -6 16q1 0 2 1.5t4 2.5q2 0 3 1.5t3 2.5q4 0 6 1.5t3 1.5h11q2 0 5 -0.5t5 -2.5q7 0 12 -4q6 -3 10.5 -6t8.5 -5q3 -1 8.5 -3t11.5 -2
q3 0 7.5 0.5t8.5 3.5q10 2 16 8q7 4 12 11q3 5 5 8.5t2 8.5q0 10 -7 15q-6 8 -12 8q-3 4 -7.5 5.5t-8.5 3.5q-8 2 -19 8q-7 2 -13.5 4t-12.5 5q-9 5 -15 8.5t-12 9.5q-6 4 -10 9.5t-7 11.5q-8 15 -8 32q0 22 8 33q4 8 9 14t11 12q7 4 13.5 8t15.5 6q8 2 15 4t18 2q5 0 11 -2
l12 -4q7 -1 11 -3.5t12 -5.5q4 -3 8.5 -7.5l8.5 -8.5q4 -3 8.5 -7t7.5 -9l-11 -7q-3 -2 -6.5 -4.5t-6.5 -4.5q-5 -1 -8 -1h-8h-3h-4q-8 2 -9 4q-5 1 -8 4q-3 0 -4.5 1t-3.5 1q-4 2 -7 2q-12 0 -16 -2q-4 0 -5.5 -1.5t-6.5 -3.5q-4 -2 -6 -9q-3 -3 -3 -11t3 -9q1 -3 3 -5
t3 -7q5 0 8.5 -1.5t7.5 -2.5q6 -2 12.5 -5t11.5 -5l11 -2q7 -5 14.5 -8t13.5 -7q12 -5 21 -19zM2724 -236q6 0 8 -8q1 -2 1 -6v-6q0 -8 -1 -12q-2 -6 -8 -11q-5 -2 -8 -5q-2 -2 -6 -2.5t-7 -0.5t-6.5 0.5t-4.5 2.5q-3 1 -6 2.5t-6 2.5q-2 2 -3.5 5t-3.5 6q-2 4 -2 12v6t2 6
q2 3 3.5 5.5t3.5 2.5q6 8 12 8q1 3 4.5 3.5t6.5 0.5t7 -0.5t6 -3.5q3 0 8 -8zM2832 -76q-10 -12 -20 -31q-3 -9 -5.5 -17t-2.5 -17t2.5 -18.5t5.5 -17.5q5 -11 9.5 -18t10.5 -12q7 -7 13.5 -11.5t17.5 -9.5q9 -3 18 -5.5t18 -2.5q8 0 14 2t12 3q6 2 13 5.5t13 8.5q5 1 9 4h9
q5 0 10 -0.5t8 -2.5q7 -2 10 -8l11 -12q-9 -12 -21 -20q-9 -4 -15.5 -8.5t-14.5 -7.5q-6 -5 -13.5 -7t-15.5 -4q-6 -3 -13.5 -3.5t-15.5 -0.5q-17 0 -30.5 3t-27.5 8q-27 13 -45 32q-20 20 -32 45q-5 14 -8 27.5t-3 30.5q0 9 1.5 18.5t2.5 18.5q3 10 6 18t9 15
q6 11 11.5 17.5t12.5 13.5q6 6 14.5 11.5t16.5 11.5q7 4 15 8t18 6q9 2 18.5 4t20.5 2q8 0 15.5 -0.5t13.5 -5.5q8 -1 15.5 -3.5t13.5 -5.5q8 -3 14.5 -7.5t15.5 -8.5q13 -11 21 -21l-11 -12q-2 -5 -4.5 -6.5t-5.5 -3.5q-5 -1 -9 -1h-9t-9.5 1t-8.5 4q-6 5 -13 8t-13 6
q-6 2 -12 3t-14 1q-20 0 -36 -8q-11 -3 -17.5 -8t-13.5 -11zM3297 -71q5 -7 8.5 -15t6.5 -18q3 -9 3.5 -18.5t0.5 -18.5q0 -11 -0.5 -20.5t-3.5 -18.5t-6.5 -18t-8.5 -18q-7 -14 -21 -28q-9 -7 -16 -12.5t-16 -10.5q-8 -7 -16 -10t-19 -6q-8 -1 -18 -2.5t-20 -1.5
q-28 0 -55 11q-14 6 -25 14t-20 18q-11 10 -19 21t-12 24q-6 14 -9 27.5t-3 30.5q0 9 1.5 18.5t2.5 18.5q3 10 7.5 18t8.5 15q4 11 9.5 17.5t13.5 13.5q5 6 12.5 11.5t16.5 11.5q8 4 16.5 8t16.5 6q11 2 20 4t18 2q10 0 20 -2t18 -4q11 -2 19 -6l16 -8q9 -6 16 -11.5
t16 -11.5q6 -7 12 -13.5t9 -17.5zM3257 -177q7 17 7 36q0 9 -2 17t-5 17q-3 11 -7.5 17.5t-10.5 13.5q-13 13 -32 19q-6 5 -16 6.5t-20 1.5q-19 0 -34 -8q-9 -3 -16 -8t-14 -11q-8 -7 -12.5 -13.5t-9.5 -17.5q-2 -9 -3.5 -17t-1.5 -17t1.5 -18.5t3.5 -17.5q9 -21 22 -30
q7 -7 14 -11.5t16 -9.5q8 -3 17 -5.5t17 -2.5q10 0 20 2.5t16 5.5q10 5 18 9.5t14 11.5q13 11 18 30zM3608 -3q3 0 4.5 1.5t6.5 1.5h50v-284h-50v208q-2 -3 -3 -6t-3 -7q-1 -6 -1 -9t-1 -6q-11 -22 -20 -44.5t-19 -44.5q-9 -23 -18 -45.5t-18 -45.5h-48l-73 180q-4 5 -4 15
q-2 3 -3 5t-1 5v-205h-54v284h50q5 0 7.5 -1.5t5.5 -1.5q3 -1 4.5 -1t4.5 -1l8 -8q2 -2 4 -5t3 -5q8 -21 16.5 -42.5t16.5 -42.5q8 -22 17 -43.5t18 -41.5q0 -2 0.5 -4t0.5 -3v-7q3 0 3 -6q0 6 1 6v7q0 1 1 3t1 4l12 20l57 150l2.5 5l2.5 5q2 3 5 4.5t3 3.5q3 1 5.5 1t5.5 1
z" />
    <glyph glyph-name="seven" unicode="7" horiz-adv-x="4097" 
d="M2952 600q4 -5 8.5 -11t7.5 -13q3 -6 4 -14t1 -17q0 -14 -5 -28q-3 -6 -7.5 -11t-8.5 -11q-6 -5 -12.5 -9t-11.5 -9q-14 -5 -29 -5q-8 0 -15.5 1t-12.5 4q-8 5 -14 9t-10 9q-5 6 -9.5 11t-6.5 11q-3 8 -5 15t-2 13q0 17 7 31q2 7 6.5 13t9.5 11q4 6 10 9.5t14 6.5
q10 7 28 7q8 0 14.5 -2t14.5 -5q5 -3 11.5 -6.5t12.5 -9.5zM1108 576q-1 -1 -7 -9q-3 -2 -4 -4t-6 -3q-3 -3 -11 -3h-44v63h44q7 0 11 -4q5 0 6 -1.5t4 -3.5q5 -6 7 -10q3 -4 3 -13q0 -8 -3 -12zM1477 600q5 -5 10 -11t8 -13q2 -6 3.5 -14t1.5 -17q0 -6 -1.5 -13t-3.5 -15
q-3 -6 -8 -11t-10 -11q-4 -5 -9.5 -9t-12.5 -9q-6 -3 -14 -4t-16 -1q-15 0 -29 5q-6 5 -12 9t-12 9q-4 6 -8.5 11t-7.5 11q-3 8 -5 15t-2 13q0 17 7 31q3 7 7.5 13t8.5 11q6 6 12 9.5t12 6.5q8 3 15 5t14 2q16 0 30 -7q7 -3 12.5 -6.5t9.5 -9.5zM1853 616q0 -4 1.5 -7
t1.5 -5l37 -84h-77l36 84q0 3 1 4v8zM784 611q2 -3 3 -7t4 -7q2 -4 2 -13v-6.5t-2 -6.5q-3 -3 -4 -6.5t-3 -4.5q-6 -6 -12 -9t-15 -3h-44v72h44q10 0 15 -4q3 0 6 -2t6 -3zM3669 1084v-765h-3144v765h1191q0 40 7 77.5t24 71.5q16 35 35.5 66.5t48.5 56.5q50 51 120 79
q35 16 71 23t75 7q42 0 79.5 -7.5t70.5 -24.5q37 -16 67.5 -37t56.5 -47q47 -48 80 -121q26 -72 26 -144h1192zM1776 1216q-29 -62 -29 -133q0 -73 29 -134q13 -32 31.5 -60t40.5 -53q24 -24 51.5 -43t60.5 -33q62 -29 137 -29q38 0 71 6.5t64 19.5q33 14 60.5 33t51.5 43
q24 23 43.5 51.5t32.5 59.5q29 67 29 139q0 32 -5 62.5t-16 57.5q-19 54 -56 98q-18 23 -38.5 40.5t-42.5 34.5q-26 13 -51 25t-52 19q-19 7 -42 10t-49 3q-39 0 -73.5 -7t-66.5 -23q-63 -25 -110 -76q-23 -23 -40.5 -51.5t-30.5 -59.5zM816 560q7 14 7 24q0 7 -2 13t-5 14
q0 4 -5 8.5t-10 8.5q-3 4 -7.5 8t-10.5 5q-5 5 -11.5 6t-14.5 1h-69v-199h25v74h44q8 0 14.5 1t11.5 3q13 6 18 13q5 4 10 8.5t5 11.5zM965 648h-124v-199h124v24h-94v62h78v26h-78v59h94v28zM1160 449l-63 86q5 1 8.5 2t7.5 6q10 2 12 10q3 3 6 8l6 10v17q0 7 -0.5 12.5
t-3.5 11.5q-5 9 -13 17q-5 11 -19 12q-3 5 -9 6t-12 1h-72v-199h28v82h31l52 -71q2 -7 9 -9q2 -2 6 -2h7h19zM1296 483q1 6 2.5 11t1.5 11q0 17 -5 27t-15 17q-3 2 -4.5 3.5t-6.5 3.5q-1 1 -3.5 1.5t-4.5 2.5q-3 1 -5.5 1.5t-2.5 3.5q-7 0 -10 3q-8 2 -11 3.5t-8 3.5
q-8 2 -11 5q-6 4 -6 8v9v11l4 4t2 4q3 0 6 1.5l5 2.5q5 2 7.5 2.5t7.5 0.5q1 0 3.5 -1.5t4.5 -1.5q8 -1 10 -7q3 -1 5.5 -1.5t6.5 -0.5q10 0 15 5l9 4q-2 3 -4.5 4.5t-5.5 4.5l-6 6t-9 5q-3 1 -6.5 3t-8.5 4q-5 1 -8 2.5t-6 1.5q-6 0 -12.5 -1.5t-10.5 -2.5q-7 -2 -11 -5
t-9 -5q-4 -5 -8.5 -9t-6.5 -8q-1 -5 -2.5 -10t-1.5 -13q0 -7 0.5 -11.5t3.5 -9.5q2 -4 6 -8t6 -8l10 -6t10 -5q5 -3 9 -4.5t10 -4.5q3 -2 7.5 -2.5t7.5 -1.5q5 -1 7.5 -2.5t5.5 -2.5q3 -3 4 -5t5 -6q2 -4 2.5 -7t0.5 -8q0 -2 -0.5 -6t-3.5 -7t-4 -5.5t-4 -3.5q-3 -5 -7 -6.5
t-6 -3.5q-5 0 -8.5 -0.5t-6.5 -0.5q-6 0 -9 0.5t-6 0.5q-3 2 -6.5 3.5t-3.5 6.5l-4 1q-7 7 -15 7q-3 0 -6 -0.5t-6 -3.5l-7 -3q0 -4 2 -4q0 -4 5 -7q0 -4 4 -5q0 -2 2 -4q1 -1 2 -1q11 -9 22.5 -12.5t25.5 -3.5q6 0 12.5 0.5t12.5 3.5q5 1 12.5 4t10.5 8q5 4 9.5 8t6.5 12z
M1525 520q2 8 2.5 13.5t0.5 11.5q0 18 -3 30q-2 7 -5.5 12.5t-6.5 12.5q-5 9 -16 20q-4 4 -9.5 7.5t-12.5 9.5q-5 2 -10 5t-13 5q-6 1 -12.5 2.5t-14.5 1.5q-7 0 -13.5 -1.5t-12.5 -2.5q-8 -2 -13.5 -5t-10.5 -5q-6 -6 -11.5 -9.5t-10.5 -7.5q-5 -5 -9 -10t-7 -10
q-4 -7 -5.5 -12.5t-4.5 -12.5q-4 -11 -4 -30q0 -8 2.5 -18t6.5 -19q3 -10 8.5 -18.5t12.5 -16.5q8 -6 16.5 -11t17.5 -7q16 -8 38 -8h14.5t12.5 2q15 4 23 11q16 7 22 13q9 9 16 23q3 6 6.5 12t5.5 12zM1733 648h-26v-156q0 4 -1.5 7.5t-2.5 5.5l-96 135q-5 1 -10 7
q-3 0 -6 0.5t-6 0.5h-18v-199h26v167v-4l2 -2l2 -2v-4l116 -155h20v199zM1956 449l-87 199h-28l-88 -199h16q10 0 14 2q1 3 3 4.5t5 4.5l13 32h103l13 -32q2 -7 8 -9q1 -2 12 -2h16zM2089 473h-86v175h-28v-199h114v24zM2363 648h-27v-121q0 -8 -0.5 -12.5t-3.5 -10.5
q-1 -10 -12 -16q-3 -4 -7.5 -6.5t-8.5 -6.5q-5 -2 -9 -2.5t-11 -0.5q-13 0 -20 3q-6 4 -10.5 6.5t-6.5 6.5q-3 3 -6 7t-8 9q-1 6 -1.5 10.5t-0.5 12.5v121h-27v-121q0 -8 0.5 -13.5t2.5 -9.5q0 -10 6 -20q6 -11 15 -16q3 -3 6.5 -6t8.5 -6q3 -3 8.5 -4t9.5 -3
q6 -2 11.5 -3.5t11.5 -1.5q7 0 11 1.5t12 3.5q4 2 8.5 3t8.5 4q9 5 16 12q5 3 7.5 7t5.5 9q2 5 5 9.5t5 10.5v23v121zM2517 483q8 11 8 22q0 17 -5.5 27t-16.5 17q-6 4 -8 7q-3 1 -5.5 1.5t-5.5 2.5q-1 1 -4.5 1.5t-6.5 3.5q-1 0 -3.5 1t-5.5 2q-5 2 -7.5 3.5t-7.5 3.5
q-9 2 -10 5q-5 2 -6.5 3.5t-3.5 4.5q0 1 -0.5 3.5t-0.5 5.5q0 6 4 11q1 4 7 8q3 0 4.5 1.5t5.5 2.5q3 3 14 3q1 0 3.5 -1.5t5.5 -1.5q3 -3 11 -7q8 -2 12 -2q8 0 13 5l7 4q-2 3 -4.5 4.5t-5.5 4.5q-2 3 -5.5 6t-7.5 5q-3 1 -6.5 3t-8.5 4q-4 1 -8 2.5t-6 1.5q-6 0 -12 -1.5
t-12 -2.5q-5 -2 -10 -5t-9 -5q-4 -5 -7 -9l-6 -8q-3 -5 -5 -10t-2 -13q0 -7 2 -11.5t5 -9.5q4 -10 10 -16q5 -3 9 -6t9 -5q6 -3 11.5 -4.5t9.5 -4.5q5 -2 7.5 -2.5t5.5 -1.5l7.5 -2.5l7.5 -2.5l5 -5t3 -6q3 -4 3.5 -7t0.5 -8q0 -2 -0.5 -6t-3.5 -7q-2 -7 -9 -9
q-5 -5 -8 -6.5t-6 -3.5q-4 0 -7 -0.5t-6 -0.5q-4 0 -8.5 0.5t-7.5 0.5q-7 3 -12 10l-3 1q-7 7 -14 7q-2 0 -5.5 -0.5t-5.5 -3.5l-8 -3q1 -1 1.5 -2.5t2.5 -1.5q0 -2 1.5 -3.5t1.5 -3.5l2.5 -2.5t1.5 -2.5q5 -5 8 -5q8 -9 20 -12.5t25 -3.5q6 0 12.5 0.5t14.5 3.5q6 1 10.5 4
t10.5 8q4 4 7 8t6 12zM2681 648h-124v-199h124v24h-96v62h79v26h-79v59h96v28zM2997 520q2 8 2.5 13.5t0.5 11.5q0 8 -0.5 16t-2.5 14q-3 12 -10 25q-5 8 -18 20q-4 4 -8.5 7.5t-9.5 9.5q-6 2 -13 5t-13 5q-6 1 -12 2.5t-14 1.5t-14.5 -1.5t-12.5 -2.5q-15 -5 -25 -10
q-5 -6 -10.5 -9.5t-9.5 -7.5q-5 -5 -9 -10t-9 -10q-2 -7 -5 -12.5t-4 -12.5q-4 -11 -4 -30q0 -8 1.5 -18t6.5 -19q7 -20 23 -35q7 -6 15 -11t17 -7q16 -8 40 -8h14t12 2t13 4.5t13 6.5q5 3 9.5 6t8.5 7q12 10 18 23q7 11 10 24zM3207 648h-27v-156q-2 4 -3 7.5t-4 5.5
l-96 135q-1 1 -2 3t-4 4q-3 0 -7 0.5t-7 0.5h-20v-199h30v167q0 -4 1 -4v-4q0 -1 1 -2l2 -2l113 -155h23v199zM3371 473h-87v175h-28v-199h115v24zM3531 648h-22q-8 0 -13 -4q-8 -6 -9 -11l-48 -62q-1 -1 -1 -2q-1 -1 -3 -1v-3v3l-2 3l-46 62q-5 6 -11 11q-5 4 -13 4h-22
l74 -99q1 0 2 -4q0 -1 1 -1t2 -1v-4q0 -1 1 -2v-5v-83h30v83v5q1 0 1 6q2 0 4 2v3q0 1 1 1zM1983 787q-26 11 -50 26.5t-46 33.5h421q-21 -18 -45 -33.5t-50 -26.5q-28 -8 -57 -15.5t-59 -7.5q-31 0 -59.5 7.5t-54.5 15.5zM1921 880l411 416q39 -51 59.5 -104.5t20.5 -108.5
q0 -29 -4 -56.5t-15 -53.5q-9 -25 -22.5 -47.5t-30.5 -45.5h-419zM1860 871q-37 45 -59 97q-11 26 -14.5 55.5t-3.5 59.5q0 28 3.5 55t13.5 53q9 25 22.5 47.5t29.5 45.5h420zM2213 1377q26 -11 50 -26t44 -32h-423q47 38 99 58q50 22 114 22q62 0 116 -22zM531 116
q-5 5 -7 10t-4 11q-2 8 -3.5 13t-1.5 13q0 9 5 21q2 7 4 13.5t7 11.5q3 5 5.5 9.5t7.5 9.5q3 4 8 8t9 7q8 3 12.5 5t10.5 5q5 0 12 1.5t15 1.5q9 0 17 -2t19 -7q9 -3 16 -8t13 -11q-3 -4 -5 -4q0 -1 -1 -2t-2 -1q0 -1 -4 -1h-4q-7 0 -9 1q-5 2 -10 6t-10 5t-9.5 1h-10.5
q-8 0 -15.5 -0.5t-12.5 -1.5q-8 -5 -14 -9t-12 -9q-5 -5 -8.5 -10t-5.5 -12q-5 -8 -6 -15t-1 -13q0 -10 4 -19q2 -5 3 -9.5t2 -9.5q3 -4 6 -7t6 -7q6 -3 9.5 -6.5t8.5 -4.5q4 -2 7.5 -4.5t8.5 -4.5t10 -2h10h11t11 2t12.5 4.5t10.5 5.5v39h-15h-2q-1 0 -2 1l-4.5 3t-3.5 3
l-2.5 2.5t-1.5 2.5t-0.5 3t-0.5 4v1h52v-71q-4 -4 -6.5 -5.5t-6.5 -6.5q-8 -2 -16 -2q-9 -4 -19 -4h-17h-15t-12 1q-6 2 -10.5 4t-12.5 7q-4 2 -9 5t-8 9q-5 3 -7.5 8zM743 232v-59h73v-20h-73v-62h89v-19h-112v181h112v-21h-89zM912 72v160h-59v21h138v-21h-59v-160h-20z
M1125 232v-63h78v-18h-78v-79h-21v181h112v-21h-91zM1269 253v-112q0 -6 2 -10t5 -8q2 -8 5 -11t6 -8q3 -3 6.5 -5.5t7.5 -5.5q6 -3 11.5 -3.5t10.5 -0.5q6 0 10 0.5t8 3.5q6 3 10 5.5t9 5.5q2 5 5.5 8t5.5 11q5 6 5 18v112h20v-112q0 -8 -2 -14t-5 -14q-2 -7 -5.5 -12.5
t-8.5 -11.5q-5 -4 -11 -8t-12 -6q-15 -4 -29 -4q-15 0 -30 4q-5 2 -10.5 6t-10.5 8q-10 10 -16 24q-2 8 -4.5 14t-2.5 14v112h20zM1455 253v-162h81v-19h-103v181h22zM1577 253v-162h83v-19h-103v181h20zM1827 72l-80 181h10q7 0 11 -4q1 -2 3 -2.5t5 -3.5l57 -136v-7
q3 -3 3 -7v7q0 1 0.5 3t0.5 4q8 16 16 33t16 33q6 20 14 36.5t16 33.5q1 3 2.5 3.5t1.5 2.5q5 3 7 3.5t5 0.5h9q-9 -22 -19 -45t-21 -45q-9 -24 -18.5 -46.5t-18.5 -44.5h-20zM1960 232v-59h75v-20h-75v-62h89v-19h-109v181h109v-21h-89zM2184 156q-3 -3 -15 -5l62 -79h-14
q-3 0 -6.5 0.5t-3.5 2.5l-6 2t-5 6l-49 68h-34v-79h-20v181h66q6 0 9.5 -0.5t8.5 -3.5q10 -3 19 -10q3 -5 6 -9t5 -9q2 -4 2 -9.5v-8.5v-9.5t-2 -9.5q0 -5 -2.5 -9.5t-4.5 -6.5q-3 -3 -6.5 -6t-9.5 -6zM2159 169q8 0 10 2q3 2 6 3.5l5 2.5q3 3 4 5.5t4 5.5q0 3 1.5 6.5
t1.5 8.5q0 3 -1.5 5t-1.5 5q-3 3 -4 5.5t-4 5.5q-2 0 -5 2.5t-6 4.5q-2 1 -10 1h-46v-63h46zM2327 97q4 3 6 11q3 3 3.5 7.5t0.5 7.5q0 10 -1 14q-2 3 -4 5.5t-5 4.5q-3 4 -11 6q-5 0 -8 2t-8 4q-5 1 -9.5 3.5t-7.5 4.5q-12 2 -19 9q-2 1 -5 5t-6 7v19q0 7 0.5 11.5t2.5 9.5
q2 9 12 15q6 3 9.5 5t9.5 5q5 0 8.5 1.5t8.5 1.5q4 0 8.5 -1.5t7.5 -1.5t5.5 -2t6.5 -4q3 -2 5.5 -3.5t3.5 -3.5q5 -3 7 -5t4 -3l-5 -4q-3 -4 -11 -4h-9q-4 5 -4 7q-2 0 -3.5 0.5t-3.5 0.5h-2q-1 0 -2.5 0.5t-2.5 0.5h-5q-8 0 -11 -1q-9 0 -10 -4q-7 -7 -7 -11q-4 -1 -4 -10
q0 -7 4 -8q0 -7 4 -8q2 -2 5 -4.5t6 -2.5q4 -2 7.5 -3.5t9.5 -3.5q1 -1 4.5 -1.5t3.5 -2.5q3 0 5.5 -1t5.5 -3q2 -1 3 -1t1.5 -0.5t1.5 -0.5q2 0 4.5 -1.5t3.5 -2.5l8.5 -8.5t6.5 -7.5q4 -13 4 -24q0 -8 -1 -12.5t-6 -10.5q-1 -9 -12 -16q-4 -5 -9.5 -6.5t-8.5 -2.5
q-5 -3 -11.5 -3.5t-14.5 -0.5q-11 0 -21.5 3t-18.5 10q-3 1 -4 3.5t-6 5.5q0 3 -1.5 5t-1.5 3l3 3q2 0 2.5 1.5t3.5 1.5h3q4 0 6.5 -2t6.5 -4q5 -3 8 -5.5t7 -4.5q2 -2 6 -2h7q11 0 15 2q9 0 15 6zM2420 253v-181h-20v181h20zM2491 97q-14 12 -22 28q-6 18 -6 38
q0 5 0.5 10.5t1.5 10.5q5 15 10 25q7 10 16 19t18 15q5 3 11.5 5t11.5 5q6 0 12 1.5t12 1.5q7 0 14 -1.5t13 -1.5q5 -3 10.5 -5t10.5 -5t9.5 -7t9.5 -8q4 -5 6.5 -9.5t7.5 -9.5q5 -10 10 -25q1 -5 2.5 -10.5t1.5 -10.5q0 -9 -2.5 -19t-7.5 -19q-3 -9 -8 -16t-10 -12
q-8 -7 -15 -12.5t-17 -8.5q-10 -5 -35 -5q-9 0 -18 1t-18 4q-19 6 -29 21zM2491 191q-3 -8 -5 -15t-2 -13q0 -5 0.5 -9.5t2.5 -9.5q1 -9 8 -19q1 -4 3.5 -7t5.5 -7q4 -3 7.5 -6.5t8.5 -4.5q5 -2 9 -4.5t8 -4.5q5 -2 9.5 -2h9.5h10t10 2q5 2 9 4.5t8 4.5q3 1 7.5 4.5t7.5 6.5
q3 4 6 7t5 7q3 5 4 9.5t2 9.5q2 5 2.5 9.5t0.5 9.5q0 6 -1.5 13t-3.5 15q-2 7 -6.5 12t-8.5 10q-5 5 -11 9t-13 9q-6 1 -13 1.5t-15 0.5t-14.5 -0.5t-13.5 -1.5q-6 -5 -12 -9t-12 -9q-5 -5 -7.5 -10t-5.5 -12zM2704 72h-20v181h15q4 0 7.5 -0.5t6.5 -5.5l95 -134q1 -1 1 -5
q3 -3 3 -2v-2v149h20v-181h-16l-109 149v3h-3v7v-159zM2987 232v-63h74v-18h-74v-79h-22v181h111v-21h-89zM3192 156q-10 -4 -16 -5l57 -79h-12q-8 0 -12 3q-2 1 -3.5 2t-2.5 6l-51 68h-33v-79h-22v181h66q5 0 10 -0.5t11 -3.5q5 -2 9 -4.5t7 -5.5q3 -5 5.5 -9t7.5 -9
q0 -4 1.5 -9.5t1.5 -8.5q0 -5 -1.5 -9.5t-1.5 -9.5q-3 -5 -5 -9.5t-4 -6.5zM3176 171q3 2 4.5 3.5t3.5 2.5q7 7 8 11t1 15q0 6 -1 10t-8 11q-2 0 -3.5 2.5t-4.5 4.5q-5 1 -13 1h-44v-63h44q8 0 13 2zM3412 97q-7 -7 -14.5 -12.5t-16.5 -8.5q-7 -3 -15.5 -4t-18.5 -1
q-11 0 -20.5 1t-17.5 4q-17 6 -29 21q-6 5 -11.5 12t-8.5 16t-5 19t-2 19q0 5 0.5 10.5t2.5 10.5q1 7 3.5 13.5t4.5 11.5q4 5 8.5 9.5t7.5 9.5l10 8t10 7t11.5 5t11.5 5q6 0 11 1.5t13 1.5q5 0 11.5 -1.5t13.5 -1.5q6 -3 11 -5t9 -5q6 -3 11 -7t9 -8q4 -5 7 -9.5t6 -9.5
q7 -10 10 -25q3 -5 4 -10.5t1 -10.5q0 -9 -1.5 -19t-6.5 -19q-3 -9 -8.5 -16t-11.5 -12zM3347 89h9.5t10.5 2q4 2 7.5 4.5t6.5 4.5q5 1 9 4.5t9 6.5q3 4 5.5 7t4.5 7q2 5 4 9.5t3 9.5t1 9.5v9.5q0 6 -0.5 13t-1.5 15q-3 7 -8 12t-8 10q-8 5 -13.5 9t-10.5 9q-6 1 -13.5 1.5
t-14.5 0.5q-8 0 -15 -0.5t-13 -1.5q-8 -5 -13.5 -9t-9.5 -9q-7 -5 -10 -10t-6 -12q-3 -8 -3.5 -15t-0.5 -13v-19q2 -5 3.5 -9.5t4.5 -9.5q2 -4 5 -7l7 -7q3 -3 6 -6.5t7 -4.5q5 -2 9 -4.5t9 -4.5q4 -2 9.5 -2h10.5zM3644 249q3 3 5 3.5t4 0.5h16v-181h-18v149q0 -1 -3 -4v-1
v-3q-5 -10 -9 -21t-10 -19q-4 -10 -7.5 -17.5t-8.5 -18.5q-2 -9 -6 -17.5t-7 -15.5l-8.5 -17l-7.5 -15h-19q-11 16 -18 34t-15 35q-7 20 -15 37.5t-17 34.5v4q-3 3 -3 4v-149h-20v181h18q5 0 9 -4q3 -2 4 -2.5t1 -3.5l63 -142q0 -4 3 -4v-4q0 3 0.5 5.5t0.5 5.5q1 5 7 9
l54 130q2 3 3.5 3.5t3.5 2.5zM525 0h208v-25v-6t-1 -6q-1 -5 -3 -7l-5 -5l-139 -190h2l2 3h4h4h135v-48h-217v16q0 11 2 15q0 2 6 10q2 3 3 5.5t2 6.5q2 2 4.5 5t3.5 6l124 171h-135v49zM768 0h183v-49h-131v-67h105v-51h-105v-69h131v-48h-183v284zM1177 -49h-80v-235h-53
v235h-84v49h217v-49zM1307 0l122 -284h-30q-13 0 -22 5q-4 2 -6.5 7.5t-7.5 10.5l-15 37h-131l-14 -37q-2 -5 -3 -6t-4 -2q-2 -5 -3.5 -6.5t-4.5 -3.5q-3 -1 -5.5 -2.5t-5.5 -1.5q-1 -1 -4 -1h-5h-31l123 284h47zM1324 -173l-37 88q0 2 -1.5 4.5t-1.5 4.5q0 5 -1 8v-8
q0 -2 -1.5 -4.5t-2.5 -4.5l-36 -88h81zM1443 0h180v-49h-131v-74h109v-50h-109v-111h-49v284zM1911 -71q4 -7 7 -15t6 -18q3 -9 3.5 -18.5t0.5 -18.5q0 -11 -0.5 -20.5t-3.5 -18.5l-6 -18t-7 -18q-6 -6 -11.5 -14t-12.5 -14q-8 -7 -14 -12.5t-14 -10.5q-9 -7 -17.5 -10
t-17.5 -6q-11 -1 -20.5 -2.5t-19.5 -1.5q-15 0 -28.5 3t-27.5 8q-14 6 -25 14t-22 18q-19 20 -29 45q-6 14 -9 27.5t-3 30.5q0 9 1 18.5t3 18.5q6 21 16 33q5 11 10 17.5t11 13.5q8 6 15 11.5t17 11.5q6 4 14.5 8t19.5 6q8 2 17 4t20 2q10 0 19.5 -2t20.5 -4q9 -2 17.5 -6
t17.5 -8q8 -6 14 -11.5t14 -11.5q7 -7 12.5 -13.5t11.5 -17.5zM1871 -177q3 8 4.5 17.5t1.5 18.5q0 16 -6 34q-3 11 -8.5 17.5t-13.5 13.5q-6 6 -13 11t-16 8q-15 8 -36 8q-20 0 -37 -8q-6 -3 -13.5 -8t-13.5 -11q-8 -7 -12.5 -13.5t-8.5 -17.5q-5 -9 -6 -17t-1 -17t1 -18.5
t6 -17.5q4 -11 8.5 -18t12.5 -12q6 -7 13.5 -11.5t13.5 -9.5q10 -3 19 -5.5t18 -2.5q10 0 19 2.5t17 5.5q9 5 16 9.5t13 11.5q8 5 13.5 12t8.5 18zM2167 0h50v-284h-48l-134 191q-2 2 -2.5 3t-1.5 2q-4 5 -4 8q-4 2 -4 5q-2 2 -3 3.5t-3 3.5v-216h-52v284h47q4 0 9 -1.5
t7 -2.5q5 -1 7.5 -3t4.5 -5q15 -21 29.5 -42t27.5 -43q17 -20 31 -40.5t31 -39.5q1 -3 2.5 -6t2.5 -8q0 -2 1.5 -5t1.5 -4v200zM2243 0h217v-49h-84v-235h-52v235h-81v49zM2637 -147q5 -4 8.5 -9.5t6.5 -11.5q1 -6 2.5 -12.5t1.5 -15.5q0 -18 -8 -36q-5 -9 -9.5 -16
t-13.5 -13q-7 -6 -14 -11t-18 -8q-8 -3 -18 -5t-19 -2q-10 0 -19.5 2t-21.5 5q-8 3 -15.5 9t-15.5 14q-5 3 -8.5 7.5t-6.5 9.5q-4 4 -6 16q1 0 2 1.5t4 2.5q2 0 3 1.5t3 2.5q4 0 6 1.5t3 1.5h11q2 0 5 -0.5t5 -2.5q7 0 12 -4q6 -3 10.5 -6t8.5 -5q3 -1 8.5 -3t11.5 -2
q3 0 7.5 0.5t8.5 3.5q10 2 16 8q7 4 12 11q3 5 5 8.5t2 8.5q0 10 -7 15q-6 8 -12 8q-3 4 -7.5 5.5t-8.5 3.5q-8 2 -19 8q-7 2 -13.5 4t-12.5 5q-9 5 -15 8.5t-12 9.5q-6 4 -10 9.5t-7 11.5q-8 15 -8 32q0 22 8 33q4 8 9 14t11 12q7 4 13.5 8t15.5 6q8 2 15 4t18 2q5 0 11 -2
l12 -4q7 -1 11 -3.5t12 -5.5q4 -3 8.5 -7.5l8.5 -8.5q4 -3 8.5 -7t7.5 -9l-11 -7q-3 -2 -6.5 -4.5t-6.5 -4.5q-5 -1 -8 -1h-8h-3h-4q-8 2 -9 4q-5 1 -8 4q-3 0 -4.5 1t-3.5 1q-4 2 -7 2q-12 0 -16 -2q-4 0 -5.5 -1.5t-6.5 -3.5q-4 -2 -6 -9q-3 -3 -3 -11t3 -9q1 -3 3 -5
t3 -7q5 0 8.5 -1.5t7.5 -2.5q6 -2 12.5 -5t11.5 -5l11 -2q7 -5 14.5 -8t13.5 -7q12 -5 21 -19zM2724 -236q6 0 8 -8q1 -2 1 -6v-6q0 -8 -1 -12q-2 -6 -8 -11q-5 -2 -8 -5q-2 -2 -6 -2.5t-7 -0.5t-6.5 0.5t-4.5 2.5q-3 1 -6 2.5t-6 2.5q-2 2 -3.5 5t-3.5 6q-2 4 -2 12v6t2 6
q2 3 3.5 5.5t3.5 2.5q6 8 12 8q1 3 4.5 3.5t6.5 0.5t7 -0.5t6 -3.5q3 0 8 -8zM2832 -76q-10 -12 -20 -31q-3 -9 -5.5 -17t-2.5 -17t2.5 -18.5t5.5 -17.5q5 -11 9.5 -18t10.5 -12q7 -7 13.5 -11.5t17.5 -9.5q9 -3 18 -5.5t18 -2.5q8 0 14 2t12 3q6 2 13 5.5t13 8.5q5 1 9 4h9
q5 0 10 -0.5t8 -2.5q7 -2 10 -8l11 -12q-9 -12 -21 -20q-9 -4 -15.5 -8.5t-14.5 -7.5q-6 -5 -13.5 -7t-15.5 -4q-6 -3 -13.5 -3.5t-15.5 -0.5q-17 0 -30.5 3t-27.5 8q-27 13 -45 32q-20 20 -32 45q-5 14 -8 27.5t-3 30.5q0 9 1.5 18.5t2.5 18.5q3 10 6 18t9 15
q6 11 11.5 17.5t12.5 13.5q6 6 14.5 11.5t16.5 11.5q7 4 15 8t18 6q9 2 18.5 4t20.5 2q8 0 15.5 -0.5t13.5 -5.5q8 -1 15.5 -3.5t13.5 -5.5q8 -3 14.5 -7.5t15.5 -8.5q13 -11 21 -21l-11 -12q-2 -5 -4.5 -6.5t-5.5 -3.5q-5 -1 -9 -1h-9t-9.5 1t-8.5 4q-6 5 -13 8t-13 6
q-6 2 -12 3t-14 1q-20 0 -36 -8q-11 -3 -17.5 -8t-13.5 -11zM3297 -71q5 -7 8.5 -15t6.5 -18q3 -9 3.5 -18.5t0.5 -18.5q0 -11 -0.5 -20.5t-3.5 -18.5t-6.5 -18t-8.5 -18q-7 -14 -21 -28q-9 -7 -16 -12.5t-16 -10.5q-8 -7 -16 -10t-19 -6q-8 -1 -18 -2.5t-20 -1.5
q-28 0 -55 11q-14 6 -25 14t-20 18q-11 10 -19 21t-12 24q-6 14 -9 27.5t-3 30.5q0 9 1.5 18.5t2.5 18.5q3 10 7.5 18t8.5 15q4 11 9.5 17.5t13.5 13.5q5 6 12.5 11.5t16.5 11.5q8 4 16.5 8t16.5 6q11 2 20 4t18 2q10 0 20 -2t18 -4q11 -2 19 -6l16 -8q9 -6 16 -11.5
t16 -11.5q6 -7 12 -13.5t9 -17.5zM3257 -177q7 17 7 36q0 9 -2 17t-5 17q-3 11 -7.5 17.5t-10.5 13.5q-13 13 -32 19q-6 5 -16 6.5t-20 1.5q-19 0 -34 -8q-9 -3 -16 -8t-14 -11q-8 -7 -12.5 -13.5t-9.5 -17.5q-2 -9 -3.5 -17t-1.5 -17t1.5 -18.5t3.5 -17.5q9 -21 22 -30
q7 -7 14 -11.5t16 -9.5q8 -3 17 -5.5t17 -2.5q10 0 20 2.5t16 5.5q10 5 18 9.5t14 11.5q13 11 18 30zM3608 -3q3 0 4.5 1.5t6.5 1.5h50v-284h-50v208q-2 -3 -3 -6t-3 -7q-1 -6 -1 -9t-1 -6q-11 -22 -20 -44.5t-19 -44.5q-9 -23 -18 -45.5t-18 -45.5h-48l-73 180q-4 5 -4 15
q-2 3 -3 5t-1 5v-205h-54v284h50q5 0 7.5 -1.5t5.5 -1.5q3 -1 4.5 -1t4.5 -1l8 -8q2 -2 4 -5t3 -5q8 -21 16.5 -42.5t16.5 -42.5q8 -22 17 -43.5t18 -41.5q0 -2 0.5 -4t0.5 -3v-7q3 0 3 -6q0 6 1 6v7q0 1 1 3t1 4l12 20l57 150l2.5 5l2.5 5q2 3 5 4.5t3 3.5q3 1 5.5 1t5.5 1
z" />
    <glyph glyph-name="eight" unicode="8" horiz-adv-x="4097" 
d="M2952 600q4 -5 8.5 -11t7.5 -13q3 -6 4 -14t1 -17q0 -14 -5 -28q-3 -6 -7.5 -11t-8.5 -11q-6 -5 -12.5 -9t-11.5 -9q-14 -5 -29 -5q-8 0 -15.5 1t-12.5 4q-8 5 -14 9t-10 9q-5 6 -9.5 11t-6.5 11q-3 8 -5 15t-2 13q0 17 7 31q2 7 6.5 13t9.5 11q4 6 10 9.5t14 6.5
q10 7 28 7q8 0 14.5 -2t14.5 -5q5 -3 11.5 -6.5t12.5 -9.5zM1108 576q-1 -1 -7 -9q-3 -2 -4 -4t-6 -3q-3 -3 -11 -3h-44v63h44q7 0 11 -4q5 0 6 -1.5t4 -3.5q5 -6 7 -10q3 -4 3 -13q0 -8 -3 -12zM1477 600q5 -5 10 -11t8 -13q2 -6 3.5 -14t1.5 -17q0 -6 -1.5 -13t-3.5 -15
q-3 -6 -8 -11t-10 -11q-4 -5 -9.5 -9t-12.5 -9q-6 -3 -14 -4t-16 -1q-15 0 -29 5q-6 5 -12 9t-12 9q-4 6 -8.5 11t-7.5 11q-3 8 -5 15t-2 13q0 17 7 31q3 7 7.5 13t8.5 11q6 6 12 9.5t12 6.5q8 3 15 5t14 2q16 0 30 -7q7 -3 12.5 -6.5t9.5 -9.5zM1853 616q0 -4 1.5 -7
t1.5 -5l37 -84h-77l36 84q0 3 1 4v8zM784 611q2 -3 3 -7t4 -7q2 -4 2 -13v-6.5t-2 -6.5q-3 -3 -4 -6.5t-3 -4.5q-6 -6 -12 -9t-15 -3h-44v72h44q10 0 15 -4q3 0 6 -2t6 -3zM3669 1084v-765h-3144v765h1191q0 40 7 77.5t24 71.5q16 35 35.5 66.5t48.5 56.5q50 51 120 79
q35 16 71 23t75 7q42 0 79.5 -7.5t70.5 -24.5q37 -16 67.5 -37t56.5 -47q47 -48 80 -121q26 -72 26 -144h1192zM1776 1216q-29 -62 -29 -133q0 -73 29 -134q13 -32 31.5 -60t40.5 -53q24 -24 51.5 -43t60.5 -33q62 -29 137 -29q38 0 71 6.5t64 19.5q33 14 60.5 33t51.5 43
q24 23 43.5 51.5t32.5 59.5q29 67 29 139q0 32 -5 62.5t-16 57.5q-19 54 -56 98q-18 23 -38.5 40.5t-42.5 34.5q-26 13 -51 25t-52 19q-19 7 -42 10t-49 3q-39 0 -73.5 -7t-66.5 -23q-63 -25 -110 -76q-23 -23 -40.5 -51.5t-30.5 -59.5zM816 560q7 14 7 24q0 7 -2 13t-5 14
q0 4 -5 8.5t-10 8.5q-3 4 -7.5 8t-10.5 5q-5 5 -11.5 6t-14.5 1h-69v-199h25v74h44q8 0 14.5 1t11.5 3q13 6 18 13q5 4 10 8.5t5 11.5zM965 648h-124v-199h124v24h-94v62h78v26h-78v59h94v28zM1160 449l-63 86q5 1 8.5 2t7.5 6q10 2 12 10q3 3 6 8l6 10v17q0 7 -0.5 12.5
t-3.5 11.5q-5 9 -13 17q-5 11 -19 12q-3 5 -9 6t-12 1h-72v-199h28v82h31l52 -71q2 -7 9 -9q2 -2 6 -2h7h19zM1296 483q1 6 2.5 11t1.5 11q0 17 -5 27t-15 17q-3 2 -4.5 3.5t-6.5 3.5q-1 1 -3.5 1.5t-4.5 2.5q-3 1 -5.5 1.5t-2.5 3.5q-7 0 -10 3q-8 2 -11 3.5t-8 3.5
q-8 2 -11 5q-6 4 -6 8v9v11l4 4t2 4q3 0 6 1.5l5 2.5q5 2 7.5 2.5t7.5 0.5q1 0 3.5 -1.5t4.5 -1.5q8 -1 10 -7q3 -1 5.5 -1.5t6.5 -0.5q10 0 15 5l9 4q-2 3 -4.5 4.5t-5.5 4.5l-6 6t-9 5q-3 1 -6.5 3t-8.5 4q-5 1 -8 2.5t-6 1.5q-6 0 -12.5 -1.5t-10.5 -2.5q-7 -2 -11 -5
t-9 -5q-4 -5 -8.5 -9t-6.5 -8q-1 -5 -2.5 -10t-1.5 -13q0 -7 0.5 -11.5t3.5 -9.5q2 -4 6 -8t6 -8l10 -6t10 -5q5 -3 9 -4.5t10 -4.5q3 -2 7.5 -2.5t7.5 -1.5q5 -1 7.5 -2.5t5.5 -2.5q3 -3 4 -5t5 -6q2 -4 2.5 -7t0.5 -8q0 -2 -0.5 -6t-3.5 -7t-4 -5.5t-4 -3.5q-3 -5 -7 -6.5
t-6 -3.5q-5 0 -8.5 -0.5t-6.5 -0.5q-6 0 -9 0.5t-6 0.5q-3 2 -6.5 3.5t-3.5 6.5l-4 1q-7 7 -15 7q-3 0 -6 -0.5t-6 -3.5l-7 -3q0 -4 2 -4q0 -4 5 -7q0 -4 4 -5q0 -2 2 -4q1 -1 2 -1q11 -9 22.5 -12.5t25.5 -3.5q6 0 12.5 0.5t12.5 3.5q5 1 12.5 4t10.5 8q5 4 9.5 8t6.5 12z
M1525 520q2 8 2.5 13.5t0.5 11.5q0 18 -3 30q-2 7 -5.5 12.5t-6.5 12.5q-5 9 -16 20q-4 4 -9.5 7.5t-12.5 9.5q-5 2 -10 5t-13 5q-6 1 -12.5 2.5t-14.5 1.5q-7 0 -13.5 -1.5t-12.5 -2.5q-8 -2 -13.5 -5t-10.5 -5q-6 -6 -11.5 -9.5t-10.5 -7.5q-5 -5 -9 -10t-7 -10
q-4 -7 -5.5 -12.5t-4.5 -12.5q-4 -11 -4 -30q0 -8 2.5 -18t6.5 -19q3 -10 8.5 -18.5t12.5 -16.5q8 -6 16.5 -11t17.5 -7q16 -8 38 -8h14.5t12.5 2q15 4 23 11q16 7 22 13q9 9 16 23q3 6 6.5 12t5.5 12zM1733 648h-26v-156q0 4 -1.5 7.5t-2.5 5.5l-96 135q-5 1 -10 7
q-3 0 -6 0.5t-6 0.5h-18v-199h26v167v-4l2 -2l2 -2v-4l116 -155h20v199zM1956 449l-87 199h-28l-88 -199h16q10 0 14 2q1 3 3 4.5t5 4.5l13 32h103l13 -32q2 -7 8 -9q1 -2 12 -2h16zM2089 473h-86v175h-28v-199h114v24zM2363 648h-27v-121q0 -8 -0.5 -12.5t-3.5 -10.5
q-1 -10 -12 -16q-3 -4 -7.5 -6.5t-8.5 -6.5q-5 -2 -9 -2.5t-11 -0.5q-13 0 -20 3q-6 4 -10.5 6.5t-6.5 6.5q-3 3 -6 7t-8 9q-1 6 -1.5 10.5t-0.5 12.5v121h-27v-121q0 -8 0.5 -13.5t2.5 -9.5q0 -10 6 -20q6 -11 15 -16q3 -3 6.5 -6t8.5 -6q3 -3 8.5 -4t9.5 -3
q6 -2 11.5 -3.5t11.5 -1.5q7 0 11 1.5t12 3.5q4 2 8.5 3t8.5 4q9 5 16 12q5 3 7.5 7t5.5 9q2 5 5 9.5t5 10.5v23v121zM2517 483q8 11 8 22q0 17 -5.5 27t-16.5 17q-6 4 -8 7q-3 1 -5.5 1.5t-5.5 2.5q-1 1 -4.5 1.5t-6.5 3.5q-1 0 -3.5 1t-5.5 2q-5 2 -7.5 3.5t-7.5 3.5
q-9 2 -10 5q-5 2 -6.5 3.5t-3.5 4.5q0 1 -0.5 3.5t-0.5 5.5q0 6 4 11q1 4 7 8q3 0 4.5 1.5t5.5 2.5q3 3 14 3q1 0 3.5 -1.5t5.5 -1.5q3 -3 11 -7q8 -2 12 -2q8 0 13 5l7 4q-2 3 -4.5 4.5t-5.5 4.5q-2 3 -5.5 6t-7.5 5q-3 1 -6.5 3t-8.5 4q-4 1 -8 2.5t-6 1.5q-6 0 -12 -1.5
t-12 -2.5q-5 -2 -10 -5t-9 -5q-4 -5 -7 -9l-6 -8q-3 -5 -5 -10t-2 -13q0 -7 2 -11.5t5 -9.5q4 -10 10 -16q5 -3 9 -6t9 -5q6 -3 11.5 -4.5t9.5 -4.5q5 -2 7.5 -2.5t5.5 -1.5l7.5 -2.5l7.5 -2.5l5 -5t3 -6q3 -4 3.5 -7t0.5 -8q0 -2 -0.5 -6t-3.5 -7q-2 -7 -9 -9
q-5 -5 -8 -6.5t-6 -3.5q-4 0 -7 -0.5t-6 -0.5q-4 0 -8.5 0.5t-7.5 0.5q-7 3 -12 10l-3 1q-7 7 -14 7q-2 0 -5.5 -0.5t-5.5 -3.5l-8 -3q1 -1 1.5 -2.5t2.5 -1.5q0 -2 1.5 -3.5t1.5 -3.5l2.5 -2.5t1.5 -2.5q5 -5 8 -5q8 -9 20 -12.5t25 -3.5q6 0 12.5 0.5t14.5 3.5q6 1 10.5 4
t10.5 8q4 4 7 8t6 12zM2681 648h-124v-199h124v24h-96v62h79v26h-79v59h96v28zM2997 520q2 8 2.5 13.5t0.5 11.5q0 8 -0.5 16t-2.5 14q-3 12 -10 25q-5 8 -18 20q-4 4 -8.5 7.5t-9.5 9.5q-6 2 -13 5t-13 5q-6 1 -12 2.5t-14 1.5t-14.5 -1.5t-12.5 -2.5q-15 -5 -25 -10
q-5 -6 -10.5 -9.5t-9.5 -7.5q-5 -5 -9 -10t-9 -10q-2 -7 -5 -12.5t-4 -12.5q-4 -11 -4 -30q0 -8 1.5 -18t6.5 -19q7 -20 23 -35q7 -6 15 -11t17 -7q16 -8 40 -8h14t12 2t13 4.5t13 6.5q5 3 9.5 6t8.5 7q12 10 18 23q7 11 10 24zM3207 648h-27v-156q-2 4 -3 7.5t-4 5.5
l-96 135q-1 1 -2 3t-4 4q-3 0 -7 0.5t-7 0.5h-20v-199h30v167q0 -4 1 -4v-4q0 -1 1 -2l2 -2l113 -155h23v199zM3371 473h-87v175h-28v-199h115v24zM3531 648h-22q-8 0 -13 -4q-8 -6 -9 -11l-48 -62q-1 -1 -1 -2q-1 -1 -3 -1v-3v3l-2 3l-46 62q-5 6 -11 11q-5 4 -13 4h-22
l74 -99q1 0 2 -4q0 -1 1 -1t2 -1v-4q0 -1 1 -2v-5v-83h30v83v5q1 0 1 6q2 0 4 2v3q0 1 1 1zM1983 787q-26 11 -50 26.5t-46 33.5h421q-21 -18 -45 -33.5t-50 -26.5q-28 -8 -57 -15.5t-59 -7.5q-31 0 -59.5 7.5t-54.5 15.5zM1921 880l411 416q39 -51 59.5 -104.5t20.5 -108.5
q0 -29 -4 -56.5t-15 -53.5q-9 -25 -22.5 -47.5t-30.5 -45.5h-419zM1860 871q-37 45 -59 97q-11 26 -14.5 55.5t-3.5 59.5q0 28 3.5 55t13.5 53q9 25 22.5 47.5t29.5 45.5h420zM2213 1377q26 -11 50 -26t44 -32h-423q47 38 99 58q50 22 114 22q62 0 116 -22zM531 116
q-5 5 -7 10t-4 11q-2 8 -3.5 13t-1.5 13q0 9 5 21q2 7 4 13.5t7 11.5q3 5 5.5 9.5t7.5 9.5q3 4 8 8t9 7q8 3 12.5 5t10.5 5q5 0 12 1.5t15 1.5q9 0 17 -2t19 -7q9 -3 16 -8t13 -11q-3 -4 -5 -4q0 -1 -1 -2t-2 -1q0 -1 -4 -1h-4q-7 0 -9 1q-5 2 -10 6t-10 5t-9.5 1h-10.5
q-8 0 -15.5 -0.5t-12.5 -1.5q-8 -5 -14 -9t-12 -9q-5 -5 -8.5 -10t-5.5 -12q-5 -8 -6 -15t-1 -13q0 -10 4 -19q2 -5 3 -9.5t2 -9.5q3 -4 6 -7t6 -7q6 -3 9.5 -6.5t8.5 -4.5q4 -2 7.5 -4.5t8.5 -4.5t10 -2h10h11t11 2t12.5 4.5t10.5 5.5v39h-15h-2q-1 0 -2 1l-4.5 3t-3.5 3
l-2.5 2.5t-1.5 2.5t-0.5 3t-0.5 4v1h52v-71q-4 -4 -6.5 -5.5t-6.5 -6.5q-8 -2 -16 -2q-9 -4 -19 -4h-17h-15t-12 1q-6 2 -10.5 4t-12.5 7q-4 2 -9 5t-8 9q-5 3 -7.5 8zM743 232v-59h73v-20h-73v-62h89v-19h-112v181h112v-21h-89zM912 72v160h-59v21h138v-21h-59v-160h-20z
M1125 232v-63h78v-18h-78v-79h-21v181h112v-21h-91zM1269 253v-112q0 -6 2 -10t5 -8q2 -8 5 -11t6 -8q3 -3 6.5 -5.5t7.5 -5.5q6 -3 11.5 -3.5t10.5 -0.5q6 0 10 0.5t8 3.5q6 3 10 5.5t9 5.5q2 5 5.5 8t5.5 11q5 6 5 18v112h20v-112q0 -8 -2 -14t-5 -14q-2 -7 -5.5 -12.5
t-8.5 -11.5q-5 -4 -11 -8t-12 -6q-15 -4 -29 -4q-15 0 -30 4q-5 2 -10.5 6t-10.5 8q-10 10 -16 24q-2 8 -4.5 14t-2.5 14v112h20zM1455 253v-162h81v-19h-103v181h22zM1577 253v-162h83v-19h-103v181h20zM1827 72l-80 181h10q7 0 11 -4q1 -2 3 -2.5t5 -3.5l57 -136v-7
q3 -3 3 -7v7q0 1 0.5 3t0.5 4q8 16 16 33t16 33q6 20 14 36.5t16 33.5q1 3 2.5 3.5t1.5 2.5q5 3 7 3.5t5 0.5h9q-9 -22 -19 -45t-21 -45q-9 -24 -18.5 -46.5t-18.5 -44.5h-20zM1960 232v-59h75v-20h-75v-62h89v-19h-109v181h109v-21h-89zM2184 156q-3 -3 -15 -5l62 -79h-14
q-3 0 -6.5 0.5t-3.5 2.5l-6 2t-5 6l-49 68h-34v-79h-20v181h66q6 0 9.5 -0.5t8.5 -3.5q10 -3 19 -10q3 -5 6 -9t5 -9q2 -4 2 -9.5v-8.5v-9.5t-2 -9.5q0 -5 -2.5 -9.5t-4.5 -6.5q-3 -3 -6.5 -6t-9.5 -6zM2159 169q8 0 10 2q3 2 6 3.5l5 2.5q3 3 4 5.5t4 5.5q0 3 1.5 6.5
t1.5 8.5q0 3 -1.5 5t-1.5 5q-3 3 -4 5.5t-4 5.5q-2 0 -5 2.5t-6 4.5q-2 1 -10 1h-46v-63h46zM2327 97q4 3 6 11q3 3 3.5 7.5t0.5 7.5q0 10 -1 14q-2 3 -4 5.5t-5 4.5q-3 4 -11 6q-5 0 -8 2t-8 4q-5 1 -9.5 3.5t-7.5 4.5q-12 2 -19 9q-2 1 -5 5t-6 7v19q0 7 0.5 11.5t2.5 9.5
q2 9 12 15q6 3 9.5 5t9.5 5q5 0 8.5 1.5t8.5 1.5q4 0 8.5 -1.5t7.5 -1.5t5.5 -2t6.5 -4q3 -2 5.5 -3.5t3.5 -3.5q5 -3 7 -5t4 -3l-5 -4q-3 -4 -11 -4h-9q-4 5 -4 7q-2 0 -3.5 0.5t-3.5 0.5h-2q-1 0 -2.5 0.5t-2.5 0.5h-5q-8 0 -11 -1q-9 0 -10 -4q-7 -7 -7 -11q-4 -1 -4 -10
q0 -7 4 -8q0 -7 4 -8q2 -2 5 -4.5t6 -2.5q4 -2 7.5 -3.5t9.5 -3.5q1 -1 4.5 -1.5t3.5 -2.5q3 0 5.5 -1t5.5 -3q2 -1 3 -1t1.5 -0.5t1.5 -0.5q2 0 4.5 -1.5t3.5 -2.5l8.5 -8.5t6.5 -7.5q4 -13 4 -24q0 -8 -1 -12.5t-6 -10.5q-1 -9 -12 -16q-4 -5 -9.5 -6.5t-8.5 -2.5
q-5 -3 -11.5 -3.5t-14.5 -0.5q-11 0 -21.5 3t-18.5 10q-3 1 -4 3.5t-6 5.5q0 3 -1.5 5t-1.5 3l3 3q2 0 2.5 1.5t3.5 1.5h3q4 0 6.5 -2t6.5 -4q5 -3 8 -5.5t7 -4.5q2 -2 6 -2h7q11 0 15 2q9 0 15 6zM2420 253v-181h-20v181h20zM2491 97q-14 12 -22 28q-6 18 -6 38
q0 5 0.5 10.5t1.5 10.5q5 15 10 25q7 10 16 19t18 15q5 3 11.5 5t11.5 5q6 0 12 1.5t12 1.5q7 0 14 -1.5t13 -1.5q5 -3 10.5 -5t10.5 -5t9.5 -7t9.5 -8q4 -5 6.5 -9.5t7.5 -9.5q5 -10 10 -25q1 -5 2.5 -10.5t1.5 -10.5q0 -9 -2.5 -19t-7.5 -19q-3 -9 -8 -16t-10 -12
q-8 -7 -15 -12.5t-17 -8.5q-10 -5 -35 -5q-9 0 -18 1t-18 4q-19 6 -29 21zM2491 191q-3 -8 -5 -15t-2 -13q0 -5 0.5 -9.5t2.5 -9.5q1 -9 8 -19q1 -4 3.5 -7t5.5 -7q4 -3 7.5 -6.5t8.5 -4.5q5 -2 9 -4.5t8 -4.5q5 -2 9.5 -2h9.5h10t10 2q5 2 9 4.5t8 4.5q3 1 7.5 4.5t7.5 6.5
q3 4 6 7t5 7q3 5 4 9.5t2 9.5q2 5 2.5 9.5t0.5 9.5q0 6 -1.5 13t-3.5 15q-2 7 -6.5 12t-8.5 10q-5 5 -11 9t-13 9q-6 1 -13 1.5t-15 0.5t-14.5 -0.5t-13.5 -1.5q-6 -5 -12 -9t-12 -9q-5 -5 -7.5 -10t-5.5 -12zM2704 72h-20v181h15q4 0 7.5 -0.5t6.5 -5.5l95 -134q1 -1 1 -5
q3 -3 3 -2v-2v149h20v-181h-16l-109 149v3h-3v7v-159zM2987 232v-63h74v-18h-74v-79h-22v181h111v-21h-89zM3192 156q-10 -4 -16 -5l57 -79h-12q-8 0 -12 3q-2 1 -3.5 2t-2.5 6l-51 68h-33v-79h-22v181h66q5 0 10 -0.5t11 -3.5q5 -2 9 -4.5t7 -5.5q3 -5 5.5 -9t7.5 -9
q0 -4 1.5 -9.5t1.5 -8.5q0 -5 -1.5 -9.5t-1.5 -9.5q-3 -5 -5 -9.5t-4 -6.5zM3176 171q3 2 4.5 3.5t3.5 2.5q7 7 8 11t1 15q0 6 -1 10t-8 11q-2 0 -3.5 2.5t-4.5 4.5q-5 1 -13 1h-44v-63h44q8 0 13 2zM3412 97q-7 -7 -14.5 -12.5t-16.5 -8.5q-7 -3 -15.5 -4t-18.5 -1
q-11 0 -20.5 1t-17.5 4q-17 6 -29 21q-6 5 -11.5 12t-8.5 16t-5 19t-2 19q0 5 0.5 10.5t2.5 10.5q1 7 3.5 13.5t4.5 11.5q4 5 8.5 9.5t7.5 9.5l10 8t10 7t11.5 5t11.5 5q6 0 11 1.5t13 1.5q5 0 11.5 -1.5t13.5 -1.5q6 -3 11 -5t9 -5q6 -3 11 -7t9 -8q4 -5 7 -9.5t6 -9.5
q7 -10 10 -25q3 -5 4 -10.5t1 -10.5q0 -9 -1.5 -19t-6.5 -19q-3 -9 -8.5 -16t-11.5 -12zM3347 89h9.5t10.5 2q4 2 7.5 4.5t6.5 4.5q5 1 9 4.5t9 6.5q3 4 5.5 7t4.5 7q2 5 4 9.5t3 9.5t1 9.5v9.5q0 6 -0.5 13t-1.5 15q-3 7 -8 12t-8 10q-8 5 -13.5 9t-10.5 9q-6 1 -13.5 1.5
t-14.5 0.5q-8 0 -15 -0.5t-13 -1.5q-8 -5 -13.5 -9t-9.5 -9q-7 -5 -10 -10t-6 -12q-3 -8 -3.5 -15t-0.5 -13v-19q2 -5 3.5 -9.5t4.5 -9.5q2 -4 5 -7l7 -7q3 -3 6 -6.5t7 -4.5q5 -2 9 -4.5t9 -4.5q4 -2 9.5 -2h10.5zM3644 249q3 3 5 3.5t4 0.5h16v-181h-18v149q0 -1 -3 -4v-1
v-3q-5 -10 -9 -21t-10 -19q-4 -10 -7.5 -17.5t-8.5 -18.5q-2 -9 -6 -17.5t-7 -15.5l-8.5 -17l-7.5 -15h-19q-11 16 -18 34t-15 35q-7 20 -15 37.5t-17 34.5v4q-3 3 -3 4v-149h-20v181h18q5 0 9 -4q3 -2 4 -2.5t1 -3.5l63 -142q0 -4 3 -4v-4q0 3 0.5 5.5t0.5 5.5q1 5 7 9
l54 130q2 3 3.5 3.5t3.5 2.5zM525 0h208v-25v-6t-1 -6q-1 -5 -3 -7l-5 -5l-139 -190h2l2 3h4h4h135v-48h-217v16q0 11 2 15q0 2 6 10q2 3 3 5.5t2 6.5q2 2 4.5 5t3.5 6l124 171h-135v49zM768 0h183v-49h-131v-67h105v-51h-105v-69h131v-48h-183v284zM1177 -49h-80v-235h-53
v235h-84v49h217v-49zM1307 0l122 -284h-30q-13 0 -22 5q-4 2 -6.5 7.5t-7.5 10.5l-15 37h-131l-14 -37q-2 -5 -3 -6t-4 -2q-2 -5 -3.5 -6.5t-4.5 -3.5q-3 -1 -5.5 -2.5t-5.5 -1.5q-1 -1 -4 -1h-5h-31l123 284h47zM1324 -173l-37 88q0 2 -1.5 4.5t-1.5 4.5q0 5 -1 8v-8
q0 -2 -1.5 -4.5t-2.5 -4.5l-36 -88h81zM1443 0h180v-49h-131v-74h109v-50h-109v-111h-49v284zM1911 -71q4 -7 7 -15t6 -18q3 -9 3.5 -18.5t0.5 -18.5q0 -11 -0.5 -20.5t-3.5 -18.5l-6 -18t-7 -18q-6 -6 -11.5 -14t-12.5 -14q-8 -7 -14 -12.5t-14 -10.5q-9 -7 -17.5 -10
t-17.5 -6q-11 -1 -20.5 -2.5t-19.5 -1.5q-15 0 -28.5 3t-27.5 8q-14 6 -25 14t-22 18q-19 20 -29 45q-6 14 -9 27.5t-3 30.5q0 9 1 18.5t3 18.5q6 21 16 33q5 11 10 17.5t11 13.5q8 6 15 11.5t17 11.5q6 4 14.5 8t19.5 6q8 2 17 4t20 2q10 0 19.5 -2t20.5 -4q9 -2 17.5 -6
t17.5 -8q8 -6 14 -11.5t14 -11.5q7 -7 12.5 -13.5t11.5 -17.5zM1871 -177q3 8 4.5 17.5t1.5 18.5q0 16 -6 34q-3 11 -8.5 17.5t-13.5 13.5q-6 6 -13 11t-16 8q-15 8 -36 8q-20 0 -37 -8q-6 -3 -13.5 -8t-13.5 -11q-8 -7 -12.5 -13.5t-8.5 -17.5q-5 -9 -6 -17t-1 -17t1 -18.5
t6 -17.5q4 -11 8.5 -18t12.5 -12q6 -7 13.5 -11.5t13.5 -9.5q10 -3 19 -5.5t18 -2.5q10 0 19 2.5t17 5.5q9 5 16 9.5t13 11.5q8 5 13.5 12t8.5 18zM2167 0h50v-284h-48l-134 191q-2 2 -2.5 3t-1.5 2q-4 5 -4 8q-4 2 -4 5q-2 2 -3 3.5t-3 3.5v-216h-52v284h47q4 0 9 -1.5
t7 -2.5q5 -1 7.5 -3t4.5 -5q15 -21 29.5 -42t27.5 -43q17 -20 31 -40.5t31 -39.5q1 -3 2.5 -6t2.5 -8q0 -2 1.5 -5t1.5 -4v200zM2243 0h217v-49h-84v-235h-52v235h-81v49zM2637 -147q5 -4 8.5 -9.5t6.5 -11.5q1 -6 2.5 -12.5t1.5 -15.5q0 -18 -8 -36q-5 -9 -9.5 -16
t-13.5 -13q-7 -6 -14 -11t-18 -8q-8 -3 -18 -5t-19 -2q-10 0 -19.5 2t-21.5 5q-8 3 -15.5 9t-15.5 14q-5 3 -8.5 7.5t-6.5 9.5q-4 4 -6 16q1 0 2 1.5t4 2.5q2 0 3 1.5t3 2.5q4 0 6 1.5t3 1.5h11q2 0 5 -0.5t5 -2.5q7 0 12 -4q6 -3 10.5 -6t8.5 -5q3 -1 8.5 -3t11.5 -2
q3 0 7.5 0.5t8.5 3.5q10 2 16 8q7 4 12 11q3 5 5 8.5t2 8.5q0 10 -7 15q-6 8 -12 8q-3 4 -7.5 5.5t-8.5 3.5q-8 2 -19 8q-7 2 -13.5 4t-12.5 5q-9 5 -15 8.5t-12 9.5q-6 4 -10 9.5t-7 11.5q-8 15 -8 32q0 22 8 33q4 8 9 14t11 12q7 4 13.5 8t15.5 6q8 2 15 4t18 2q5 0 11 -2
l12 -4q7 -1 11 -3.5t12 -5.5q4 -3 8.5 -7.5l8.5 -8.5q4 -3 8.5 -7t7.5 -9l-11 -7q-3 -2 -6.5 -4.5t-6.5 -4.5q-5 -1 -8 -1h-8h-3h-4q-8 2 -9 4q-5 1 -8 4q-3 0 -4.5 1t-3.5 1q-4 2 -7 2q-12 0 -16 -2q-4 0 -5.5 -1.5t-6.5 -3.5q-4 -2 -6 -9q-3 -3 -3 -11t3 -9q1 -3 3 -5
t3 -7q5 0 8.5 -1.5t7.5 -2.5q6 -2 12.5 -5t11.5 -5l11 -2q7 -5 14.5 -8t13.5 -7q12 -5 21 -19zM2724 -236q6 0 8 -8q1 -2 1 -6v-6q0 -8 -1 -12q-2 -6 -8 -11q-5 -2 -8 -5q-2 -2 -6 -2.5t-7 -0.5t-6.5 0.5t-4.5 2.5q-3 1 -6 2.5t-6 2.5q-2 2 -3.5 5t-3.5 6q-2 4 -2 12v6t2 6
q2 3 3.5 5.5t3.5 2.5q6 8 12 8q1 3 4.5 3.5t6.5 0.5t7 -0.5t6 -3.5q3 0 8 -8zM2832 -76q-10 -12 -20 -31q-3 -9 -5.5 -17t-2.5 -17t2.5 -18.5t5.5 -17.5q5 -11 9.5 -18t10.5 -12q7 -7 13.5 -11.5t17.5 -9.5q9 -3 18 -5.5t18 -2.5q8 0 14 2t12 3q6 2 13 5.5t13 8.5q5 1 9 4h9
q5 0 10 -0.5t8 -2.5q7 -2 10 -8l11 -12q-9 -12 -21 -20q-9 -4 -15.5 -8.5t-14.5 -7.5q-6 -5 -13.5 -7t-15.5 -4q-6 -3 -13.5 -3.5t-15.5 -0.5q-17 0 -30.5 3t-27.5 8q-27 13 -45 32q-20 20 -32 45q-5 14 -8 27.5t-3 30.5q0 9 1.5 18.5t2.5 18.5q3 10 6 18t9 15
q6 11 11.5 17.5t12.5 13.5q6 6 14.5 11.5t16.5 11.5q7 4 15 8t18 6q9 2 18.5 4t20.5 2q8 0 15.5 -0.5t13.5 -5.5q8 -1 15.5 -3.5t13.5 -5.5q8 -3 14.5 -7.5t15.5 -8.5q13 -11 21 -21l-11 -12q-2 -5 -4.5 -6.5t-5.5 -3.5q-5 -1 -9 -1h-9t-9.5 1t-8.5 4q-6 5 -13 8t-13 6
q-6 2 -12 3t-14 1q-20 0 -36 -8q-11 -3 -17.5 -8t-13.5 -11zM3297 -71q5 -7 8.5 -15t6.5 -18q3 -9 3.5 -18.5t0.5 -18.5q0 -11 -0.5 -20.5t-3.5 -18.5t-6.5 -18t-8.5 -18q-7 -14 -21 -28q-9 -7 -16 -12.5t-16 -10.5q-8 -7 -16 -10t-19 -6q-8 -1 -18 -2.5t-20 -1.5
q-28 0 -55 11q-14 6 -25 14t-20 18q-11 10 -19 21t-12 24q-6 14 -9 27.5t-3 30.5q0 9 1.5 18.5t2.5 18.5q3 10 7.5 18t8.5 15q4 11 9.5 17.5t13.5 13.5q5 6 12.5 11.5t16.5 11.5q8 4 16.5 8t16.5 6q11 2 20 4t18 2q10 0 20 -2t18 -4q11 -2 19 -6l16 -8q9 -6 16 -11.5
t16 -11.5q6 -7 12 -13.5t9 -17.5zM3257 -177q7 17 7 36q0 9 -2 17t-5 17q-3 11 -7.5 17.5t-10.5 13.5q-13 13 -32 19q-6 5 -16 6.5t-20 1.5q-19 0 -34 -8q-9 -3 -16 -8t-14 -11q-8 -7 -12.5 -13.5t-9.5 -17.5q-2 -9 -3.5 -17t-1.5 -17t1.5 -18.5t3.5 -17.5q9 -21 22 -30
q7 -7 14 -11.5t16 -9.5q8 -3 17 -5.5t17 -2.5q10 0 20 2.5t16 5.5q10 5 18 9.5t14 11.5q13 11 18 30zM3608 -3q3 0 4.5 1.5t6.5 1.5h50v-284h-50v208q-2 -3 -3 -6t-3 -7q-1 -6 -1 -9t-1 -6q-11 -22 -20 -44.5t-19 -44.5q-9 -23 -18 -45.5t-18 -45.5h-48l-73 180q-4 5 -4 15
q-2 3 -3 5t-1 5v-205h-54v284h50q5 0 7.5 -1.5t5.5 -1.5q3 -1 4.5 -1t4.5 -1l8 -8q2 -2 4 -5t3 -5q8 -21 16.5 -42.5t16.5 -42.5q8 -22 17 -43.5t18 -41.5q0 -2 0.5 -4t0.5 -3v-7q3 0 3 -6q0 6 1 6v7q0 1 1 3t1 4l12 20l57 150l2.5 5l2.5 5q2 3 5 4.5t3 3.5q3 1 5.5 1t5.5 1
z" />
    <glyph glyph-name="nine" unicode="9" horiz-adv-x="4097" 
d="M2952 600q4 -5 8.5 -11t7.5 -13q3 -6 4 -14t1 -17q0 -14 -5 -28q-3 -6 -7.5 -11t-8.5 -11q-6 -5 -12.5 -9t-11.5 -9q-14 -5 -29 -5q-8 0 -15.5 1t-12.5 4q-8 5 -14 9t-10 9q-5 6 -9.5 11t-6.5 11q-3 8 -5 15t-2 13q0 17 7 31q2 7 6.5 13t9.5 11q4 6 10 9.5t14 6.5
q10 7 28 7q8 0 14.5 -2t14.5 -5q5 -3 11.5 -6.5t12.5 -9.5zM1108 576q-1 -1 -7 -9q-3 -2 -4 -4t-6 -3q-3 -3 -11 -3h-44v63h44q7 0 11 -4q5 0 6 -1.5t4 -3.5q5 -6 7 -10q3 -4 3 -13q0 -8 -3 -12zM1477 600q5 -5 10 -11t8 -13q2 -6 3.5 -14t1.5 -17q0 -6 -1.5 -13t-3.5 -15
q-3 -6 -8 -11t-10 -11q-4 -5 -9.5 -9t-12.5 -9q-6 -3 -14 -4t-16 -1q-15 0 -29 5q-6 5 -12 9t-12 9q-4 6 -8.5 11t-7.5 11q-3 8 -5 15t-2 13q0 17 7 31q3 7 7.5 13t8.5 11q6 6 12 9.5t12 6.5q8 3 15 5t14 2q16 0 30 -7q7 -3 12.5 -6.5t9.5 -9.5zM1853 616q0 -4 1.5 -7
t1.5 -5l37 -84h-77l36 84q0 3 1 4v8zM784 611q2 -3 3 -7t4 -7q2 -4 2 -13v-6.5t-2 -6.5q-3 -3 -4 -6.5t-3 -4.5q-6 -6 -12 -9t-15 -3h-44v72h44q10 0 15 -4q3 0 6 -2t6 -3zM3669 1084v-765h-3144v765h1191q0 40 7 77.5t24 71.5q16 35 35.5 66.5t48.5 56.5q50 51 120 79
q35 16 71 23t75 7q42 0 79.5 -7.5t70.5 -24.5q37 -16 67.5 -37t56.5 -47q47 -48 80 -121q26 -72 26 -144h1192zM1776 1216q-29 -62 -29 -133q0 -73 29 -134q13 -32 31.5 -60t40.5 -53q24 -24 51.5 -43t60.5 -33q62 -29 137 -29q38 0 71 6.5t64 19.5q33 14 60.5 33t51.5 43
q24 23 43.5 51.5t32.5 59.5q29 67 29 139q0 32 -5 62.5t-16 57.5q-19 54 -56 98q-18 23 -38.5 40.5t-42.5 34.5q-26 13 -51 25t-52 19q-19 7 -42 10t-49 3q-39 0 -73.5 -7t-66.5 -23q-63 -25 -110 -76q-23 -23 -40.5 -51.5t-30.5 -59.5zM816 560q7 14 7 24q0 7 -2 13t-5 14
q0 4 -5 8.5t-10 8.5q-3 4 -7.5 8t-10.5 5q-5 5 -11.5 6t-14.5 1h-69v-199h25v74h44q8 0 14.5 1t11.5 3q13 6 18 13q5 4 10 8.5t5 11.5zM965 648h-124v-199h124v24h-94v62h78v26h-78v59h94v28zM1160 449l-63 86q5 1 8.5 2t7.5 6q10 2 12 10q3 3 6 8l6 10v17q0 7 -0.5 12.5
t-3.5 11.5q-5 9 -13 17q-5 11 -19 12q-3 5 -9 6t-12 1h-72v-199h28v82h31l52 -71q2 -7 9 -9q2 -2 6 -2h7h19zM1296 483q1 6 2.5 11t1.5 11q0 17 -5 27t-15 17q-3 2 -4.5 3.5t-6.5 3.5q-1 1 -3.5 1.5t-4.5 2.5q-3 1 -5.5 1.5t-2.5 3.5q-7 0 -10 3q-8 2 -11 3.5t-8 3.5
q-8 2 -11 5q-6 4 -6 8v9v11l4 4t2 4q3 0 6 1.5l5 2.5q5 2 7.5 2.5t7.5 0.5q1 0 3.5 -1.5t4.5 -1.5q8 -1 10 -7q3 -1 5.5 -1.5t6.5 -0.5q10 0 15 5l9 4q-2 3 -4.5 4.5t-5.5 4.5l-6 6t-9 5q-3 1 -6.5 3t-8.5 4q-5 1 -8 2.5t-6 1.5q-6 0 -12.5 -1.5t-10.5 -2.5q-7 -2 -11 -5
t-9 -5q-4 -5 -8.5 -9t-6.5 -8q-1 -5 -2.5 -10t-1.5 -13q0 -7 0.5 -11.5t3.5 -9.5q2 -4 6 -8t6 -8l10 -6t10 -5q5 -3 9 -4.5t10 -4.5q3 -2 7.5 -2.5t7.5 -1.5q5 -1 7.5 -2.5t5.5 -2.5q3 -3 4 -5t5 -6q2 -4 2.5 -7t0.5 -8q0 -2 -0.5 -6t-3.5 -7t-4 -5.5t-4 -3.5q-3 -5 -7 -6.5
t-6 -3.5q-5 0 -8.5 -0.5t-6.5 -0.5q-6 0 -9 0.5t-6 0.5q-3 2 -6.5 3.5t-3.5 6.5l-4 1q-7 7 -15 7q-3 0 -6 -0.5t-6 -3.5l-7 -3q0 -4 2 -4q0 -4 5 -7q0 -4 4 -5q0 -2 2 -4q1 -1 2 -1q11 -9 22.5 -12.5t25.5 -3.5q6 0 12.5 0.5t12.5 3.5q5 1 12.5 4t10.5 8q5 4 9.5 8t6.5 12z
M1525 520q2 8 2.5 13.5t0.5 11.5q0 18 -3 30q-2 7 -5.5 12.5t-6.5 12.5q-5 9 -16 20q-4 4 -9.5 7.5t-12.5 9.5q-5 2 -10 5t-13 5q-6 1 -12.5 2.5t-14.5 1.5q-7 0 -13.5 -1.5t-12.5 -2.5q-8 -2 -13.5 -5t-10.5 -5q-6 -6 -11.5 -9.5t-10.5 -7.5q-5 -5 -9 -10t-7 -10
q-4 -7 -5.5 -12.5t-4.5 -12.5q-4 -11 -4 -30q0 -8 2.5 -18t6.5 -19q3 -10 8.5 -18.5t12.5 -16.5q8 -6 16.5 -11t17.5 -7q16 -8 38 -8h14.5t12.5 2q15 4 23 11q16 7 22 13q9 9 16 23q3 6 6.5 12t5.5 12zM1733 648h-26v-156q0 4 -1.5 7.5t-2.5 5.5l-96 135q-5 1 -10 7
q-3 0 -6 0.5t-6 0.5h-18v-199h26v167v-4l2 -2l2 -2v-4l116 -155h20v199zM1956 449l-87 199h-28l-88 -199h16q10 0 14 2q1 3 3 4.5t5 4.5l13 32h103l13 -32q2 -7 8 -9q1 -2 12 -2h16zM2089 473h-86v175h-28v-199h114v24zM2363 648h-27v-121q0 -8 -0.5 -12.5t-3.5 -10.5
q-1 -10 -12 -16q-3 -4 -7.5 -6.5t-8.5 -6.5q-5 -2 -9 -2.5t-11 -0.5q-13 0 -20 3q-6 4 -10.5 6.5t-6.5 6.5q-3 3 -6 7t-8 9q-1 6 -1.5 10.5t-0.5 12.5v121h-27v-121q0 -8 0.5 -13.5t2.5 -9.5q0 -10 6 -20q6 -11 15 -16q3 -3 6.5 -6t8.5 -6q3 -3 8.5 -4t9.5 -3
q6 -2 11.5 -3.5t11.5 -1.5q7 0 11 1.5t12 3.5q4 2 8.5 3t8.5 4q9 5 16 12q5 3 7.5 7t5.5 9q2 5 5 9.5t5 10.5v23v121zM2517 483q8 11 8 22q0 17 -5.5 27t-16.5 17q-6 4 -8 7q-3 1 -5.5 1.5t-5.5 2.5q-1 1 -4.5 1.5t-6.5 3.5q-1 0 -3.5 1t-5.5 2q-5 2 -7.5 3.5t-7.5 3.5
q-9 2 -10 5q-5 2 -6.5 3.5t-3.5 4.5q0 1 -0.5 3.5t-0.5 5.5q0 6 4 11q1 4 7 8q3 0 4.5 1.5t5.5 2.5q3 3 14 3q1 0 3.5 -1.5t5.5 -1.5q3 -3 11 -7q8 -2 12 -2q8 0 13 5l7 4q-2 3 -4.5 4.5t-5.5 4.5q-2 3 -5.5 6t-7.5 5q-3 1 -6.5 3t-8.5 4q-4 1 -8 2.5t-6 1.5q-6 0 -12 -1.5
t-12 -2.5q-5 -2 -10 -5t-9 -5q-4 -5 -7 -9l-6 -8q-3 -5 -5 -10t-2 -13q0 -7 2 -11.5t5 -9.5q4 -10 10 -16q5 -3 9 -6t9 -5q6 -3 11.5 -4.5t9.5 -4.5q5 -2 7.5 -2.5t5.5 -1.5l7.5 -2.5l7.5 -2.5l5 -5t3 -6q3 -4 3.5 -7t0.5 -8q0 -2 -0.5 -6t-3.5 -7q-2 -7 -9 -9
q-5 -5 -8 -6.5t-6 -3.5q-4 0 -7 -0.5t-6 -0.5q-4 0 -8.5 0.5t-7.5 0.5q-7 3 -12 10l-3 1q-7 7 -14 7q-2 0 -5.5 -0.5t-5.5 -3.5l-8 -3q1 -1 1.5 -2.5t2.5 -1.5q0 -2 1.5 -3.5t1.5 -3.5l2.5 -2.5t1.5 -2.5q5 -5 8 -5q8 -9 20 -12.5t25 -3.5q6 0 12.5 0.5t14.5 3.5q6 1 10.5 4
t10.5 8q4 4 7 8t6 12zM2681 648h-124v-199h124v24h-96v62h79v26h-79v59h96v28zM2997 520q2 8 2.5 13.5t0.5 11.5q0 8 -0.5 16t-2.5 14q-3 12 -10 25q-5 8 -18 20q-4 4 -8.5 7.5t-9.5 9.5q-6 2 -13 5t-13 5q-6 1 -12 2.5t-14 1.5t-14.5 -1.5t-12.5 -2.5q-15 -5 -25 -10
q-5 -6 -10.5 -9.5t-9.5 -7.5q-5 -5 -9 -10t-9 -10q-2 -7 -5 -12.5t-4 -12.5q-4 -11 -4 -30q0 -8 1.5 -18t6.5 -19q7 -20 23 -35q7 -6 15 -11t17 -7q16 -8 40 -8h14t12 2t13 4.5t13 6.5q5 3 9.5 6t8.5 7q12 10 18 23q7 11 10 24zM3207 648h-27v-156q-2 4 -3 7.5t-4 5.5
l-96 135q-1 1 -2 3t-4 4q-3 0 -7 0.5t-7 0.5h-20v-199h30v167q0 -4 1 -4v-4q0 -1 1 -2l2 -2l113 -155h23v199zM3371 473h-87v175h-28v-199h115v24zM3531 648h-22q-8 0 -13 -4q-8 -6 -9 -11l-48 -62q-1 -1 -1 -2q-1 -1 -3 -1v-3v3l-2 3l-46 62q-5 6 -11 11q-5 4 -13 4h-22
l74 -99q1 0 2 -4q0 -1 1 -1t2 -1v-4q0 -1 1 -2v-5v-83h30v83v5q1 0 1 6q2 0 4 2v3q0 1 1 1zM1983 787q-26 11 -50 26.5t-46 33.5h421q-21 -18 -45 -33.5t-50 -26.5q-28 -8 -57 -15.5t-59 -7.5q-31 0 -59.5 7.5t-54.5 15.5zM1921 880l411 416q39 -51 59.5 -104.5t20.5 -108.5
q0 -29 -4 -56.5t-15 -53.5q-9 -25 -22.5 -47.5t-30.5 -45.5h-419zM1860 871q-37 45 -59 97q-11 26 -14.5 55.5t-3.5 59.5q0 28 3.5 55t13.5 53q9 25 22.5 47.5t29.5 45.5h420zM2213 1377q26 -11 50 -26t44 -32h-423q47 38 99 58q50 22 114 22q62 0 116 -22zM531 116
q-5 5 -7 10t-4 11q-2 8 -3.5 13t-1.5 13q0 9 5 21q2 7 4 13.5t7 11.5q3 5 5.5 9.5t7.5 9.5q3 4 8 8t9 7q8 3 12.5 5t10.5 5q5 0 12 1.5t15 1.5q9 0 17 -2t19 -7q9 -3 16 -8t13 -11q-3 -4 -5 -4q0 -1 -1 -2t-2 -1q0 -1 -4 -1h-4q-7 0 -9 1q-5 2 -10 6t-10 5t-9.5 1h-10.5
q-8 0 -15.5 -0.5t-12.5 -1.5q-8 -5 -14 -9t-12 -9q-5 -5 -8.5 -10t-5.5 -12q-5 -8 -6 -15t-1 -13q0 -10 4 -19q2 -5 3 -9.5t2 -9.5q3 -4 6 -7t6 -7q6 -3 9.5 -6.5t8.5 -4.5q4 -2 7.5 -4.5t8.5 -4.5t10 -2h10h11t11 2t12.5 4.5t10.5 5.5v39h-15h-2q-1 0 -2 1l-4.5 3t-3.5 3
l-2.5 2.5t-1.5 2.5t-0.5 3t-0.5 4v1h52v-71q-4 -4 -6.5 -5.5t-6.5 -6.5q-8 -2 -16 -2q-9 -4 -19 -4h-17h-15t-12 1q-6 2 -10.5 4t-12.5 7q-4 2 -9 5t-8 9q-5 3 -7.5 8zM743 232v-59h73v-20h-73v-62h89v-19h-112v181h112v-21h-89zM912 72v160h-59v21h138v-21h-59v-160h-20z
M1125 232v-63h78v-18h-78v-79h-21v181h112v-21h-91zM1269 253v-112q0 -6 2 -10t5 -8q2 -8 5 -11t6 -8q3 -3 6.5 -5.5t7.5 -5.5q6 -3 11.5 -3.5t10.5 -0.5q6 0 10 0.5t8 3.5q6 3 10 5.5t9 5.5q2 5 5.5 8t5.5 11q5 6 5 18v112h20v-112q0 -8 -2 -14t-5 -14q-2 -7 -5.5 -12.5
t-8.5 -11.5q-5 -4 -11 -8t-12 -6q-15 -4 -29 -4q-15 0 -30 4q-5 2 -10.5 6t-10.5 8q-10 10 -16 24q-2 8 -4.5 14t-2.5 14v112h20zM1455 253v-162h81v-19h-103v181h22zM1577 253v-162h83v-19h-103v181h20zM1827 72l-80 181h10q7 0 11 -4q1 -2 3 -2.5t5 -3.5l57 -136v-7
q3 -3 3 -7v7q0 1 0.5 3t0.5 4q8 16 16 33t16 33q6 20 14 36.5t16 33.5q1 3 2.5 3.5t1.5 2.5q5 3 7 3.5t5 0.5h9q-9 -22 -19 -45t-21 -45q-9 -24 -18.5 -46.5t-18.5 -44.5h-20zM1960 232v-59h75v-20h-75v-62h89v-19h-109v181h109v-21h-89zM2184 156q-3 -3 -15 -5l62 -79h-14
q-3 0 -6.5 0.5t-3.5 2.5l-6 2t-5 6l-49 68h-34v-79h-20v181h66q6 0 9.5 -0.5t8.5 -3.5q10 -3 19 -10q3 -5 6 -9t5 -9q2 -4 2 -9.5v-8.5v-9.5t-2 -9.5q0 -5 -2.5 -9.5t-4.5 -6.5q-3 -3 -6.5 -6t-9.5 -6zM2159 169q8 0 10 2q3 2 6 3.5l5 2.5q3 3 4 5.5t4 5.5q0 3 1.5 6.5
t1.5 8.5q0 3 -1.5 5t-1.5 5q-3 3 -4 5.5t-4 5.5q-2 0 -5 2.5t-6 4.5q-2 1 -10 1h-46v-63h46zM2327 97q4 3 6 11q3 3 3.5 7.5t0.5 7.5q0 10 -1 14q-2 3 -4 5.5t-5 4.5q-3 4 -11 6q-5 0 -8 2t-8 4q-5 1 -9.5 3.5t-7.5 4.5q-12 2 -19 9q-2 1 -5 5t-6 7v19q0 7 0.5 11.5t2.5 9.5
q2 9 12 15q6 3 9.5 5t9.5 5q5 0 8.5 1.5t8.5 1.5q4 0 8.5 -1.5t7.5 -1.5t5.5 -2t6.5 -4q3 -2 5.5 -3.5t3.5 -3.5q5 -3 7 -5t4 -3l-5 -4q-3 -4 -11 -4h-9q-4 5 -4 7q-2 0 -3.5 0.5t-3.5 0.5h-2q-1 0 -2.5 0.5t-2.5 0.5h-5q-8 0 -11 -1q-9 0 -10 -4q-7 -7 -7 -11q-4 -1 -4 -10
q0 -7 4 -8q0 -7 4 -8q2 -2 5 -4.5t6 -2.5q4 -2 7.5 -3.5t9.5 -3.5q1 -1 4.5 -1.5t3.5 -2.5q3 0 5.5 -1t5.5 -3q2 -1 3 -1t1.5 -0.5t1.5 -0.5q2 0 4.5 -1.5t3.5 -2.5l8.5 -8.5t6.5 -7.5q4 -13 4 -24q0 -8 -1 -12.5t-6 -10.5q-1 -9 -12 -16q-4 -5 -9.5 -6.5t-8.5 -2.5
q-5 -3 -11.5 -3.5t-14.5 -0.5q-11 0 -21.5 3t-18.5 10q-3 1 -4 3.5t-6 5.5q0 3 -1.5 5t-1.5 3l3 3q2 0 2.5 1.5t3.5 1.5h3q4 0 6.5 -2t6.5 -4q5 -3 8 -5.5t7 -4.5q2 -2 6 -2h7q11 0 15 2q9 0 15 6zM2420 253v-181h-20v181h20zM2491 97q-14 12 -22 28q-6 18 -6 38
q0 5 0.5 10.5t1.5 10.5q5 15 10 25q7 10 16 19t18 15q5 3 11.5 5t11.5 5q6 0 12 1.5t12 1.5q7 0 14 -1.5t13 -1.5q5 -3 10.5 -5t10.5 -5t9.5 -7t9.5 -8q4 -5 6.5 -9.5t7.5 -9.5q5 -10 10 -25q1 -5 2.5 -10.5t1.5 -10.5q0 -9 -2.5 -19t-7.5 -19q-3 -9 -8 -16t-10 -12
q-8 -7 -15 -12.5t-17 -8.5q-10 -5 -35 -5q-9 0 -18 1t-18 4q-19 6 -29 21zM2491 191q-3 -8 -5 -15t-2 -13q0 -5 0.5 -9.5t2.5 -9.5q1 -9 8 -19q1 -4 3.5 -7t5.5 -7q4 -3 7.5 -6.5t8.5 -4.5q5 -2 9 -4.5t8 -4.5q5 -2 9.5 -2h9.5h10t10 2q5 2 9 4.5t8 4.5q3 1 7.5 4.5t7.5 6.5
q3 4 6 7t5 7q3 5 4 9.5t2 9.5q2 5 2.5 9.5t0.5 9.5q0 6 -1.5 13t-3.5 15q-2 7 -6.5 12t-8.5 10q-5 5 -11 9t-13 9q-6 1 -13 1.5t-15 0.5t-14.5 -0.5t-13.5 -1.5q-6 -5 -12 -9t-12 -9q-5 -5 -7.5 -10t-5.5 -12zM2704 72h-20v181h15q4 0 7.5 -0.5t6.5 -5.5l95 -134q1 -1 1 -5
q3 -3 3 -2v-2v149h20v-181h-16l-109 149v3h-3v7v-159zM2987 232v-63h74v-18h-74v-79h-22v181h111v-21h-89zM3192 156q-10 -4 -16 -5l57 -79h-12q-8 0 -12 3q-2 1 -3.5 2t-2.5 6l-51 68h-33v-79h-22v181h66q5 0 10 -0.5t11 -3.5q5 -2 9 -4.5t7 -5.5q3 -5 5.5 -9t7.5 -9
q0 -4 1.5 -9.5t1.5 -8.5q0 -5 -1.5 -9.5t-1.5 -9.5q-3 -5 -5 -9.5t-4 -6.5zM3176 171q3 2 4.5 3.5t3.5 2.5q7 7 8 11t1 15q0 6 -1 10t-8 11q-2 0 -3.5 2.5t-4.5 4.5q-5 1 -13 1h-44v-63h44q8 0 13 2zM3412 97q-7 -7 -14.5 -12.5t-16.5 -8.5q-7 -3 -15.5 -4t-18.5 -1
q-11 0 -20.5 1t-17.5 4q-17 6 -29 21q-6 5 -11.5 12t-8.5 16t-5 19t-2 19q0 5 0.5 10.5t2.5 10.5q1 7 3.5 13.5t4.5 11.5q4 5 8.5 9.5t7.5 9.5l10 8t10 7t11.5 5t11.5 5q6 0 11 1.5t13 1.5q5 0 11.5 -1.5t13.5 -1.5q6 -3 11 -5t9 -5q6 -3 11 -7t9 -8q4 -5 7 -9.5t6 -9.5
q7 -10 10 -25q3 -5 4 -10.5t1 -10.5q0 -9 -1.5 -19t-6.5 -19q-3 -9 -8.5 -16t-11.5 -12zM3347 89h9.5t10.5 2q4 2 7.5 4.5t6.5 4.5q5 1 9 4.5t9 6.5q3 4 5.5 7t4.5 7q2 5 4 9.5t3 9.5t1 9.5v9.5q0 6 -0.5 13t-1.5 15q-3 7 -8 12t-8 10q-8 5 -13.5 9t-10.5 9q-6 1 -13.5 1.5
t-14.5 0.5q-8 0 -15 -0.5t-13 -1.5q-8 -5 -13.5 -9t-9.5 -9q-7 -5 -10 -10t-6 -12q-3 -8 -3.5 -15t-0.5 -13v-19q2 -5 3.5 -9.5t4.5 -9.5q2 -4 5 -7l7 -7q3 -3 6 -6.5t7 -4.5q5 -2 9 -4.5t9 -4.5q4 -2 9.5 -2h10.5zM3644 249q3 3 5 3.5t4 0.5h16v-181h-18v149q0 -1 -3 -4v-1
v-3q-5 -10 -9 -21t-10 -19q-4 -10 -7.5 -17.5t-8.5 -18.5q-2 -9 -6 -17.5t-7 -15.5l-8.5 -17l-7.5 -15h-19q-11 16 -18 34t-15 35q-7 20 -15 37.5t-17 34.5v4q-3 3 -3 4v-149h-20v181h18q5 0 9 -4q3 -2 4 -2.5t1 -3.5l63 -142q0 -4 3 -4v-4q0 3 0.5 5.5t0.5 5.5q1 5 7 9
l54 130q2 3 3.5 3.5t3.5 2.5zM525 0h208v-25v-6t-1 -6q-1 -5 -3 -7l-5 -5l-139 -190h2l2 3h4h4h135v-48h-217v16q0 11 2 15q0 2 6 10q2 3 3 5.5t2 6.5q2 2 4.5 5t3.5 6l124 171h-135v49zM768 0h183v-49h-131v-67h105v-51h-105v-69h131v-48h-183v284zM1177 -49h-80v-235h-53
v235h-84v49h217v-49zM1307 0l122 -284h-30q-13 0 -22 5q-4 2 -6.5 7.5t-7.5 10.5l-15 37h-131l-14 -37q-2 -5 -3 -6t-4 -2q-2 -5 -3.5 -6.5t-4.5 -3.5q-3 -1 -5.5 -2.5t-5.5 -1.5q-1 -1 -4 -1h-5h-31l123 284h47zM1324 -173l-37 88q0 2 -1.5 4.5t-1.5 4.5q0 5 -1 8v-8
q0 -2 -1.5 -4.5t-2.5 -4.5l-36 -88h81zM1443 0h180v-49h-131v-74h109v-50h-109v-111h-49v284zM1911 -71q4 -7 7 -15t6 -18q3 -9 3.5 -18.5t0.5 -18.5q0 -11 -0.5 -20.5t-3.5 -18.5l-6 -18t-7 -18q-6 -6 -11.5 -14t-12.5 -14q-8 -7 -14 -12.5t-14 -10.5q-9 -7 -17.5 -10
t-17.5 -6q-11 -1 -20.5 -2.5t-19.5 -1.5q-15 0 -28.5 3t-27.5 8q-14 6 -25 14t-22 18q-19 20 -29 45q-6 14 -9 27.5t-3 30.5q0 9 1 18.5t3 18.5q6 21 16 33q5 11 10 17.5t11 13.5q8 6 15 11.5t17 11.5q6 4 14.5 8t19.5 6q8 2 17 4t20 2q10 0 19.5 -2t20.5 -4q9 -2 17.5 -6
t17.5 -8q8 -6 14 -11.5t14 -11.5q7 -7 12.5 -13.5t11.5 -17.5zM1871 -177q3 8 4.5 17.5t1.5 18.5q0 16 -6 34q-3 11 -8.5 17.5t-13.5 13.5q-6 6 -13 11t-16 8q-15 8 -36 8q-20 0 -37 -8q-6 -3 -13.5 -8t-13.5 -11q-8 -7 -12.5 -13.5t-8.5 -17.5q-5 -9 -6 -17t-1 -17t1 -18.5
t6 -17.5q4 -11 8.5 -18t12.5 -12q6 -7 13.5 -11.5t13.5 -9.5q10 -3 19 -5.5t18 -2.5q10 0 19 2.5t17 5.5q9 5 16 9.5t13 11.5q8 5 13.5 12t8.5 18zM2167 0h50v-284h-48l-134 191q-2 2 -2.5 3t-1.5 2q-4 5 -4 8q-4 2 -4 5q-2 2 -3 3.5t-3 3.5v-216h-52v284h47q4 0 9 -1.5
t7 -2.5q5 -1 7.5 -3t4.5 -5q15 -21 29.5 -42t27.5 -43q17 -20 31 -40.5t31 -39.5q1 -3 2.5 -6t2.5 -8q0 -2 1.5 -5t1.5 -4v200zM2243 0h217v-49h-84v-235h-52v235h-81v49zM2637 -147q5 -4 8.5 -9.5t6.5 -11.5q1 -6 2.5 -12.5t1.5 -15.5q0 -18 -8 -36q-5 -9 -9.5 -16
t-13.5 -13q-7 -6 -14 -11t-18 -8q-8 -3 -18 -5t-19 -2q-10 0 -19.5 2t-21.5 5q-8 3 -15.5 9t-15.5 14q-5 3 -8.5 7.5t-6.5 9.5q-4 4 -6 16q1 0 2 1.5t4 2.5q2 0 3 1.5t3 2.5q4 0 6 1.5t3 1.5h11q2 0 5 -0.5t5 -2.5q7 0 12 -4q6 -3 10.5 -6t8.5 -5q3 -1 8.5 -3t11.5 -2
q3 0 7.5 0.5t8.5 3.5q10 2 16 8q7 4 12 11q3 5 5 8.5t2 8.5q0 10 -7 15q-6 8 -12 8q-3 4 -7.5 5.5t-8.5 3.5q-8 2 -19 8q-7 2 -13.5 4t-12.5 5q-9 5 -15 8.5t-12 9.5q-6 4 -10 9.5t-7 11.5q-8 15 -8 32q0 22 8 33q4 8 9 14t11 12q7 4 13.5 8t15.5 6q8 2 15 4t18 2q5 0 11 -2
l12 -4q7 -1 11 -3.5t12 -5.5q4 -3 8.5 -7.5l8.5 -8.5q4 -3 8.5 -7t7.5 -9l-11 -7q-3 -2 -6.5 -4.5t-6.5 -4.5q-5 -1 -8 -1h-8h-3h-4q-8 2 -9 4q-5 1 -8 4q-3 0 -4.5 1t-3.5 1q-4 2 -7 2q-12 0 -16 -2q-4 0 -5.5 -1.5t-6.5 -3.5q-4 -2 -6 -9q-3 -3 -3 -11t3 -9q1 -3 3 -5
t3 -7q5 0 8.5 -1.5t7.5 -2.5q6 -2 12.5 -5t11.5 -5l11 -2q7 -5 14.5 -8t13.5 -7q12 -5 21 -19zM2724 -236q6 0 8 -8q1 -2 1 -6v-6q0 -8 -1 -12q-2 -6 -8 -11q-5 -2 -8 -5q-2 -2 -6 -2.5t-7 -0.5t-6.5 0.5t-4.5 2.5q-3 1 -6 2.5t-6 2.5q-2 2 -3.5 5t-3.5 6q-2 4 -2 12v6t2 6
q2 3 3.5 5.5t3.5 2.5q6 8 12 8q1 3 4.5 3.5t6.5 0.5t7 -0.5t6 -3.5q3 0 8 -8zM2832 -76q-10 -12 -20 -31q-3 -9 -5.5 -17t-2.5 -17t2.5 -18.5t5.5 -17.5q5 -11 9.5 -18t10.5 -12q7 -7 13.5 -11.5t17.5 -9.5q9 -3 18 -5.5t18 -2.5q8 0 14 2t12 3q6 2 13 5.5t13 8.5q5 1 9 4h9
q5 0 10 -0.5t8 -2.5q7 -2 10 -8l11 -12q-9 -12 -21 -20q-9 -4 -15.5 -8.5t-14.5 -7.5q-6 -5 -13.5 -7t-15.5 -4q-6 -3 -13.5 -3.5t-15.5 -0.5q-17 0 -30.5 3t-27.5 8q-27 13 -45 32q-20 20 -32 45q-5 14 -8 27.5t-3 30.5q0 9 1.5 18.5t2.5 18.5q3 10 6 18t9 15
q6 11 11.5 17.5t12.5 13.5q6 6 14.5 11.5t16.5 11.5q7 4 15 8t18 6q9 2 18.5 4t20.5 2q8 0 15.5 -0.5t13.5 -5.5q8 -1 15.5 -3.5t13.5 -5.5q8 -3 14.5 -7.5t15.5 -8.5q13 -11 21 -21l-11 -12q-2 -5 -4.5 -6.5t-5.5 -3.5q-5 -1 -9 -1h-9t-9.5 1t-8.5 4q-6 5 -13 8t-13 6
q-6 2 -12 3t-14 1q-20 0 -36 -8q-11 -3 -17.5 -8t-13.5 -11zM3297 -71q5 -7 8.5 -15t6.5 -18q3 -9 3.5 -18.5t0.5 -18.5q0 -11 -0.5 -20.5t-3.5 -18.5t-6.5 -18t-8.5 -18q-7 -14 -21 -28q-9 -7 -16 -12.5t-16 -10.5q-8 -7 -16 -10t-19 -6q-8 -1 -18 -2.5t-20 -1.5
q-28 0 -55 11q-14 6 -25 14t-20 18q-11 10 -19 21t-12 24q-6 14 -9 27.5t-3 30.5q0 9 1.5 18.5t2.5 18.5q3 10 7.5 18t8.5 15q4 11 9.5 17.5t13.5 13.5q5 6 12.5 11.5t16.5 11.5q8 4 16.5 8t16.5 6q11 2 20 4t18 2q10 0 20 -2t18 -4q11 -2 19 -6l16 -8q9 -6 16 -11.5
t16 -11.5q6 -7 12 -13.5t9 -17.5zM3257 -177q7 17 7 36q0 9 -2 17t-5 17q-3 11 -7.5 17.5t-10.5 13.5q-13 13 -32 19q-6 5 -16 6.5t-20 1.5q-19 0 -34 -8q-9 -3 -16 -8t-14 -11q-8 -7 -12.5 -13.5t-9.5 -17.5q-2 -9 -3.5 -17t-1.5 -17t1.5 -18.5t3.5 -17.5q9 -21 22 -30
q7 -7 14 -11.5t16 -9.5q8 -3 17 -5.5t17 -2.5q10 0 20 2.5t16 5.5q10 5 18 9.5t14 11.5q13 11 18 30zM3608 -3q3 0 4.5 1.5t6.5 1.5h50v-284h-50v208q-2 -3 -3 -6t-3 -7q-1 -6 -1 -9t-1 -6q-11 -22 -20 -44.5t-19 -44.5q-9 -23 -18 -45.5t-18 -45.5h-48l-73 180q-4 5 -4 15
q-2 3 -3 5t-1 5v-205h-54v284h50q5 0 7.5 -1.5t5.5 -1.5q3 -1 4.5 -1t4.5 -1l8 -8q2 -2 4 -5t3 -5q8 -21 16.5 -42.5t16.5 -42.5q8 -22 17 -43.5t18 -41.5q0 -2 0.5 -4t0.5 -3v-7q3 0 3 -6q0 6 1 6v7q0 1 1 3t1 4l12 20l57 150l2.5 5l2.5 5q2 3 5 4.5t3 3.5q3 1 5.5 1t5.5 1
z" />
    <glyph glyph-name="colon" unicode=":" horiz-adv-x="619" 
d="M309 133q40 0 62 -19.5t22 -54.5t-22 -55t-62 -20q-39 0 -61 20t-22 55t22 54.5t61 19.5zM309 934q40 0 62 -19.5t22 -54.5t-22 -55t-62 -20q-39 0 -61 20t-22 55t22 54.5t61 19.5z" />
    <glyph glyph-name="semicolon" unicode=";" horiz-adv-x="619" 
d="M308 -16q-39 1 -60.5 20.5t-21.5 54.5t22 54.5t61 19.5q40 0 62 -19.5t22 -54.5q0 -33 -6 -62.5t-16 -51t-23 -34t-27 -12.5q-5 0 -9 3t-4 11v71zM309 934q40 0 62 -19.5t22 -54.5t-22 -55t-62 -20q-39 0 -61 20t-22 55t22 54.5t61 19.5z" />
    <glyph glyph-name="less" unicode="&#x3c;" horiz-adv-x="688" 
d="M304 637l154 -315q4 -10 -3.5 -17t-19.5 -7h-48q-29 0 -44 17t-23 41l-112 281l112 281q8 24 23 41t44 17h48q12 0 19.5 -7t3.5 -17z" />
    <glyph glyph-name="equal" unicode="=" horiz-adv-x="829" 
d="M244 676q-9 0 -15 5t-6 15v34q0 26 14 42t37 16h313q9 0 15 -5t6 -15v-34q0 -26 -14 -42t-37 -16h-313zM244 476q-9 0 -15 5t-6 15v34q0 26 14 42t37 16h313q9 0 15 -5t6 -15v-34q0 -26 -14 -42t-37 -16h-313z" />
    <glyph glyph-name="greater" unicode="&#x3e;" horiz-adv-x="708" 
d="M243 952q-4 10 3.5 17t19.5 7h48q29 0 44 -17t23 -41l112 -281l-112 -281q-8 -24 -23 -41t-44 -17h-48q-12 0 -19.5 7t-3.5 17l154 315z" />
    <glyph glyph-name="question" unicode="?" 
d="M379 552q0 61 19 107t41.5 88.5t41.5 87.5t19 104v305q0 27 -14.5 43.5t-43.5 16.5q-30 0 -44 -16.5t-14 -43.5v-241q0 -26 -14.5 -42.5t-43.5 -16.5h-56q-10 0 -15 6t-5 15v279q0 40 13.5 71.5t39 54t60.5 34.5t79 12q91 0 141.5 -46t50.5 -126v-305q0 -51 -10.5 -90.5
t-26 -72t-33.5 -62t-34 -60t-27.5 -65t-12.5 -78.5l-9 -292q-1 -23 -16.5 -37t-41.5 -14h-24q-10 0 -15 6t-5 15v363zM429 133q40 0 62 -19.5t22 -54.5t-22 -55t-62 -20q-39 0 -61 20t-22 55t22 54.5t61 19.5z" />
    <glyph glyph-name="at" unicode="@" horiz-adv-x="1386" 
d="M384 191q0 -72 18.5 -130.5t57 -100.5t96.5 -64.5t137 -22.5h114q9 0 15 -5t6 -15v-34q0 -26 -14 -42t-37 -16h-86q-99 0 -180.5 27.5t-139 79.5t-89.5 125.5t-32 165.5v859q0 92 30.5 165.5t88 125.5t140 79.5t186.5 27.5q99 0 180.5 -27.5t139 -79.5t89.5 -125.5
t32 -165.5v-860q0 -80 -50.5 -126t-141.5 -46q-59 0 -93.5 20.5t-51.5 45.5q-17 -26 -51.5 -46t-84.5 -20q-36 0 -66 14.5t-51 38.5t-32.5 55t-11.5 64v862q0 80 50.5 126t141.5 46q43 0 78.5 -12t61 -34.5t39 -54t13.5 -71.5v-862q0 -27 14 -43.5t44 -16.5q29 0 43.5 16.5
t14.5 43.5v828q0 72 -18.5 130.5t-57 100.5t-96.5 64.5t-137 22.5q-76 0 -133.5 -22.5t-96.5 -64.5t-59 -100.5t-20 -130.5v-795zM636 158q0 -27 14 -43.5t44 -16.5q29 0 43.5 16.5t14.5 43.5v862q0 27 -14 43.5t-44 16.5q-29 0 -43.5 -16.5t-14.5 -43.5v-862z" />
    <glyph glyph-name="A" unicode="A" horiz-adv-x="845" 
d="M479 1400q9 0 14 -6t6 -14l120 -1355q1 -9 -5.5 -17t-20.5 -8h-49q-25 0 -41.5 14.5t-18.5 35.5l-11 191h-101l-11 -191q-2 -21 -18.5 -35.5t-41.5 -14.5h-49q-14 0 -20.5 8t-5.5 17l120 1355q1 8 6 14t14 6h113zM378 353h88l-44 748z" />
    <glyph glyph-name="B" unicode="B" 
d="M444 1400q43 0 78 -12t60 -34.5t38.5 -54.5t13.5 -71v-399q0 -44 -17.5 -72t-48.5 -45q31 -17 48.5 -44.5t17.5 -70.5v-425q0 -80 -52 -126t-140 -46h-172q-10 0 -15 6t-5 15v1358q0 9 5 15t15 6h174zM500 597q0 26 -14 43t-43 17h-59v-545h58q30 0 44 16.5t14 43.5v425z
M500 1228q0 27 -14 43.5t-44 16.5h-58v-519h58q30 0 44 17t14 43v399z" />
    <glyph glyph-name="C" unicode="C" 
d="M500 553q0 26 14 42.5t42 17.5h58q10 0 15 -6t5 -15v-436q0 -80 -50.5 -126t-141.5 -46q-44 0 -79 12t-60.5 34.5t-39 54t-13.5 71.5v1088q0 80 50.5 126t141.5 46q43 0 78.5 -12t61 -34.5t39 -54t13.5 -71.5v-448q0 -9 -5 -15t-15 -6h-56q-29 0 -43.5 16.5t-14.5 42.5
v410q0 27 -14 43.5t-44 16.5q-29 0 -43.5 -16.5t-14.5 -43.5v-1088q0 -27 14 -43.5t44 -16.5q29 0 43.5 16.5t14.5 43.5v397z" />
    <glyph glyph-name="D" unicode="D" 
d="M442 1400q88 0 140 -46.5t52 -125.5v-1056q0 -80 -50.5 -126t-141.5 -46h-172q-10 0 -15 6t-5 15v1358q0 9 5 15t15 6h172zM500 1228q0 26 -13.5 43t-44.5 17h-58v-1176h58q30 0 44 17t14 43v1056z" />
    <glyph glyph-name="E" unicode="E" horiz-adv-x="780" 
d="M537 1400q9 0 15 -5t6 -15v-34q0 -26 -14 -42t-37 -16h-123v-539h133q9 0 15 -5t6 -15v-34q0 -26 -14 -42t-37 -16h-103v-525h123q23 0 37 -16t14 -42v-34q0 -10 -6 -15t-15 -5h-267q-10 0 -15 6t-5 15v1358q0 9 5 15t15 6h267z" />
    <glyph glyph-name="F" unicode="F" horiz-adv-x="780" 
d="M537 1400q9 0 15 -5t6 -15v-34q0 -26 -14 -42t-37 -16h-123v-539h133q9 0 15 -5t6 -15v-34q0 -26 -14 -42t-37 -16h-103v-578q0 -26 -14.5 -42.5t-43.5 -16.5h-56q-10 0 -15 6t-5 15v1358q0 9 5 15t15 6h267z" />
    <glyph glyph-name="G" unicode="G" 
d="M614 653q10 0 15 -6t5 -15v-476q0 -80 -50.5 -126t-141.5 -46q-44 0 -79 12t-60.5 34.5t-39 54t-13.5 71.5v1088q0 80 50.5 126t141.5 46q43 0 78.5 -12t61 -34.5t39 -54t13.5 -71.5v-489q0 -9 -5 -15t-15 -6h-56q-29 0 -43.5 16.5t-14.5 42.5v451q0 27 -14 43.5
t-44 16.5q-29 0 -43.5 -16.5t-14.5 -43.5v-1088q0 -27 14 -43.5t44 -16.5q29 0 43.5 16.5t14.5 43.5v363q-27 0 -43.5 14.5t-16.5 43.5v56q0 10 6 15t15 5h153z" />
    <glyph glyph-name="H" unicode="H" 
d="M326 1400q26 0 42 -14t16 -37v-580h116v580q0 23 16 37t42 14h56q10 0 15 -6t5 -15v-1358q0 -9 -5 -15t-15 -6h-56q-29 0 -43.5 16.5t-14.5 42.5v598h-116v-598q0 -26 -14.5 -42.5t-43.5 -16.5h-56q-10 0 -15 6t-5 15v1358q0 9 5 15t15 6h56z" />
    <glyph glyph-name="I" unicode="I" horiz-adv-x="634" 
d="M250 1349q0 23 16 37t42 14h56q10 0 15 -6t5 -15v-1343q0 -15 -10.5 -25.5t-25.5 -10.5h-62q-15 0 -25.5 10.5t-10.5 25.5v1313z" />
    <glyph glyph-name="J" unicode="J" 
d="M634 156q0 -40 -13.5 -71.5t-39 -54t-61 -34.5t-78.5 -12q-91 0 -141.5 46t-50.5 126v476q0 9 5 15t15 6h58q28 0 42 -17t14 -43v-437q0 -27 14.5 -43.5t43.5 -16.5q30 0 44 16.5t14 43.5v1193q0 23 16 37t42 14h56q10 0 15 -6t5 -15v-1223z" />
    <glyph glyph-name="K" unicode="K" horiz-adv-x="895" 
d="M326 1400q26 0 42 -14t16 -37v-579l47 5l72 575q3 21 19 35.5t41 14.5h50q14 0 20.5 -8t4.5 -17l-85 -648l90 -702q1 -9 -5.5 -17t-20.5 -8h-48q-25 0 -41 14.5t-19 35.5l-76 600l-49 6v-597q0 -26 -14.5 -42.5t-43.5 -16.5h-56q-10 0 -15 6t-5 15v1358q0 9 5 15t15 6h56
z" />
    <glyph glyph-name="L" unicode="L" horiz-adv-x="780" 
d="M270 0q-10 0 -15 6t-5 15v1358q0 9 5 15t15 6h56q26 0 42 -14t16 -37v-1237h123q23 0 37 -16t14 -42v-34q0 -10 -6 -15t-15 -5h-267z" />
    <glyph glyph-name="M" unicode="M" horiz-adv-x="1075" 
d="M616 1196q7 69 17 109.5t22 61.5t26 27t28 6h76q10 0 15 -6t5 -15v-1358q0 -9 -5 -15t-15 -6h-56q-29 0 -44 16.5t-14 42.5l30 980l-103 -989q-2 -21 -23 -35.5t-46 -14.5h-2q-25 0 -46 14.5t-23 35.5l-104 991l30 -982q1 -26 -14 -42.5t-44 -16.5h-56q-10 0 -15 6t-5 15
v1358q0 9 5 15t15 6h68q14 0 29.5 -5.5t29.5 -26.5t25.5 -61.5t18.5 -110.5l87 -846z" />
    <glyph glyph-name="N" unicode="N" horiz-adv-x="894" 
d="M614 1400q10 0 15 -6t5 -15v-1358q0 -9 -5 -15t-15 -6h-56q-26 0 -40 12.5t-17 33.5q0 12 -7.5 56t-19 106.5t-25.5 137.5t-28 150.5t-26.5 144.5t-20.5 119l10 -701q1 -26 -14 -42.5t-44 -16.5h-56q-10 0 -15 6t-5 15v1358q0 9 5 15t15 6h56q25 0 40.5 -13.5t17.5 -35.5
q2 -16 9 -65.5t18 -118t24 -149t26.5 -158t26 -144.5t22.5 -110l-10 743q0 23 16 37t42 14h56z" />
    <glyph glyph-name="O" unicode="O" 
d="M250 1244q0 80 50.5 126t141.5 46q43 0 78.5 -12t61 -34.5t39 -54t13.5 -71.5v-1088q0 -80 -50.5 -126t-141.5 -46q-44 0 -79 12t-60.5 34.5t-39 54t-13.5 71.5v1088zM500 1244q0 27 -14 43.5t-44 16.5q-29 0 -43.5 -16.5t-14.5 -43.5v-1088q0 -27 14 -43.5t44 -16.5
q29 0 43.5 16.5t14.5 43.5v1088z" />
    <glyph glyph-name="P" unicode="P" 
d="M442 1400q43 0 78.5 -12t61 -34.5t39 -54t13.5 -71.5v-531q0 -80 -50.5 -126t-141.5 -46h-58v-466q0 -26 -14.5 -42.5t-43.5 -16.5h-56q-10 0 -15 6t-5 15v1358q0 9 5 15t15 6h172zM384 1288v-651h58q30 0 44 17t14 43v531q0 26 -13.5 43t-44.5 17h-58z" />
    <glyph glyph-name="Q" unicode="Q" 
d="M406 -106q-29 0 -43.5 16.5t-14.5 42.5v48q-47 20 -72.5 59.5t-25.5 95.5v1088q0 80 50.5 126t141.5 46q43 0 78.5 -12t61 -34.5t39 -54t13.5 -71.5v-1088q0 -71 -40 -115t-112 -54v-72q0 -9 -5 -15t-15 -6h-56zM500 1244q0 27 -14 43.5t-44 16.5q-29 0 -43.5 -16.5
t-14.5 -43.5v-1082h40q26 0 41 -15t17 -38q18 15 18 47v1088z" />
    <glyph glyph-name="R" unicode="R" 
d="M444 1400q43 0 78 -12.5t60 -34.5t38.5 -54t13.5 -71v-474q0 -44 -17.5 -72t-48.5 -45q31 -17 48.5 -44.5t17.5 -70.5v-501q0 -9 -5 -15t-15 -6h-56q-29 0 -43.5 16.5t-14.5 42.5v463q0 27 -13.5 43.5t-44.5 16.5h-58v-523q0 -26 -14.5 -42.5t-43.5 -16.5h-56
q-10 0 -15 6t-5 15v1358q0 9 5 15t15 6h174zM384 1288v-594h58q30 0 44 17t14 43v474q0 26 -14.5 43t-43.5 17h-58z" />
    <glyph glyph-name="S" unicode="S" 
d="M558 917q-29 0 -43.5 16.5t-14.5 42.5v268q0 27 -14.5 43.5t-43.5 16.5q-30 0 -44 -16.5t-14 -43.5q0 -91 10.5 -164t28.5 -135t40.5 -117t45.5 -109.5t45.5 -111.5t40.5 -124t28.5 -147t10.5 -180q0 -40 -13.5 -71.5t-39 -54t-61 -34.5t-78.5 -12q-91 0 -141.5 46
t-50.5 126v306q0 9 5 15t15 6h56q29 0 43.5 -16.5t14.5 -42.5v-268q0 -27 14.5 -43.5t43.5 -16.5q30 0 44 16.5t14 43.5q0 128 -18.5 224t-46.5 174.5t-60 149t-60 148.5t-46.5 172t-18.5 220q0 40 13.5 71.5t39 54t60.5 34.5t79 12q91 0 141.5 -46t50.5 -126v-306
q0 -9 -5 -15t-15 -6h-56z" />
    <glyph glyph-name="T" unicode="T" horiz-adv-x="804" 
d="M561 1400q9 0 15 -5t6 -15v-34q0 -26 -14 -42t-37 -16h-62v-1252q0 -15 -10.5 -25.5t-25.5 -10.5h-62q-15 0 -25.5 10.5t-10.5 25.5v1252h-62q-23 0 -37 16t-14 42v34q0 10 6 15t15 5h318z" />
    <glyph glyph-name="U" unicode="U" 
d="M634 156q0 -80 -50.5 -126t-141.5 -46q-44 0 -79 12t-60.5 34.5t-39 54t-13.5 71.5v1223q0 9 5 15t15 6h56q26 0 42 -14t16 -37v-1193q0 -27 14 -43.5t44 -16.5q29 0 43.5 16.5t14.5 43.5v1193q0 23 16 37t42 14h56q10 0 15 -6t5 -15v-1223z" />
    <glyph glyph-name="V" unicode="V" horiz-adv-x="845" 
d="M366 0q-9 0 -14 6t-6 14l-120 1355q-1 9 5.5 17t20.5 8h49q25 0 41.5 -14.5t18.5 -35.5l61 -1051l62 1051q2 21 18.5 35.5t41.5 14.5h49q14 0 20.5 -8t5.5 -17l-120 -1355q-1 -8 -6 -14t-14 -6h-113z" />
    <glyph glyph-name="W" unicode="W" horiz-adv-x="1150" 
d="M671 0q-9 0 -14 6t-6 14l-76 1070l-76 -1070q-1 -8 -6 -14t-14 -6h-113q-9 0 -14 6t-6 14l-120 1355q-1 9 5.5 17t20.5 8h49q25 0 41.5 -14.5t18.5 -35.5l59 -1017l85 1007q2 27 23 38.5t46 11.5h2q25 0 46 -12t23 -38l84 -1007l60 1017q2 21 18.5 35.5t41.5 14.5h49
q14 0 20.5 -8t5.5 -17l-120 -1355q-1 -8 -6 -14t-14 -6h-113z" />
    <glyph glyph-name="X" unicode="X" horiz-adv-x="817" 
d="M509 700l78 -679q1 -9 -4.5 -15t-15.5 -6h-56q-29 0 -42.5 16.5t-15.5 42.5l-45 494l-44 -494q-2 -26 -15.5 -42.5t-42.5 -16.5h-56q-10 0 -15.5 6t-4.5 15l78 679l-78 679q-1 9 4.5 15t15.5 6h56q29 0 42.5 -16.5t15.5 -42.5l44 -494l45 494q2 26 15.5 42.5t42.5 16.5
h56q10 0 15 -6t5 -15z" />
    <glyph glyph-name="Y" unicode="Y" horiz-adv-x="804" 
d="M469 36q0 -15 -10.5 -25.5t-25.5 -10.5h-62q-15 0 -25.5 10.5t-10.5 25.5v559l-111 784q-2 9 4 15t16 6h56q29 0 42.5 -16.5t15.5 -42.5l44 -494l45 494q2 26 15.5 42.5t42.5 16.5h56q10 0 16 -6t4 -15l-112 -784v-559z" />
    <glyph glyph-name="Z" unicode="Z" horiz-adv-x="802" 
d="M474 1400q37 0 49.5 -14.5t9.5 -37.5l-163 -1236h127q23 0 37 -16t14 -42v-34q0 -10 -6 -15t-15 -5h-277q-10 0 -15.5 6t-4.5 15l158 1267h-95q-23 0 -37 16t-14 42v34q0 10 6 15.5t15 4.5h211z" />
    <glyph glyph-name="bracketleft" unicode="[" horiz-adv-x="700" 
d="M479 1509q9 0 15 -5t6 -15v-31q0 -26 -14 -42t-37 -16h-65v-1400h65q23 0 37 -16t14 -42v-31q0 -10 -6 -15t-15 -5h-209q-10 0 -15 6t-5 15v1576q0 9 5 15t15 6h209z" />
    <glyph glyph-name="backslash" unicode="\" horiz-adv-x="778" 
d="M232 1379q-2 9 4 15t16 6h64q22 0 37 -15.5t18 -39.5l177 -1325q2 -9 -4 -15t-16 -6h-64q-22 0 -37 15.5t-18 39.5z" />
    <glyph glyph-name="bracketright" unicode="]" horiz-adv-x="700" 
d="M430 1509q10 0 15 -6t5 -15v-1576q0 -9 -5 -15t-15 -6h-209q-9 0 -15 5t-6 15v31q0 26 14 42t37 16h65v1400h-65q-23 0 -37 16t-14 42v31q0 10 6 15t15 5h209z" />
    <glyph glyph-name="asciicircum" unicode="^" horiz-adv-x="762" 
d="M533 496q3 -10 -4 -17t-19 -7h-28q-29 0 -45.5 16.5t-21.5 41.5l-35 167l-34 -167q-5 -25 -21 -41.5t-46 -16.5h-28q-12 0 -19 7t-4 17l80 281q3 11 11 17.5t19 6.5h85q12 0 19.5 -6.5t10.5 -17.5z" />
    <glyph glyph-name="underscore" unicode="_" horiz-adv-x="829" 
d="M244 -112q-9 0 -15 5t-6 15v34q0 26 14 42t37 16h313q9 0 15 -5t6 -15v-34q0 -26 -14 -42t-37 -16h-313z" />
    <glyph glyph-name="grave" unicode="`" horiz-adv-x="664" 
d="M412 1267q2 -9 -4 -15t-16 -6h-14q-26 0 -37.5 15.5t-20.5 35.5l-72 177q-9 20 1.5 35.5t36.5 15.5h50q10 0 17 -6t9 -15z" />
    <glyph glyph-name="a" unicode="a" horiz-adv-x="821" 
d="M467 1180q9 0 14 -6t6 -14l110 -1135q1 -9 -5.5 -17t-20.5 -8h-49q-25 0 -41.5 14.5t-18.5 35.5l-10 161h-83l-10 -161q-2 -21 -18.5 -35.5t-41.5 -14.5h-49q-14 0 -20.5 8t-5.5 17l110 1135q1 8 6 14t14 6h113zM376 323h69l-35 569z" />
    <glyph glyph-name="b" unicode="b" 
d="M442 1180q43 0 78.5 -12t61 -34.5t39 -54t13.5 -71.5v-289q0 -44 -17.5 -72t-48.5 -45q31 -17 48.5 -44.5t17.5 -70.5v-315q0 -80 -52 -126t-140 -46h-172q-10 0 -15 6t-5 15v1138q0 9 5 15t15 6h172zM384 547v-435h58q31 0 44.5 17t13.5 43v315q0 26 -14 43t-44 17h-58z
M442 659q30 0 44 17t14 43v289q0 27 -14 43.5t-44 16.5h-58v-409h58z" />
    <glyph glyph-name="c" unicode="c" 
d="M500 463q0 26 14 43t42 17h58q10 0 15 -6t5 -15v-346q0 -80 -50.5 -126t-141.5 -46q-44 0 -79 12t-60.5 34.5t-39 54t-13.5 71.5v868q0 80 50.5 126t141.5 46q43 0 78.5 -12t61 -34.5t39 -54t13.5 -71.5v-359q0 -9 -5 -15t-15 -6h-56q-29 0 -43.5 16.5t-14.5 42.5v321
q0 27 -14 43.5t-44 16.5q-29 0 -43.5 -16.5t-14.5 -43.5v-868q0 -27 14 -43.5t44 -16.5q29 0 43.5 16.5t14.5 43.5v307z" />
    <glyph glyph-name="d" unicode="d" 
d="M444 1180q43 0 78 -12t60 -34.5t38.5 -54.5t13.5 -71v-836q0 -80 -50.5 -126t-141.5 -46h-172q-10 0 -15 6t-5 15v1138q0 9 5 15t15 6h174zM442 112q30 0 44 17t14 43v836q0 26 -13.5 43t-44.5 17h-58v-956h58z" />
    <glyph glyph-name="e" unicode="e" horiz-adv-x="780" 
d="M537 1180q9 0 15 -5t6 -15v-34q0 -26 -14 -42t-37 -16h-123v-429h133q9 0 15 -5t6 -15v-34q0 -26 -14 -42t-37 -16h-103v-415h123q23 0 37 -16t14 -42v-34q0 -10 -6 -15t-15 -5h-267q-10 0 -15 6t-5 15v1138q0 9 5 15t15 6h267z" />
    <glyph glyph-name="f" unicode="f" horiz-adv-x="780" 
d="M537 1180q9 0 15 -5t6 -15v-34q0 -26 -14 -42t-37 -16h-123v-429h133q9 0 15 -5t6 -15v-34q0 -26 -14 -42t-37 -16h-103v-468q0 -26 -14.5 -42.5t-43.5 -16.5h-56q-10 0 -15 6t-5 15v1138q0 9 5 15t15 6h267z" />
    <glyph glyph-name="g" unicode="g" 
d="M614 543q10 0 15 -6t5 -15v-366q0 -80 -50.5 -126t-141.5 -46q-44 0 -79 12t-60.5 34.5t-39 54t-13.5 71.5v868q0 80 50.5 126t141.5 46q43 0 78.5 -12t61 -34.5t39 -54t13.5 -71.5v-379q0 -9 -5 -15t-15 -6h-56q-29 0 -43.5 16.5t-14.5 42.5v341q0 27 -14 43.5t-44 16.5
q-29 0 -43.5 -16.5t-14.5 -43.5v-868q0 -27 14 -43.5t44 -16.5q29 0 43.5 16.5t14.5 43.5v275q-60 0 -60 58v34q0 10 6 15t15 5h153z" />
    <glyph glyph-name="h" unicode="h" 
d="M326 1180q26 0 42 -14t16 -37v-480h116v480q0 23 16 37t42 14h56q10 0 15 -6t5 -15v-1138q0 -9 -5 -15t-15 -6h-56q-29 0 -43.5 16.5t-14.5 42.5v478h-116v-478q0 -26 -14.5 -42.5t-43.5 -16.5h-56q-10 0 -15 6t-5 15v1138q0 9 5 15t15 6h56z" />
    <glyph glyph-name="i" unicode="i" horiz-adv-x="634" 
d="M250 1129q0 23 16 37t42 14h56q10 0 15 -6t5 -15v-1123q0 -15 -10.5 -25.5t-25.5 -10.5h-62q-15 0 -25.5 10.5t-10.5 25.5v1093z" />
    <glyph glyph-name="j" unicode="j" 
d="M634 156q0 -40 -13.5 -71.5t-39 -54t-61 -34.5t-78.5 -12q-91 0 -141.5 46t-50.5 126v366q0 9 5 15t15 6h58q28 0 42 -17t14 -43v-327q0 -27 14.5 -43.5t43.5 -16.5q30 0 44 16.5t14 43.5v973q0 23 16 37t42 14h56q10 0 15 -6t5 -15v-1003z" />
    <glyph glyph-name="k" unicode="k" horiz-adv-x="895" 
d="M326 1180q26 0 42 -14t16 -37v-469l47 5l72 465q3 21 19 35.5t41 14.5h50q14 0 20.5 -8t4.5 -17l-85 -538l90 -592q1 -9 -5.5 -17t-20.5 -8h-48q-25 0 -41 14.5t-19 35.5l-76 490l-49 6v-487q0 -26 -14.5 -42.5t-43.5 -16.5h-56q-10 0 -15 6t-5 15v1138q0 9 5 15t15 6h56
z" />
    <glyph glyph-name="l" unicode="l" horiz-adv-x="780" 
d="M270 0q-10 0 -15 6t-5 15v1138q0 9 5 15t15 6h56q26 0 42 -14t16 -37v-1017h123q23 0 37 -16t14 -42v-34q0 -10 -6 -15t-15 -5h-267z" />
    <glyph glyph-name="m" unicode="m" horiz-adv-x="1036" 
d="M596 976q7 69 17 109.5t22 61.5t26 27t28 6h76q10 0 15 -6t5 -15v-1138q0 -9 -5 -15t-15 -6h-56q-29 0 -44 16.5t-14 42.5l30 760l-93 -769q-2 -21 -23 -35.5t-46 -14.5h-2q-25 0 -46 14.5t-23 35.5l-94 771l30 -762q1 -26 -14 -42.5t-44 -16.5h-56q-10 0 -15 6t-5 15
v1138q0 9 5 15t15 6h68q14 0 28 -5.5t26 -26.5t22 -61.5t17 -110.5l87 -626z" />
    <glyph glyph-name="n" unicode="n" 
d="M614 1180q10 0 15 -6t5 -15v-1138q0 -9 -5 -15t-15 -6h-56q-26 0 -40 12.5t-17 33.5q0 12 -7.5 48t-19 86.5t-25.5 111t-28 123.5t-26.5 124t-20.5 111l10 -591q1 -26 -14 -42.5t-44 -16.5h-56q-10 0 -15 6t-5 15v1138q0 9 5 15t15 6h56q25 0 40.5 -13.5t17.5 -35.5
q2 -16 9 -57.5t18 -97.5t24 -122t26.5 -131.5t26 -124.5t22.5 -102l-10 633q0 23 16 37t42 14h56z" />
    <glyph glyph-name="o" unicode="o" 
d="M250 1024q0 80 50.5 126t141.5 46q43 0 78.5 -12t61 -34.5t39 -54t13.5 -71.5v-868q0 -80 -50.5 -126t-141.5 -46q-44 0 -79 12t-60.5 34.5t-39 54t-13.5 71.5v868zM500 1024q0 27 -14 43.5t-44 16.5q-29 0 -43.5 -16.5t-14.5 -43.5v-868q0 -27 14 -43.5t44 -16.5
q29 0 43.5 16.5t14.5 43.5v868z" />
    <glyph glyph-name="p" unicode="p" 
d="M442 1180q43 0 78.5 -12t61 -34.5t39 -54t13.5 -71.5v-421q0 -80 -50.5 -126t-141.5 -46h-58v-356q0 -26 -14.5 -42.5t-43.5 -16.5h-56q-10 0 -15 6t-5 15v1138q0 9 5 15t15 6h172zM384 1068v-541h58q30 0 44 17t14 43v421q0 26 -13.5 43t-44.5 17h-58z" />
    <glyph glyph-name="q" unicode="q" 
d="M406 -106q-29 0 -43.5 16.5t-14.5 42.5v48q-47 20 -72.5 59.5t-25.5 95.5v868q0 80 50.5 126t141.5 46q43 0 78.5 -12t61 -34.5t39 -54t13.5 -71.5v-868q0 -71 -40 -115t-112 -54v-72q0 -9 -5 -15t-15 -6h-56zM500 1024q0 27 -14 43.5t-44 16.5q-29 0 -43.5 -16.5
t-14.5 -43.5v-862h40q26 0 41 -15t17 -38q18 15 18 47v868z" />
    <glyph glyph-name="r" unicode="r" 
d="M444 1180q43 0 78 -12.5t60 -34.5t38.5 -54t13.5 -71v-364q0 -44 -17.5 -72t-48.5 -45q31 -17 48.5 -44.5t17.5 -70.5v-391q0 -9 -5 -15t-15 -6h-56q-29 0 -43.5 16.5t-14.5 42.5v353q0 27 -13.5 43.5t-44.5 16.5h-58v-413q0 -26 -14.5 -42.5t-43.5 -16.5h-56
q-10 0 -15 6t-5 15v1138q0 9 5 15t15 6h174zM384 1068v-484h58q30 0 44 17t14 43v364q0 26 -14.5 43t-43.5 17h-58z" />
    <glyph glyph-name="s" unicode="s" 
d="M558 767q-29 0 -43.5 16.5t-14.5 42.5v198q0 27 -14.5 43.5t-43.5 16.5q-30 0 -44 -16.5t-14 -43.5q0 -81 10.5 -140t28.5 -104t40.5 -81t45.5 -72t45.5 -76.5t40.5 -95t28.5 -127t10.5 -172.5q0 -40 -13.5 -71.5t-39 -54t-61 -34.5t-78.5 -12q-91 0 -141.5 46t-50.5 126
v246q0 9 5 15t15 6h56q29 0 43.5 -16.5t14.5 -42.5v-208q0 -27 14.5 -43.5t43.5 -16.5q30 0 44 16.5t14 43.5q0 96 -10.5 164t-28.5 117.5t-40.5 86t-45.5 70t-45.5 69.5t-40.5 85t-28.5 115t-10.5 161q0 40 13.5 71.5t39 54t60.5 34.5t79 12q91 0 141.5 -46t50.5 -126v-236
q0 -9 -5 -15t-15 -6h-56z" />
    <glyph glyph-name="t" unicode="t" horiz-adv-x="804" 
d="M561 1180q9 0 15 -5t6 -15v-34q0 -26 -14 -42t-37 -16h-62v-1032q0 -15 -10.5 -25.5t-25.5 -10.5h-62q-15 0 -25.5 10.5t-10.5 25.5v1032h-62q-23 0 -37 16t-14 42v34q0 10 6 15t15 5h318z" />
    <glyph glyph-name="u" unicode="u" 
d="M634 156q0 -80 -50.5 -126t-141.5 -46q-44 0 -79 12t-60.5 34.5t-39 54t-13.5 71.5v1003q0 9 5 15t15 6h56q26 0 42 -14t16 -37v-973q0 -27 14 -43.5t44 -16.5q29 0 43.5 16.5t14.5 43.5v973q0 23 16 37t42 14h56q10 0 15 -6t5 -15v-1003z" />
    <glyph glyph-name="v" unicode="v" horiz-adv-x="845" 
d="M366 0q-9 0 -14 6t-6 14l-110 1135q-1 9 5.5 17t20.5 8h49q25 0 41.5 -14.5t18.5 -35.5l51 -844l52 844q2 21 18.5 35.5t41.5 14.5h49q14 0 20.5 -8t5.5 -17l-110 -1135q-1 -8 -6 -14t-14 -6h-113z" />
    <glyph glyph-name="w" unicode="w" horiz-adv-x="1095" 
d="M627 0q-9 0 -14 6t-6 14l-60 729l-59 -729q-1 -8 -6 -14t-14 -6h-113q-9 0 -14 6t-6 14l-110 1135q-1 9 5.5 17t20.5 8h49q25 0 41.5 -14.5t18.5 -35.5l53 -864l60 864q2 20 17.5 34t38.5 16h33q25 0 41.5 -14.5t18.5 -35.5l60 -864l53 864q2 21 18.5 35.5t41.5 14.5h49
q14 0 20.5 -8t5.5 -17l-110 -1135q-1 -8 -6 -14t-14 -6h-113z" />
    <glyph glyph-name="x" unicode="x" horiz-adv-x="817" 
d="M509 590l67 -569q1 -9 -4.5 -15t-15.5 -6h-56q-29 0 -42.5 16.5t-15.5 42.5l-34 394l-34 -394q-2 -26 -15.5 -42.5t-42.5 -16.5h-56q-10 0 -15.5 6t-4.5 15l68 569l-69 569q-1 9 4.5 15t15.5 6h56q29 0 42.5 -16.5t15.5 -42.5l35 -394l36 394q2 26 15.5 42.5t42.5 16.5
h56q10 0 15 -6t5 -15z" />
    <glyph glyph-name="y" unicode="y" horiz-adv-x="804" 
d="M469 36q0 -15 -10.5 -25.5t-25.5 -10.5h-62q-15 0 -25.5 10.5t-10.5 25.5v439l-102 684q-2 9 4 15t16 6h56q29 0 42.5 -16.5t15.5 -42.5l35 -424l36 424q2 26 15.5 42.5t42.5 16.5h56q10 0 16 -6t4 -15l-103 -684v-439z" />
    <glyph glyph-name="z" unicode="z" horiz-adv-x="802" 
d="M474 1180q37 0 49.5 -14.5t9.5 -37.5l-163 -1016h127q23 0 37 -16t14 -42v-34q0 -10 -6 -15t-15 -5h-277q-10 0 -15.5 6t-4.5 15l158 1047h-95q-23 0 -37 16t-14 42v34q0 10 6 15.5t15 4.5h211z" />
    <glyph glyph-name="braceleft" unicode="{" horiz-adv-x="804" 
d="M220 725q0 10 6 15t15 5q17 0 33.5 12t16.5 47q0 27 -1.5 48t-3 45t-2.5 57.5t-1 86.5q0 107 13 193.5t46.5 147.5t92 94t148.5 33q9 0 15 -5t6 -15v-15q0 -25 -8 -35t-21 -15t-29.5 -11t-32.5 -22q-27 -27 -45 -58.5t-29.5 -75t-16 -102.5t-4.5 -142q0 -18 0.5 -43.5
t1 -53t1 -53.5t0.5 -45q0 -35 -11 -57.5t-27 -36t-32.5 -18.5t-26.5 -6q11 -1 27.5 -7t32 -19t26.5 -35.5t11 -56.5q0 -19 -0.5 -45t-1 -53.5t-1 -53t-0.5 -43.5q0 -83 4.5 -142t16 -102.5t29.5 -75t45 -58.5q16 -17 32.5 -22.5t29.5 -11t21 -15t8 -34.5v-15q0 -10 -6 -15
t-15 -5q-90 0 -148.5 33t-92 94t-46.5 147.5t-13 193.5q0 53 1 86.5t2.5 57.5t3 45t1.5 48q0 32 -14.5 45.5t-35.5 13.5q-9 0 -15 5t-6 15v50z" />
    <glyph glyph-name="bar" unicode="|" horiz-adv-x="642" 
d="M384 -73q0 -15 -10.5 -25.5t-25.5 -10.5h-62q-15 0 -25.5 10.5t-10.5 25.5v1546q0 15 10.5 25.5t25.5 10.5h62q15 0 25.5 -10.5t10.5 -25.5v-1546v0z" />
    <glyph glyph-name="braceright" unicode="}" horiz-adv-x="798" 
d="M584 675q0 -10 -6 -15t-15 -5q-21 0 -35.5 -13.5t-14.5 -45.5q0 -27 1 -48t2.5 -45t3 -57.5t1.5 -86.5q0 -107 -13 -193.5t-46.5 -147.5t-92 -94t-148.5 -33q-9 0 -15 5t-6 15v15q0 25 8 34.5t21 15t29 11t33 22.5q27 27 45 58.5t29.5 75t16 102.5t4.5 142
q0 18 -0.5 43.5t-1 53t-1 53.5t-0.5 45q0 34 11 56.5t26.5 35.5t32 19t27.5 7q-11 1 -27 6t-32 18.5t-27 36t-11 57.5q0 19 0.5 45t1 53.5t1 53t0.5 43.5q0 83 -4.5 142t-16 102.5t-29.5 75t-45 58.5q-17 16 -33 22t-29 11t-21 15t-8 35v15q0 10 6 15t15 5q90 0 148.5 -33
t92 -94t46.5 -147.5t13 -193.5q0 -53 -1.5 -86.5t-3 -57.5t-2.5 -45t-1 -48q0 -35 16.5 -47t33.5 -12q9 0 15 -5t6 -15v-50z" />
    <glyph glyph-name="asciitilde" unicode="~" horiz-adv-x="829" 
d="M337 595q-17 0 -27 -3t-18.5 -6.5t-17.5 -6.5t-23 -3q-12 0 -20 5.5t-8 16.5v25q0 24 11.5 40t30 26t41.5 14t46 4q24 0 42 -5.5t33.5 -12t31 -12t35.5 -5.5q16 0 26.5 3t19 6.5t17.5 6.5t23 3q12 0 20 -5.5t8 -16.5v-25q0 -24 -11.5 -40t-30 -26t-41.5 -14t-46 -4
q-21 0 -38.5 5.5t-34 12t-33 12t-36.5 5.5z" />
    <glyph glyph-name="exclamdown" unicode="&#xa1;" horiz-adv-x="619" 
d="M309 1160.01q40 0 62 19.499t22 54.4971t-22 54.9961q-22 19.999 -62 19.999q-39 0 -61 -19.999q-22 -19.998 -22 -54.9961t22 -54.4971t61 -19.499zM259 -87.916q0 -8.99902 5 -14.999q5 -5.99902 15 -5.99902h56q26 0 42.5 13.999t15.5 36.9971l-32 1131.93
q-1 22.998 -16.5 36.9971t-41.5 13.999h-24q-10 0 -15 -5.99902q-5 -6 -5 -14.999v-1191.93z" />
    <glyph glyph-name="cent" unicode="&#xa2;" 
d="M500 443q0 26 14 43t42 17h58q10 0 15 -6t5 -15v-326q0 -67 -35.5 -110t-100.5 -56v-95q0 -9 -5 -15t-15 -6h-34q-26 0 -42 14t-16 37v65q-63 14 -99.5 57t-36.5 109v868q0 66 35.5 109t100.5 57v95q0 9 5 15t15 6h34q26 0 42 -14t16 -37v-65q63 -14 99.5 -57t36.5 -109
v-339q0 -9 -5 -15t-15 -6h-56q-29 0 -43.5 16.5t-14.5 42.5v301q0 27 -14 43.5t-44 16.5q-29 0 -43.5 -16.5t-14.5 -43.5v-868q0 -27 14 -43.5t44 -16.5q29 0 43.5 16.5t14.5 43.5v287z" />
    <glyph glyph-name="sterling" unicode="&#xa3;" horiz-adv-x="874" 
d="M583 112q23 0 37 -16t14 -42v-34q0 -10 -6 -15t-15 -5h-400q-9 0 -15 5t-6 15v46q0 23 9 39t20 30t20 29t9 38v439h-7q-23 0 -37 16t-14 42v34q0 10 6 15t15 5h37v491q0 80 50.5 126t141.5 46q43 0 78.5 -12t61 -34.5t39 -54t13.5 -71.5v-279q0 -9 -5 -15t-15 -6h-56
q-29 0 -43.5 16.5t-14.5 42.5v241q0 27 -14 43.5t-44 16.5q-29 0 -43.5 -16.5t-14.5 -43.5v-491h113q9 0 15 -5t6 -15v-34q0 -26 -14 -42t-37 -16h-83v-426q0 -23 -7 -41.5t-15 -32.5q-10 -16 -22 -29h243z" />
    <glyph glyph-name="currency" unicode="&#xa4;" 
d="M250 1244q0 20 3 38t10 34l-47 147q-2 9 4 15t16 6h34q22 0 34.5 -16t20.5 -39l11 -35q46 22 106 22q62 0 109 -25l12 38q8 23 20.5 39t34.5 16h34q10 0 16 -6t4 -15l-50 -153q12 -30 12 -66v-605q0 -38 -12 -68l50 -152q2 -9 -4 -15t-16 -6h-34q-22 0 -34.5 16t-20.5 39
l-12 38q-45 -24 -109 -24q-61 0 -105 23l-12 -37q-8 -23 -20.5 -39t-34.5 -16h-34q-10 0 -16 6t-4 15l47 148q-13 30 -13 72v605zM500 1244q0 27 -14 43.5t-44 16.5q-29 0 -43.5 -16.5t-14.5 -43.5v-605q0 -27 14 -43.5t44 -16.5q29 0 43.5 16.5t14.5 43.5v605z" />
    <glyph glyph-name="yen" unicode="&#xa5;" horiz-adv-x="804" 
d="M335 526v69l-111 784q-2 9 4 15t16 6h56q29 0 42.5 -16.5t15.5 -42.5l44 -494l45 494q2 26 15.5 42.5t42.5 16.5h56q10 0 16 -6t4 -15l-112 -784v-69h94q9 0 15 -5t6 -15v-34q0 -26 -14 -42t-37 -16h-64v-58h79q9 0 15 -5t6 -15v-34q0 -26 -14 -42t-37 -16h-49v-208
q0 -15 -10.5 -25.5t-25.5 -10.5h-62q-15 0 -25.5 10.5t-10.5 25.5v208h-41q-23 0 -37 16t-14 42v34q0 10 6 15t15 5h71v58h-56q-23 0 -37 16t-14 42v34q0 10 6 15t15 5h86z" />
    <glyph glyph-name="brokenbar" unicode="&#xa6;" horiz-adv-x="642" 
d="M250 608q0 23 16 37t42 14h56q10 0 15 -6t5 -15v-711q0 -15 -10.5 -25.5t-25.5 -10.5h-62q-15 0 -25.5 10.5t-10.5 25.5v681zM384 792q0 -23 -16 -37t-42 -14h-56q-10 0 -15 6t-5 15v711q0 15 10.5 25.5t25.5 10.5h62q15 0 25.5 -10.5t10.5 -25.5v-681z" />
    <glyph glyph-name="section" unicode="&#xa7;" 
d="M250 764q0 66 36.5 109t99.5 57q-25 30 -49 60t-43.5 66.5t-31.5 82t-12 105.5q0 40 13.5 71.5t39 54t60.5 34.5t79 12q91 0 141.5 -46t50.5 -126v-116q0 -9 -5 -15t-15 -6h-56q-29 0 -43.5 16.5t-14.5 42.5v78q0 27 -14.5 43.5t-43.5 16.5q-30 0 -44 -16.5t-14 -43.5
q0 -58 18.5 -101.5t46.5 -81.5t60 -76t60 -86t46.5 -111.5t18.5 -151.5q0 -58 -28 -98t-77 -59q21 -28 40 -59.5t33.5 -70.5t23 -86.5t8.5 -106.5q0 -40 -13.5 -71.5t-39 -54t-61 -34.5t-78.5 -12q-91 0 -141.5 46t-50.5 126v146q0 9 5 15t15 6h56q29 0 43.5 -16.5
t14.5 -42.5v-108q0 -27 14.5 -43.5t43.5 -16.5q30 0 44 16.5t14 43.5q0 78 -18.5 132.5t-46.5 97t-60 78.5t-60 77t-46.5 94t-18.5 129zM384 764q0 -66 23 -113.5t56 -89.5q19 9 28 31t9 44q0 69 -14 118.5t-37 88.5q-2 0 -3.5 0.5t-3.5 0.5q-15 0 -26 -7.5t-18 -19
t-10.5 -26t-3.5 -27.5z" />
    <glyph glyph-name="dieresis" unicode="&#xa8;" horiz-adv-x="834" 
d="M332 1358q31 0 48 -15.5t17 -42.5t-17 -43t-48 -16t-48 16t-17 43t17 42.5t48 15.5zM492 1358q32 0 49 -15.5t17 -42.5t-17 -43t-49 -16q-30 0 -47 16t-17 43t17 42.5t47 15.5z" />
    <glyph glyph-name="copyright" unicode="&#xa9;" horiz-adv-x="1386" 
d="M692 -239q-100 0 -181.5 28t-139.5 80t-89.5 125.5t-31.5 164.5v859q0 92 30.5 165.5t88 125.5t140 79.5t186.5 27.5t186 -28t139 -80t87.5 -125.5t30.5 -164.5v-859q0 -91 -31.5 -164.5t-89.5 -125.5t-139.5 -80t-181.5 -28h-4zM384 191q0 -72 18.5 -130.5t57 -100.5
t96.5 -64.5t137 -22.5h2q79 0 137 22.5t96.5 64.5t57 100.5t18.5 130.5v795q0 70 -19 127.5t-56 99t-92 65.5t-127 26h-33q-72 -3 -127 -26.5t-91.5 -65t-55.5 -99t-19 -127.5v-795zM752 479q0 26 14 43t42 17h58q10 0 15 -6t5 -15v-362q0 -80 -50.5 -126t-141.5 -46
q-44 0 -79 12t-60.5 34.5t-39 54t-13.5 71.5v864q0 80 50.5 126t141.5 46q43 0 78.5 -12t61 -34.5t39 -54t13.5 -71.5v-375q0 -9 -5 -15t-15 -6h-56q-29 0 -43.5 16.5t-14.5 42.5v337q0 27 -14 43.5t-44 16.5q-29 0 -43.5 -16.5t-14.5 -43.5v-864q0 -27 14 -43.5t44 -16.5
q29 0 43.5 16.5t14.5 43.5v323z" />
    <glyph glyph-name="ordfeminine" unicode="&#xaa;" horiz-adv-x="821" 
d="M463 1401q9 0 13.5 -6t6.5 -14l106 -873q2 -9 -4.5 -17t-20.5 -8h-48q-24 0 -40 14.5t-18 34.5l-10 131h-79l-10 -131q-2 -20 -18.5 -34.5t-39.5 -14.5h-48q-14 0 -20.5 8t-4.5 17l106 873q2 8 6.5 14t13.5 6h109zM378 771h61l-30 386z" />
    <glyph glyph-name="guillemotleft" unicode="&#xab;" horiz-adv-x="866" 
d="M304 637l134 -265q4 -10 -3.5 -17t-19.5 -7h-48q-29 0 -44 17t-23 41l-92 231l92 231q8 24 23 41t44 17h48q12 0 19.5 -7t3.5 -17zM495 637l134 -265q4 -10 -3.5 -17t-19.5 -7h-48q-29 0 -44 17t-23 41l-92 231l92 231q8 24 23 41t44 17h48q12 0 19.5 -7t3.5 -17z" />
    <glyph glyph-name="logicalnot" unicode="&#xac;" horiz-adv-x="992" 
d="M748 697q10 0 15 -6t5 -15v-178q0 -9 -5 -15t-15 -6h-56q-26 0 -42 14t-16 37v57h-333q-23 0 -37 16t-14 42v34q0 10 6 15t15 5h477z" />
    <glyph glyph-name="registered" unicode="&#xae;" horiz-adv-x="1386" 
d="M692 -239q-100 0 -181.5 28t-139.5 80t-89.5 125.5t-31.5 164.5v859q0 92 30.5 165.5t88 125.5t140 79.5t186.5 27.5t186 -28t139 -80t87.5 -125.5t30.5 -164.5v-859q0 -91 -31.5 -164.5t-89.5 -125.5t-139.5 -80t-181.5 -28h-4zM384 191q0 -72 18.5 -130.5t57 -100.5
t96.5 -64.5t137 -22.5h2q79 0 137 22.5t96.5 64.5t57 100.5t18.5 130.5v795q0 70 -19 127.5t-56 99t-92 65.5t-127 26h-33q-72 -3 -127 -26.5t-91.5 -65t-55.5 -99t-19 -127.5v-795zM696 1180q43 0 78 -12.5t60 -34.5t38.5 -54t13.5 -71v-364q0 -44 -17.5 -72t-48.5 -45
q31 -17 48.5 -44.5t17.5 -70.5v-391q0 -9 -5 -15t-15 -6h-56q-29 0 -43.5 16.5t-14.5 42.5v353q0 27 -13.5 43.5t-44.5 16.5h-58v-413q0 -26 -14.5 -42.5t-43.5 -16.5h-56q-10 0 -15 6t-5 15v1138q0 9 5 15t15 6h174zM636 1068v-484h58q30 0 44 17t14 43v364q0 26 -14.5 43
t-43.5 17h-58z" />
    <glyph glyph-name="macron" unicode="&#xaf;" horiz-adv-x="834" 
d="M530 1356q9 0 15 -5t6 -15v-34q0 -26 -14 -42t-37 -16h-176q-23 0 -37 16t-14 42v34q0 10 6 15t15 5h236z" />
    <glyph glyph-name="degree" unicode="&#xb0;" horiz-adv-x="868" 
d="M435 1416q91 0 141.5 -46t50.5 -126t-50.5 -126t-141.5 -46t-141.5 46t-50.5 126t50.5 126t141.5 46zM435 1169q38 0 55.5 21.5t17.5 53.5t-17.5 53.5t-55.5 21.5q-40 -2 -56.5 -23t-16.5 -52t16.5 -52t56.5 -23z" />
    <glyph glyph-name="plusminus" unicode="&#xb1;" horiz-adv-x="829" 
d="M359 666h-115q-9 0 -15 5t-6 15v34q0 26 14 42t37 16h85v115q0 9 5 15t15 6h34q26 0 42 -14t16 -37v-85h116q9 0 15 -5t6 -15v-34q0 -26 -14 -42t-37 -16h-86v-116q0 -9 -5 -15t-15 -6h-34q-26 0 -42 14t-16 37v86zM244 358q-9 0 -15 5t-6 15v34q0 26 14 42t37 16h313
q9 0 15 -5t6 -15v-34q0 -26 -14 -42t-37 -16h-313z" />
    <glyph glyph-name="twosuperior" unicode="&#xb2;" horiz-adv-x="845" 
d="M299 483q-11 0 -21.5 5t-18 14t-10.5 20.5t2 24.5q4 14 21.5 56.5t40.5 100t48.5 122.5t47 124.5t35.5 105.5t14 66v142q0 19 -10.5 29t-28.5 10q-39 0 -39 -39v-134q0 -35 -15.5 -49t-39.5 -14h-58q-17 0 -17 17v190q0 33 13 59t36.5 44.5t54.5 28.5t67 10q37 0 69 -10
t55 -28.5t36.5 -44.5t13.5 -59v-126q0 -27 -11 -71.5t-28.5 -97t-39 -109.5t-42 -108t-38 -92.5t-26.5 -63.5h141q23 0 37 -16t14 -42v-45q0 -10 -6 -15t-15 -5h-282z" />
    <glyph glyph-name="threesuperior" unicode="&#xb3;" horiz-adv-x="843" 
d="M593 1067q0 -44 -18 -72t-49 -45q31 -17 49 -44.5t18 -70.5v-221q0 -33 -13 -59t-36 -44.5t-54.5 -28.5t-68.5 -10q-36 0 -67 10t-54.5 28.5t-36.5 44.5t-13 59v170q0 17 17 17h58q24 0 39.5 -14t15.5 -49v-114q0 -39 39 -39q18 0 28.5 10t10.5 29v211q0 26 -14 43
t-43 17h-17q-23 0 -37 16t-14 42v34q0 10 6 15t15 5h46q30 0 44 17t14 43v197q0 19 -10.5 29t-28.5 10q-39 0 -39 -39v-114q0 -35 -15.5 -49t-39.5 -14h-58q-17 0 -17 17v170q0 33 13 59t36.5 44.5t54.5 28.5t67 10q37 0 68.5 -10t54.5 -28.5t36 -44.5t13 -59v-207z" />
    <glyph glyph-name="acute" unicode="&#xb4;" horiz-adv-x="664" 
d="M289 1504q2 9 9 15t17 6h50q26 0 36.5 -15.5t1.5 -35.5l-72 -177q-9 -20 -20.5 -35.5t-37.5 -15.5h-14q-10 0 -16 6t-4 15z" />
    <glyph glyph-name="paragraph" unicode="&#xb6;" horiz-adv-x="1035" 
d="M754 1180q10 0 15 -6t5 -15v-1466q0 -9 -5 -15t-15 -6h-56q-29 0 -43.5 16.5t-14.5 42.5v574h-48h-14.5t-13.5 1v-613q0 -9 -5 -15t-15 -6h-56q-29 0 -43.5 16.5t-14.5 42.5v574h-18q-45 0 -76 12t-50 34.5t-27.5 54t-8.5 71.5v531q0 79 37.5 125.5t124.5 46.5h342z" />
    <glyph glyph-name="glyph118" unicode="&#xb7;" horiz-adv-x="624" 
d="M309 711q40 0 62 -19.5t22 -54.5t-22 -55t-62 -20q-39 0 -61 20t-22 55t22 54.5t61 19.5z" />
    <glyph glyph-name="cedilla" unicode="&#xb8;" horiz-adv-x="735" 
d="M429 0v-309q0 -9 -5 -15t-15 -6h-44q-26 0 -43.5 14t-14.5 37l39 279h83z" />
    <glyph glyph-name="onesuperior" unicode="&#xb9;" horiz-adv-x="785" 
d="M368 1398q2 0 4.5 0.5t4.5 0.5h46q15 0 25.5 -10.5t10.5 -25.5v-768h52q23 0 37 -16t14 -42v-34q0 -10 -6 -15t-15 -5h-298q-9 0 -15 5t-6 15v34q0 26 14 42t37 16h52v675l-31 -8q-22 -6 -39.5 6t-24.5 37l-9 33q-2 9 2.5 15.5t12.5 8.5l132 36v0z" />
    <glyph glyph-name="ordmasculine" unicode="&#xba;" horiz-adv-x="865" 
d="M249 1250q0 77 49 121.5t137 44.5q42 0 76.5 -11.5t58.5 -33t37.5 -52.5t13.5 -69v-610q0 -77 -49 -121.5t-137 -44.5q-42 0 -76.5 11.5t-58.5 33t-37.5 52.5t-13.5 69v610zM491 1250q0 26 -13.5 42t-42.5 16q-28 0 -42 -16t-14 -42v-610q0 -26 13.5 -42t42.5 -16
q28 0 42 16t14 42v610z" />
    <glyph glyph-name="guillemotright" unicode="&#xbb;" horiz-adv-x="866" 
d="M427 902q-4 10 3.5 17t19.5 7h48q29 0 44 -17t23 -41l92 -231l-92 -231q-8 -24 -23 -41t-44 -17h-48q-12 0 -19.5 7t-3.5 17l134 265zM236 902q-4 10 3.5 17t19.5 7h48q29 0 44 -17t23 -41l92 -231l-92 -231q-8 -24 -23 -41t-44 -17h-48q-12 0 -19.5 7t-3.5 17l134 265z
" />
    <glyph glyph-name="onequarter" unicode="&#xbc;" horiz-adv-x="1463" 
d="M416 1398q2 0 4.5 0.5t4.5 0.5h46q15 0 25.5 -10.5t10.5 -25.5v-768h52q23 0 37 -16t14 -42v-34q0 -10 -6 -15t-15 -5h-298q-9 0 -15 5t-6 15v34q0 26 14 42t37 16h52v675l-31 -8q-22 -6 -39.5 6t-24.5 37l-9 33q-2 9 2.5 15.5t12.5 8.5l132 36v0zM699 54
q-3 -24 -18 -39.5t-37 -15.5h-54q-10 0 -16 6t-4 15l237 1325q3 24 18 39.5t37 15.5h54q10 0 16 -6t4 -15zM1069 156h-185q-33 0 -44 13.5t-9 33.5l110 672q3 21 16.5 35t33.5 14h60q19 0 17 -19l-108 -648h109v249q0 20 14.5 32.5t37.5 12.5h49q18 0 18 -18v-513
q0 -19 -18 -19h-49q-26 0 -39 15t-13 38v102z" />
    </font>
</defs>
</svg>
